<svg version="1.1" id="Layer_1" xmlns="http://www.w3.org/2000/svg" xmlns:xlink="http://www.w3.org/1999/xlink" x="0px" y="0px"
	 width="100%" viewBox="0 0 3882 861" enable-background="new 0 0 3882 861" xml:space="preserve">
<path fill="#FFFFFF" opacity="1.000000" stroke="none" 
	d="
M2552.000000,862.000000 
	C1701.333374,862.000000 851.166687,862.000000 1.000000,862.000000 
	C1.000000,575.000000 1.000000,288.000000 1.000000,1.000000 
	C1295.000000,1.000000 2589.000000,1.000000 3883.000000,1.000000 
	C3883.000000,288.000000 3883.000000,575.000000 3883.000000,862.000000 
	C3439.500000,862.000000 2996.000000,862.000000 2552.000000,862.000000 
M413.904358,212.551956 
	C399.199677,169.901749 384.456757,127.264626 369.864410,84.576019 
	C368.722626,81.235847 367.318573,79.978920 363.613220,80.012428 
	C340.951996,80.217354 318.288055,80.110497 295.625000,80.125801 
	C294.192322,80.126770 292.759766,80.281799 291.385651,80.361755 
	C291.385651,177.847443 291.385651,274.912567 291.385651,372.026611 
	C310.967194,372.026611 330.240173,372.026611 350.001221,372.026611 
	C350.001221,305.674469 350.001221,239.516800 350.001221,173.359131 
	C351.345154,174.316345 351.848724,175.428009 352.262207,176.572189 
	C375.206451,240.065247 398.185577,303.545776 420.978271,367.093201 
	C422.390564,371.030853 424.064026,372.476868 428.313446,372.330994 
	C438.466492,371.982330 448.642792,372.077759 458.802917,372.301331 
	C462.054596,372.372894 463.315308,371.251190 464.398590,368.242493 
	C487.493073,304.102783 510.717163,240.009750 533.934265,175.914200 
	C534.276001,174.970703 534.848145,174.110672 535.312805,173.211685 
	C535.588623,173.288635 535.864441,173.365570 536.140259,173.442520 
	C536.140259,239.641464 536.140259,305.840393 536.140259,371.984558 
	C555.822449,371.984558 575.093018,371.984558 594.581604,371.984558 
	C594.581604,274.695190 594.581604,177.642776 594.581604,80.348892 
	C569.053772,80.348892 543.783691,80.348892 518.094849,80.348892 
	C493.157043,151.854752 468.174133,223.490082 442.774323,296.320770 
	C432.907593,267.778168 423.495392,240.550446 413.904358,212.551956 
M1657.075562,305.421600 
	C1669.702759,326.511322 1682.381592,347.570465 1694.891968,368.729340 
	C1696.453003,371.369476 1698.122803,372.387146 1701.178955,372.289673 
	C1708.337769,372.061401 1715.508911,372.216553 1722.675049,372.216522 
	C1733.624878,372.216492 1744.574707,372.216492 1755.703247,372.216492 
	C1755.703247,274.693726 1755.703247,177.628632 1755.703247,80.424339 
	C1736.079956,80.424339 1716.700928,80.424339 1696.795166,80.424339 
	C1696.795166,145.894363 1696.795166,211.042603 1696.795166,277.506012 
	C1695.019409,274.652893 1693.956665,273.001373 1692.948364,271.317322 
	C1655.579834,208.903442 1618.200439,146.495880 1580.902344,84.039864 
	C1579.199585,81.188484 1577.408813,79.943741 1573.903564,80.013336 
	C1560.909668,80.271294 1547.907593,80.115517 1534.908569,80.115227 
	C1529.966431,80.115120 1525.024292,80.115204 1520.065430,80.115204 
	C1520.065430,177.765747 1520.065430,274.838165 1520.065430,371.828613 
	C1539.708374,371.828613 1559.075684,371.828613 1579.052124,371.828613 
	C1579.052124,306.342255 1579.052124,241.245407 1579.052124,174.849258 
	C1605.441162,218.976746 1631.093262,261.871643 1657.075562,305.421600 
M1059.140625,288.593384 
	C1059.503662,292.391357 1060.080200,296.183105 1060.191040,299.988434 
	C1060.573853,313.136505 1060.357788,326.317963 1061.219604,339.430878 
	C1061.868530,349.302216 1062.426270,359.432953 1068.973633,367.877869 
	C1071.275635,370.847015 1073.621948,372.393646 1077.666748,372.330841 
	C1094.659790,372.066925 1111.659302,372.219025 1128.656372,372.218842 
	C1130.279175,372.218811 1131.901855,372.218842 1134.487427,372.218842 
	C1133.600952,369.842529 1133.444702,367.819550 1132.353638,366.753448 
	C1123.660645,358.259308 1120.955444,347.231720 1120.084595,335.899414 
	C1119.052856,322.474640 1119.505005,308.943054 1118.871948,295.478546 
	C1118.054443,278.094086 1113.276611,262.048920 1101.021118,249.034256 
	C1093.040527,240.559189 1083.165405,235.038910 1071.377441,231.552155 
	C1073.203735,230.635406 1074.373779,230.061523 1075.531982,229.464706 
	C1102.695923,215.467911 1118.202637,194.319916 1117.248901,162.638641 
	C1116.442627,135.851257 1105.922241,114.237656 1083.497437,99.335800 
	C1063.637207,86.138306 1041.438965,79.922531 1017.513550,79.989288 
	C983.353333,80.084602 949.192871,80.077499 915.032471,80.113792 
	C913.392212,80.115532 911.752014,80.114014 909.996155,80.114014 
	C909.996155,177.621719 909.996155,274.801727 909.996155,371.947815 
	C929.630493,371.947815 948.886963,371.947815 968.660217,371.947815 
	C968.660217,333.127197 968.660217,294.581543 968.660217,255.783401 
	C984.319641,255.783401 999.466125,256.043640 1014.600342,255.722839 
	C1037.694214,255.233307 1052.226562,265.518372 1059.140625,288.593384 
M652.498169,490.385315 
	C620.567261,490.385315 588.636353,490.385315 556.688416,490.385315 
	C556.688416,588.124268 556.688416,685.271118 556.688416,782.664795 
	C558.747864,782.664795 560.399109,782.664856 562.050354,782.664856 
	C595.034180,782.664490 628.025391,783.061707 660.997803,782.447632 
	C672.518188,782.233093 684.316467,780.733459 695.431335,777.748352 
	C743.958008,764.715820 778.360718,722.529724 780.939819,672.482544 
	C782.121277,649.556396 782.120605,626.486511 781.120483,603.548767 
	C779.329773,562.476562 760.536499,530.588013 725.833984,508.465912 
	C703.825500,494.436035 679.369873,489.372375 652.498169,490.385315 
M1100.521851,491.017059 
	C1077.506348,484.132446 1054.000610,483.784515 1030.865234,488.711151 
	C976.953247,500.191559 940.536926,547.241699 941.052368,602.854065 
	C941.259277,625.178101 941.274536,647.507568 941.049805,669.831238 
	C940.547546,719.720764 970.864136,763.485413 1017.964478,779.993958 
	C1045.319824,789.581787 1073.265991,788.695618 1101.208862,783.150696 
	C1127.616943,777.910400 1150.939819,766.620544 1169.030640,746.094604 
	C1170.795654,744.091797 1172.072021,740.886230 1172.087402,738.230347 
	C1172.288330,703.575073 1172.223022,668.918274 1172.211060,634.261841 
	C1172.210571,632.816162 1172.074219,631.370422 1172.000610,629.913452 
	C1133.606567,629.913452 1095.543945,629.913452 1057.447021,629.913452 
	C1057.447021,643.558167 1057.447021,656.920166 1057.447021,670.540527 
	C1076.084106,670.540527 1094.361206,670.540527 1113.110352,670.540527 
	C1113.110352,672.424927 1113.110352,674.049194 1113.110352,675.673462 
	C1113.110229,691.002258 1112.936523,706.334351 1113.222900,721.657776 
	C1113.301880,725.883179 1111.819946,728.383179 1108.450317,730.550537 
	C1092.047974,741.100830 1073.747681,742.243958 1055.124390,741.161804 
	C1039.919556,740.278259 1027.284302,733.579285 1017.739746,721.779297 
	C1005.956848,707.212036 1000.068604,690.312561 999.950623,671.566895 
	C999.805908,648.574585 999.768066,625.579163 1000.012146,602.588562 
	C1000.080505,596.146362 1000.741821,589.595825 1002.091797,583.301025 
	C1009.136658,550.451172 1029.717285,532.742004 1061.691284,531.577515 
	C1085.865112,530.697144 1105.349243,544.720642 1110.609375,567.041626 
	C1111.654663,571.477600 1111.833374,576.117798 1112.435303,580.848450 
	C1129.796631,580.848450 1146.941040,580.771667 1164.083740,580.914185 
	C1167.453125,580.942200 1167.859985,579.334534 1167.899292,576.634094 
	C1168.236206,553.460876 1160.976318,533.127014 1144.885986,516.321228 
	C1132.859497,503.760071 1117.521606,496.628113 1100.521851,491.017059 
M1680.499756,719.757507 
	C1686.166626,719.757812 1691.850464,720.022156 1697.494385,719.662415 
	C1701.053833,719.435547 1702.266602,720.781128 1703.254517,724.012268 
	C1708.735229,741.937073 1714.565796,759.754822 1720.076782,777.670593 
	C1721.148315,781.154053 1722.514771,782.661438 1726.520264,782.559204 
	C1739.345215,782.232239 1752.183716,782.437561 1765.016968,782.437378 
	C1770.932129,782.437317 1776.847412,782.437317 1783.277222,782.437317 
	C1780.035278,772.834045 1777.008911,763.911255 1774.009766,754.979309 
	C1744.905640,668.302246 1715.780640,581.632141 1686.791992,494.916321 
	C1685.557129,491.221954 1683.829956,490.244080 1680.082397,490.293274 
	C1663.251953,490.514252 1646.415405,490.514221 1629.585205,490.287994 
	C1625.931396,490.238892 1624.433472,491.401215 1623.293457,494.794220 
	C1591.484497,589.473450 1559.566406,684.115967 1527.682983,778.770203 
	C1527.291870,779.931580 1527.117554,781.166077 1526.773438,782.665039 
	C1546.488281,782.665039 1565.647095,782.597046 1584.804443,782.737244 
	C1587.725464,782.758606 1588.363892,781.301025 1589.061157,779.038269 
	C1594.633179,760.959351 1600.388916,742.936584 1605.860718,724.827820 
	C1606.955688,721.204224 1608.140991,719.548462 1612.502075,719.610535 
	C1634.830811,719.928589 1657.166504,719.757629 1680.499756,719.757507 
M2409.459473,212.022659 
	C2401.637451,209.299057 2393.941162,206.111877 2385.967285,203.947800 
	C2369.042236,199.354401 2353.170166,192.552261 2337.930908,183.877182 
	C2315.892090,171.331406 2318.481201,140.911072 2336.936279,129.295944 
	C2356.331543,117.088905 2376.654297,117.873543 2396.815430,127.596741 
	C2407.182129,132.596405 2413.190186,141.479279 2416.033203,152.426392 
	C2417.147705,156.717941 2417.430176,161.225571 2418.113770,165.780853 
	C2436.735107,165.780853 2455.642090,165.780853 2474.877686,165.780853 
	C2476.143066,143.669296 2469.844727,124.328384 2454.760254,108.535439 
	C2435.522705,88.394150 2410.995361,78.588127 2383.696045,76.360741 
	C2359.470215,74.384140 2335.538818,76.250961 2312.996338,86.974434 
	C2284.996826,100.293648 2265.722412,120.083954 2263.563965,152.654388 
	C2261.760498,179.867386 2271.508789,201.771912 2294.417480,217.260223 
	C2315.904541,231.787338 2339.101074,242.651154 2364.217041,249.223373 
	C2378.797119,253.038620 2392.537354,258.617371 2404.952637,267.254211 
	C2425.406250,281.483337 2423.813477,313.648560 2401.693359,325.009521 
	C2381.077637,335.597900 2360.015137,334.242340 2339.204102,325.065033 
	C2326.711670,319.556061 2319.652344,309.404022 2316.293213,296.600708 
	C2315.050781,291.864410 2314.997559,286.816071 2314.346436,281.454926 
	C2296.364990,281.454926 2278.234619,281.389160 2260.108887,281.633636 
	C2259.119385,281.647003 2257.260498,284.304962 2257.343506,285.636017 
	C2257.817871,293.243988 2257.910400,301.028595 2259.692383,308.374756 
	C2266.097656,334.778870 2283.760254,351.560638 2307.591309,362.963440 
	C2334.737793,375.952454 2363.425537,378.706696 2392.797607,375.658966 
	C2414.133301,373.445129 2433.974854,366.065979 2451.040283,352.934784 
	C2470.976807,337.594360 2479.071045,316.604553 2478.071533,291.640106 
	C2477.158447,268.839355 2468.705811,249.588211 2450.276123,236.173325 
	C2437.747314,227.053802 2423.609131,220.145370 2409.459473,212.022659 
M2336.663330,489.090271 
	C2322.808350,492.366943 2309.914795,497.863007 2297.937256,505.584808 
	C2276.411377,519.462463 2264.598389,539.061646 2263.447754,564.692871 
	C2262.270508,590.916077 2271.933105,612.117554 2293.884521,627.112305 
	C2315.016602,641.547607 2337.886963,652.377014 2362.639404,658.972534 
	C2377.997559,663.064880 2392.603027,668.690186 2405.579834,678.027039 
	C2425.149414,692.107483 2423.530518,723.849548 2402.214355,734.999573 
	C2381.532227,745.817871 2360.263184,744.632935 2339.244385,735.384949 
	C2326.941895,729.972046 2319.799072,720.041443 2316.357910,707.436646 
	C2315.027344,702.562561 2314.944336,697.347900 2314.283691,692.215698 
	C2295.521240,692.215698 2276.637695,692.215698 2256.214111,692.215698 
	C2257.382080,701.531311 2257.635254,710.554382 2259.751465,719.116943 
	C2266.169922,745.084778 2283.635498,761.643555 2307.101807,772.933655 
	C2335.030518,786.370605 2364.498047,789.122498 2394.732666,785.598816 
	C2413.100586,783.458252 2430.222900,777.033752 2445.713623,766.819336 
	C2466.677246,752.996582 2477.280762,733.398926 2477.999023,708.247742 
	C2478.731445,682.595215 2470.016357,661.235291 2449.520264,645.453308 
	C2430.519043,630.822144 2409.306152,620.256287 2386.099854,614.099670 
	C2368.975342,609.556641 2352.756592,603.066406 2337.663574,593.812378 
	C2317.797363,581.631653 2316.752197,553.357300 2336.025391,540.131714 
	C2353.694092,528.007202 2372.884766,528.261475 2392.218750,535.559998 
	C2405.485352,540.567993 2413.380615,550.664001 2416.514648,564.392456 
	C2417.382568,568.194397 2417.539551,572.158630 2418.015137,575.987305 
	C2437.014160,575.987305 2455.765625,575.987305 2474.945801,575.987305 
	C2476.046875,549.775696 2467.443848,527.792358 2447.147705,511.573425 
	C2414.625977,485.585114 2377.080322,481.833130 2336.663330,489.090271 
M690.498779,372.217285 
	C695.914734,372.217285 701.330627,372.217285 707.114380,372.217285 
	C707.114380,336.636322 707.114380,301.715240 707.114380,266.604858 
	C725.304443,266.604858 743.120300,266.911530 760.918762,266.486938 
	C771.181152,266.242126 781.665466,265.931152 791.613037,263.701233 
	C816.414124,258.141693 838.042725,246.821259 853.088806,225.309677 
	C865.144531,208.073456 868.914917,188.760284 868.114868,168.063354 
	C867.297791,146.926086 860.489258,128.139160 846.015869,112.836166 
	C825.165527,90.790787 798.638489,80.632233 768.702209,80.204651 
	C729.891357,79.650314 691.066223,80.095650 652.247192,80.126030 
	C650.973206,80.127029 649.699341,80.295921 648.354126,80.391609 
	C648.354126,177.761292 648.354126,274.806488 648.354126,372.217285 
	C662.241333,372.217285 675.870178,372.217285 690.498779,372.217285 
M2136.500000,782.663391 
	C2166.285156,782.663391 2196.070068,782.663391 2226.022217,782.663391 
	C2226.022217,767.283447 2226.022217,752.393860 2226.022217,737.041687 
	C2183.162842,737.041687 2140.604980,737.041687 2098.081299,737.041687 
	C2098.081299,709.178833 2098.081299,681.781067 2098.081299,654.005127 
	C2134.109375,654.005127 2169.846436,654.005127 2205.733887,654.005127 
	C2205.733887,638.872253 2205.733887,624.120239 2205.733887,608.840210 
	C2169.664307,608.840210 2133.793213,608.840210 2098.141602,608.840210 
	C2098.141602,584.244446 2098.141602,560.178223 2098.141602,535.687866 
	C2140.892334,535.687866 2183.291992,535.687866 2225.734375,535.687866 
	C2225.734375,520.480042 2225.734375,505.702759 2225.734375,490.648071 
	C2163.475342,490.648071 2101.406982,490.648071 2039.228760,490.648071 
	C2039.228760,588.016846 2039.228760,685.196838 2039.228760,782.663879 
	C2071.558838,782.663879 2103.529541,782.663879 2136.500000,782.663391 
M1358.073975,118.409454 
	C1358.073975,105.794350 1358.073975,93.179237 1358.073975,80.355347 
	C1295.572754,80.355347 1233.526367,80.355347 1171.263428,80.355347 
	C1171.263428,177.658936 1171.263428,274.709045 1171.263428,371.845642 
	C1233.805908,371.845642 1296.143066,371.845642 1358.437744,371.845642 
	C1358.437744,356.731354 1358.437744,341.994781 1358.437744,326.934753 
	C1315.516724,326.934753 1272.923462,326.934753 1230.302002,326.934753 
	C1230.302002,299.086182 1230.302002,271.568054 1230.302002,243.686035 
	C1266.412720,243.686035 1302.158081,243.686035 1337.907715,243.686035 
	C1337.907715,228.530014 1337.907715,213.741577 1337.907715,198.603714 
	C1301.964355,198.603714 1266.198853,198.603714 1230.186035,198.603714 
	C1230.186035,174.189255 1230.186035,150.125610 1230.186035,125.658264 
	C1272.838135,125.658264 1315.242920,125.658264 1358.074097,125.658264 
	C1358.074097,123.308083 1358.074097,121.345421 1358.073975,118.409454 
M2038.870728,181.499954 
	C2038.870728,244.943420 2038.870728,308.386902 2038.870728,371.909393 
	C2101.531738,371.909393 2163.737305,371.909393 2225.920166,371.909393 
	C2225.920166,356.851807 2225.920166,342.106567 2225.920166,326.893433 
	C2183.095459,326.893433 2140.528809,326.893433 2098.093018,326.893433 
	C2098.093018,299.018097 2098.093018,271.614899 2098.093018,243.801331 
	C2134.137207,243.801331 2169.879395,243.801331 2205.587891,243.801331 
	C2205.587891,228.513489 2205.587891,213.641800 2205.587891,198.342072 
	C2169.518555,198.342072 2133.801514,198.342072 2098.017090,198.342072 
	C2098.017090,173.979691 2098.017090,150.051956 2098.017090,125.696487 
	C2140.643555,125.696487 2183.044434,125.696487 2225.679932,125.696487 
	C2225.679932,110.369514 2225.679932,95.471275 2225.679932,80.361717 
	C2163.375977,80.361717 2101.318115,80.361717 2038.870728,80.361717 
	C2038.870728,113.913841 2038.870728,147.206894 2038.870728,181.499954 
M173.499893,372.218628 
	C199.084213,372.218628 224.668533,372.218628 250.040833,372.218628 
	C250.040833,356.764709 250.040833,342.022614 250.040833,326.831909 
	C207.155136,326.831909 164.592804,326.831909 122.202606,326.831909 
	C122.202606,298.970825 122.202606,271.566864 122.202606,243.733643 
	C158.248703,243.733643 193.980408,243.733643 229.752365,243.733643 
	C229.752365,228.525345 229.752365,213.750778 229.752365,198.568314 
	C193.819412,198.568314 158.073532,198.568314 122.178375,198.568314 
	C122.178375,174.094315 122.178375,150.030212 122.178375,125.554070 
	C164.875839,125.554070 207.282806,125.554070 249.668930,125.554070 
	C249.668930,110.231102 249.668930,95.323341 249.668930,80.440086 
	C187.315231,80.440086 125.265266,80.440086 63.281063,80.440086 
	C63.281063,177.845505 63.281063,274.915253 63.281063,372.218628 
	C99.883987,372.218628 136.191940,372.218628 173.499893,372.218628 
M1397.693726,733.499451 
	C1397.693726,749.782532 1397.693726,766.065552 1397.693726,782.265991 
	C1417.635010,782.265991 1437.015015,782.265991 1456.822388,782.265991 
	C1456.822388,699.974915 1456.822388,618.089722 1456.822388,535.828613 
	C1484.677124,535.828613 1512.100220,535.828613 1539.659912,535.828613 
	C1539.659912,520.562195 1539.659912,505.675201 1539.659912,490.739868 
	C1464.833130,490.739868 1390.292114,490.739868 1315.840820,490.739868 
	C1315.840820,505.996368 1315.840820,520.877747 1315.840820,536.147095 
	C1343.322876,536.147095 1370.412720,536.147095 1397.694092,536.147095 
	C1397.694092,601.861694 1397.694092,667.180542 1397.693726,733.499451 
M1923.871460,262.500031 
	C1923.871460,216.940765 1923.871460,171.381516 1923.871460,125.428055 
	C1952.050293,125.428055 1979.457520,125.428055 2006.698853,125.428055 
	C2006.698853,110.121696 2006.698853,95.216225 2006.698853,80.408936 
	C1931.938354,80.408936 1857.534790,80.408936 1783.171387,80.408936 
	C1783.171387,95.616432 1783.171387,110.521492 1783.171387,125.859344 
	C1810.547729,125.859344 1837.611206,125.859344 1865.106201,125.859344 
	C1865.106201,208.186951 1865.106201,290.078613 1865.106201,371.825745 
	C1884.921997,371.825745 1904.298218,371.825745 1923.871582,371.825745 
	C1923.871582,335.452332 1923.871582,299.476196 1923.871460,262.500031 
M1869.825684,605.500061 
	C1869.825684,567.250000 1869.825684,529.000000 1869.825684,490.605530 
	C1849.897217,490.605530 1830.636108,490.605530 1811.301758,490.605530 
	C1811.301758,588.030396 1811.301758,685.218079 1811.301758,782.391174 
	C1874.432373,782.391174 1937.191528,782.391174 1999.983887,782.391174 
	C1999.983887,767.221191 1999.983887,752.332153 1999.983887,736.954834 
	C1956.407837,736.954834 1913.188599,736.954834 1869.825684,736.954834 
	C1869.825684,693.141785 1869.825684,649.820984 1869.825684,605.500061 
M1284.557251,657.500305 
	C1284.557251,601.921814 1284.557251,546.343323 1284.557251,490.762756 
	C1264.587769,490.762756 1245.230103,490.762756 1225.919678,490.762756 
	C1225.919678,588.205322 1225.919678,685.264709 1225.919678,782.471619 
	C1245.449585,782.471619 1264.704102,782.471619 1284.557251,782.471619 
	C1284.557251,741.016846 1284.557251,699.758606 1284.557251,657.500305 
M890.869629,735.500000 
	C890.869629,653.941528 890.869629,572.383057 890.869629,490.735596 
	C870.924683,490.735596 851.550598,490.735596 832.226746,490.735596 
	C832.226746,588.147156 832.226746,685.199280 832.226746,782.312134 
	C851.878296,782.312134 871.259399,782.312134 890.869629,782.312134 
	C890.869629,766.797119 890.869629,751.648560 890.869629,735.500000 
M1403.207153,188.499908 
	C1403.207153,249.580032 1403.207153,310.660156 1403.207153,371.960632 
	C1423.045288,371.960632 1442.421021,371.960632 1461.742676,371.960632 
	C1461.742676,274.565369 1461.742676,177.430679 1461.742676,80.395798 
	C1442.104248,80.395798 1422.861450,80.395798 1403.207153,80.395798 
	C1403.207153,116.290833 1403.207153,151.895355 1403.207153,188.499908 
M327.725494,675.767273 
	C312.169434,658.091309 296.613342,640.415344 280.980560,622.652161 
	C295.044495,611.465271 308.733612,600.856812 322.105560,589.862610 
	C335.936310,578.491150 347.784424,565.826477 350.551788,546.855469 
	C354.152039,522.174805 342.299927,499.670929 320.091614,490.288330 
	C310.159088,486.092072 299.727478,485.748932 289.192871,486.116455 
	C263.260925,487.021088 242.181915,503.593781 236.045944,528.761353 
	C231.087494,549.099121 233.797623,568.911499 243.675476,587.284790 
	C250.083160,599.203491 257.833801,610.400208 264.478271,621.107544 
	C252.848251,632.423279 240.532303,643.638977 229.118790,655.708130 
	C215.223389,670.401733 205.461212,687.276917 204.614136,708.323547 
	C203.393173,738.659119 214.985611,762.096680 242.412125,775.772400 
	C276.751373,792.895142 311.331787,791.198547 344.505554,772.376587 
	C356.194733,765.744385 366.377502,756.457092 377.426453,748.249573 
	C385.555206,757.427490 394.826050,767.058533 403.063141,777.504761 
	C408.109833,783.904907 413.851685,782.908997 421.305450,782.151855 
	C408.347198,767.339539 396.023834,753.252930 383.615051,739.068665 
	C401.402405,714.015442 410.493530,686.484314 410.012573,655.687134 
	C406.083618,655.687134 402.537445,655.687134 398.767273,655.687134 
	C398.446655,682.960938 391.536591,707.888062 375.794952,730.431396 
	C359.641724,712.078735 343.905060,694.199341 327.725494,675.767273 
M2688.964355,742.500000 
	C2688.964355,757.235107 2688.964355,771.970215 2688.964355,786.480835 
	C2694.329346,786.480835 2698.892334,786.480835 2703.478516,786.480835 
	C2703.478516,549.563599 2703.478516,313.032562 2703.478516,76.378952 
	C2698.526855,76.378952 2693.824707,76.378952 2688.964355,76.378952 
	C2688.964355,298.318939 2688.964355,519.909485 2688.964355,742.500000 
M2970.702881,472.210480 
	C2974.677490,457.856598 2978.652100,443.502747 2982.826904,428.426575 
	C2994.316650,429.265594 3005.452637,429.640289 3016.461182,431.027069 
	C3024.661621,432.060059 3027.688965,436.940338 3026.645020,445.159027 
	C3026.166992,448.923584 3025.498535,452.664001 3024.876221,456.675049 
	C3026.883301,457.167358 3028.561279,457.579010 3030.521729,458.059937 
	C3036.825439,436.736786 3043.019531,415.783722 3049.307861,394.512085 
	C3047.325928,393.989960 3045.685303,393.557770 3044.580811,393.266815 
	C3041.721436,398.223602 3039.619141,403.018982 3036.468018,406.980408 
	C3033.767090,410.376099 3030.217773,414.613983 3026.431641,415.355713 
	C3013.131348,417.961273 2999.567383,419.219177 2985.701172,421.041473 
	C2985.843994,418.951843 2985.778320,418.269989 2985.949219,417.653625 
	C2991.625244,397.175995 2997.322998,376.704498 3003.019287,356.232544 
	C3004.161133,352.128418 3007.130371,350.389679 3011.127197,350.022278 
	C3028.289307,348.444672 3045.358887,348.452789 3062.212402,352.777985 
	C3070.901367,355.007874 3075.382324,360.755219 3075.219727,369.663605 
	C3075.147705,373.604706 3075.207764,377.548218 3075.207764,381.759094 
	C3076.824951,381.759094 3078.569824,381.759094 3080.562500,381.759094 
	C3083.389404,367.934052 3086.194092,354.218933 3089.024902,340.375671 
	C3043.206055,340.375671 2997.962158,340.375671 2952.290283,340.375671 
	C2952.455322,342.081146 2952.587158,343.444641 2952.655762,344.155731 
	C2958.014648,345.216034 2962.797607,345.871124 2967.405273,347.156433 
	C2971.964844,348.428436 2974.080322,351.989319 2973.902588,356.640076 
	C2973.801758,359.280579 2973.379150,361.967438 2972.679199,364.517578 
	C2960.510986,408.853699 2948.342041,453.190002 2936.007812,497.480164 
	C2933.258545,507.352295 2926.993164,513.571350 2916.156982,514.043152 
	C2915.703857,514.062927 2915.260986,514.314148 2914.476562,514.565308 
	C2914.585693,515.983032 2914.692383,517.370056 2914.809570,518.894775 
	C2960.581543,518.894775 3005.900146,518.914307 3051.218506,518.789673 
	C3052.435059,518.786377 3054.310059,517.484741 3054.760498,516.346191 
	C3060.238770,502.501221 3065.506592,488.573029 3070.934082,474.392242 
	C3069.263916,473.552826 3067.738037,472.785889 3066.193115,472.009369 
	C3065.190186,473.518677 3064.483154,474.644135 3063.716309,475.727203 
	C3055.712646,487.031189 3046.298340,497.263824 3033.521484,502.676575 
	C3014.962891,510.538727 2995.081055,511.614136 2975.162842,509.975037 
	C2965.275635,509.161377 2962.177490,504.312408 2964.544434,494.593109 
	C2966.311035,487.338104 2968.412842,480.164673 2970.702881,472.210480 
M3161.379639,490.792236 
	C3161.756836,490.289368 3162.134033,489.786499 3163.229492,488.326324 
	C3162.631348,492.443237 3162.129639,495.438049 3161.775635,498.450256 
	C3161.388184,501.751465 3160.994385,505.062622 3160.852295,508.380066 
	C3160.433105,518.173950 3167.037354,523.512451 3176.552979,521.358215 
	C3194.077881,517.390808 3202.808838,503.318298 3213.019287,490.580566 
	C3211.649658,489.316803 3210.700928,488.441254 3209.550537,487.379761 
	C3205.506836,491.834900 3201.781494,496.297424 3197.652832,500.348663 
	C3195.341064,502.617065 3192.556396,504.616882 3189.635986,506.002991 
	C3185.035156,508.186920 3181.725342,505.676605 3182.189941,500.589874 
	C3182.414551,498.130463 3183.094238,495.691895 3183.757080,493.296295 
	C3198.184326,441.163483 3212.643311,389.039520 3227.077881,336.908783 
	C3228.377686,332.214020 3227.708984,331.519714 3223.141602,332.288971 
	C3211.348633,334.275330 3199.560059,336.295593 3187.742920,338.129150 
	C3184.452881,338.639648 3183.443848,340.011505 3184.746094,343.363800 
	C3186.372803,343.266144 3187.999268,343.172760 3189.625488,343.070160 
	C3200.465576,342.386292 3203.158691,345.660980 3200.524902,356.326202 
	C3200.325684,357.132782 3200.154541,357.947418 3199.924316,358.745056 
	C3197.072510,368.633148 3194.199951,378.515259 3191.358887,388.406464 
	C3189.270508,395.677948 3187.221191,402.960602 3184.946777,410.969208 
	C3180.989990,400.636597 3176.099365,397.172760 3165.805420,397.289551 
	C3162.182617,397.330627 3158.479248,397.777710 3154.965332,398.652252 
	C3140.218994,402.322540 3129.094971,411.663544 3118.532471,422.018127 
	C3100.874023,439.329132 3089.045898,459.421356 3086.374756,484.500702 
	C3084.710449,500.127075 3091.493408,514.552002 3104.326416,519.546875 
	C3117.324707,524.606201 3129.568359,521.609558 3139.867920,513.195129 
	C3147.645752,506.841217 3153.987549,498.729584 3161.379639,490.792236 
M3701.217529,439.865692 
	C3702.885254,432.266235 3705.253906,424.740662 3706.064209,417.050812 
	C3707.455078,403.857727 3697.189209,395.243195 3684.209473,398.240997 
	C3673.066650,400.814545 3663.338135,406.207947 3656.116699,415.169312 
	C3647.250732,426.171356 3638.866211,437.560944 3630.265625,448.776978 
	C3629.668701,449.555084 3629.005127,450.281830 3628.372559,451.032471 
	C3628.135986,450.899139 3627.899414,450.765839 3627.662598,450.632538 
	C3632.983154,433.207153 3638.303955,415.781799 3643.897705,397.461395 
	C3627.839600,400.761597 3613.123047,403.786072 3598.072021,406.879333 
	C3598.180664,408.234863 3598.289307,409.588531 3598.405762,411.038177 
	C3600.185547,410.929962 3601.507568,410.863861 3602.827393,410.767120 
	C3613.751953,409.966370 3617.251953,414.030182 3614.779297,424.666199 
	C3614.667236,425.148621 3614.418701,425.597931 3614.286377,426.077271 
	C3608.995117,445.263611 3603.703125,464.449860 3598.425537,483.639984 
	C3595.231689,495.251709 3592.061279,506.869843 3588.798340,518.782715 
	C3596.020508,518.782715 3602.656006,518.782715 3609.587402,518.782715 
	C3613.069336,507.761322 3616.415771,496.683411 3620.067139,485.707001 
	C3628.743408,459.626709 3643.411133,437.342163 3663.616943,418.807312 
	C3666.769531,415.915253 3671.169922,414.010925 3675.323486,412.679108 
	C3680.312500,411.079559 3683.750732,414.010895 3684.012695,419.285156 
	C3684.110352,421.255463 3683.950928,423.314850 3683.474854,425.225494 
	C3679.225342,442.284180 3674.774170,459.293060 3670.599854,476.369934 
	C3668.042969,486.830353 3665.243164,497.294373 3663.716797,507.923981 
	C3662.479492,516.543457 3669.933350,523.468689 3677.875732,521.534302 
	C3683.215820,520.233765 3689.141113,518.293823 3693.029785,514.712708 
	C3700.893799,507.470520 3707.550537,498.917450 3714.948975,490.631714 
	C3712.682861,488.812073 3711.348633,487.740662 3710.232178,486.844299 
	C3705.306396,492.686707 3701.032715,498.484283 3695.949707,503.453796 
	C3693.665039,505.687439 3689.762207,506.266052 3686.593506,507.595490 
	C3686.215088,504.337189 3684.859863,500.829773 3685.617188,497.861176 
	C3690.496826,478.728973 3695.838379,459.714508 3701.217529,439.865692 
M3524.850586,398.205322 
	C3522.906250,398.638794 3520.951660,399.030609 3519.019287,399.512024 
	C3495.040039,405.486084 3479.009521,421.657440 3466.057129,441.434387 
	C3457.847656,453.969635 3454.338379,468.150818 3454.143311,483.059235 
	C3453.910645,500.870636 3464.666992,515.078125 3481.713135,520.209290 
	C3492.740967,523.528687 3503.475586,521.641846 3514.056885,518.409119 
	C3536.525635,511.544769 3551.350586,495.271057 3563.549316,476.452454 
	C3572.226807,463.066711 3576.093750,447.950562 3574.970703,431.826996 
	C3573.841309,415.611786 3563.469482,402.108521 3547.955078,398.675140 
	C3540.848389,397.102478 3533.147949,398.213074 3524.850586,398.205322 
M3774.277344,513.003601 
	C3762.172607,519.406311 3747.913818,514.995117 3742.398926,502.468994 
	C3739.486084,495.852478 3738.075684,488.585358 3735.715820,481.705017 
	C3735.269287,480.403229 3733.544922,479.539581 3732.410400,478.473724 
	C3731.619141,479.640686 3730.356445,480.720673 3730.122070,481.990356 
	C3729.337891,486.240417 3728.891602,490.554626 3728.370850,494.850983 
	C3727.256836,504.045746 3726.177490,513.244690 3724.888428,524.085388 
	C3727.666260,522.509155 3729.212646,521.448242 3730.902100,520.717651 
	C3733.162598,519.740173 3735.627197,518.131470 3737.838623,518.364563 
	C3743.095215,518.918640 3748.234131,520.507324 3753.457031,521.479919 
	C3767.342773,524.065613 3780.224609,521.887756 3791.741455,513.257568 
	C3804.885010,503.408691 3809.367188,487.317139 3801.492432,472.927032 
	C3795.213623,461.453644 3787.244141,450.912567 3780.177979,439.859772 
	C3777.150146,435.123383 3773.795410,430.408142 3771.838867,425.212677 
	C3767.428223,413.500916 3774.775879,403.474243 3786.870117,404.144531 
	C3795.540771,404.625061 3802.258789,408.695831 3805.685059,416.770386 
	C3807.800293,421.755951 3808.805420,427.213226 3810.295654,432.462555 
	C3810.602539,433.543152 3810.847900,434.641174 3811.184326,435.980591 
	C3812.860352,435.821747 3814.254395,435.689606 3815.665771,435.555847 
	C3817.510254,422.707520 3819.295654,410.270233 3821.213623,396.910797 
	C3819.013672,397.592255 3817.082031,397.585602 3816.484131,398.475433 
	C3812.848877,403.883881 3807.899414,402.424896 3802.989258,401.457886 
	C3796.324707,400.145447 3789.719238,398.210388 3782.992432,397.603058 
	C3766.556641,396.119263 3752.631836,407.749054 3750.646240,424.117218 
	C3749.637451,432.433746 3752.292236,439.887970 3756.741211,446.742157 
	C3763.887939,457.752899 3771.248779,468.624939 3778.367920,479.653137 
	C3785.885986,491.299500 3784.483887,503.892731 3774.277344,513.003601 
M3336.438232,513.965881 
	C3344.755615,506.481049 3351.717773,497.923279 3357.425293,487.829315 
	C3355.926758,487.115540 3354.719482,486.540375 3354.082764,486.237030 
	C3348.072021,492.854767 3342.682373,499.193237 3336.778809,505.010071 
	C3335.264160,506.502350 3332.127441,506.348022 3329.735840,506.950226 
	C3329.315186,504.513794 3328.025146,501.844513 3328.605713,499.676117 
	C3336.157471,471.478302 3344.034668,443.367706 3351.634766,415.182526 
	C3352.413086,412.295746 3353.560791,411.524017 3356.363525,411.609863 
	C3362.782227,411.806458 3369.210938,411.672058 3375.684570,411.672058 
	C3376.243408,408.137482 3376.695068,405.281189 3377.222656,401.943787 
	C3369.743164,401.943787 3362.840576,401.943787 3355.436035,401.943787 
	C3357.904785,392.809204 3360.355713,384.208008 3362.474854,375.525787 
	C3362.925781,373.677368 3362.169189,371.534241 3361.968994,369.526978 
	C3360.114258,370.519684 3357.684326,371.060516 3356.494629,372.575470 
	C3345.404785,386.697968 3332.275146,398.033966 3315.308350,404.651520 
	C3313.281982,405.441803 3312.047852,408.263885 3310.446533,410.144196 
	C3310.803955,410.653778 3311.161377,411.163391 3311.518799,411.672974 
	C3318.029297,411.672974 3324.540039,411.672974 3331.415039,411.672974 
	C3330.710938,414.452209 3330.222900,416.539612 3329.653076,418.604340 
	C3321.707520,447.386627 3313.639893,476.135834 3305.854492,504.961212 
	C3302.863037,516.036194 3310.638916,524.078369 3321.745850,521.196411 
	C3326.716797,519.906677 3331.204590,516.755981 3336.438232,513.965881 
M3405.607910,505.130066 
	C3406.255615,501.087616 3406.521240,496.938843 3407.612061,493.019684 
	C3416.012695,462.833130 3424.575928,432.691833 3433.073975,402.532288 
	C3433.497070,401.030151 3433.779785,399.488434 3434.312012,397.160248 
	C3418.652344,399.723602 3403.888672,402.140259 3389.166504,404.550171 
	C3389.166504,406.047974 3389.166504,407.316162 3389.166504,408.544189 
	C3393.318604,408.989563 3397.253418,409.451233 3401.196533,409.823425 
	C3405.210938,410.202240 3406.652832,412.575195 3406.270996,416.302856 
	C3406.086182,418.105988 3405.787842,419.920197 3405.312988,421.667389 
	C3399.133789,444.390259 3392.802979,467.072601 3386.786621,489.838196 
	C3385.358643,495.242706 3384.286621,500.908752 3384.216309,506.469116 
	C3384.077637,517.455078 3392.381348,524.071472 3402.679932,520.786316 
	C3408.153564,519.040283 3413.721924,515.854736 3417.792236,511.842346 
	C3424.256348,505.470367 3429.505371,497.864624 3435.246338,490.763000 
	C3435.410400,490.560211 3435.325684,490.156586 3435.377441,489.645294 
	C3434.363281,488.790833 3433.274414,487.873566 3432.062256,486.852478 
	C3430.322021,489.096985 3428.961914,491.190521 3427.269775,492.968231 
	C3422.931396,497.525940 3418.671143,502.204895 3413.918457,506.300415 
	C3411.724609,508.190765 3408.387695,510.086182 3405.607910,505.130066 
M3265.346924,503.940033 
	C3264.685547,504.444031 3264.095459,505.181122 3263.349609,505.410217 
	C3260.647949,506.240173 3257.893555,506.899597 3255.159180,507.623383 
	C3254.745850,504.999268 3254.208252,502.385956 3253.978516,499.745880 
	C3253.882812,498.646393 3254.396973,497.477142 3254.710693,496.361145 
	C3263.498535,465.074829 3272.300293,433.792328 3281.083008,402.504486 
	C3281.503662,401.005402 3281.770752,399.463165 3282.262207,397.254791 
	C3266.787598,399.816895 3252.163086,402.238220 3237.405273,404.681641 
	C3237.405273,406.021973 3237.405273,407.389893 3237.405273,408.609955 
	C3241.682129,409.070312 3245.632568,409.488312 3249.581299,409.922638 
	C3253.552734,410.359467 3254.947998,412.929108 3254.683594,416.524963 
	C3254.539551,418.489014 3253.963623,420.439178 3253.433350,422.354340 
	C3247.195557,444.882538 3240.799561,467.368256 3234.761963,489.949860 
	C3233.276367,495.506195 3232.238525,501.366150 3232.223633,507.089691 
	C3232.200195,516.184692 3239.697266,522.962158 3247.475098,521.742432 
	C3254.039795,520.713135 3260.080078,518.214111 3264.594971,513.286133 
	C3271.299805,505.967834 3277.607422,498.286011 3284.291748,490.517761 
	C3282.468018,488.958435 3281.293213,487.953766 3280.346191,487.143860 
	C3275.342773,492.795807 3270.618896,498.132294 3265.346924,503.940033 
M3048.632324,290.131592 
	C3036.848877,302.203705 3025.065186,314.275787 3012.391357,327.259766 
	C3016.934326,326.394531 3021.228516,326.628754 3024.312744,324.810364 
	C3039.024414,316.135712 3053.435791,306.948669 3067.894287,297.848816 
	C3074.079102,293.956055 3075.437744,288.554688 3071.727783,283.671570 
	C3067.932617,278.675964 3061.088379,278.355316 3055.934814,283.023804 
	C3053.593750,285.144379 3051.405518,287.433472 3048.632324,290.131592 
M3291.109375,358.379242 
	C3291.358398,356.584259 3291.889648,354.776123 3291.806641,352.996613 
	C3291.455566,345.457916 3285.674561,339.337250 3278.839600,339.045776 
	C3272.104248,338.758484 3266.082275,343.885864 3265.014648,350.816833 
	C3263.790771,358.762512 3267.646240,365.839447 3274.385742,368.017151 
	C3281.313232,370.255585 3286.920166,367.255463 3291.109375,358.379242 
M3441.820557,361.099121 
	C3445.994873,350.638153 3441.106201,340.050323 3431.632324,339.033203 
	C3425.121826,338.334198 3419.204834,342.311279 3417.202881,348.731506 
	C3414.949463,355.960083 3418.016357,363.919189 3424.292480,367.130096 
	C3430.489990,370.300659 3436.183350,368.505951 3441.820557,361.099121 
z"/>
<path fill="#080A0A" opacity="1.000000" stroke="none" 
	d="
M413.993774,212.937332 
	C423.495392,240.550446 432.907593,267.778168 442.774323,296.320770 
	C468.174133,223.490082 493.157043,151.854752 518.094849,80.348892 
	C543.783691,80.348892 569.053772,80.348892 594.581604,80.348892 
	C594.581604,177.642776 594.581604,274.695190 594.581604,371.984558 
	C575.093018,371.984558 555.822449,371.984558 536.140259,371.984558 
	C536.140259,305.840393 536.140259,239.641464 536.140259,173.442520 
	C535.864441,173.365570 535.588623,173.288635 535.312805,173.211685 
	C534.848145,174.110672 534.276001,174.970703 533.934265,175.914200 
	C510.717163,240.009750 487.493073,304.102783 464.398590,368.242493 
	C463.315308,371.251190 462.054596,372.372894 458.802917,372.301331 
	C448.642792,372.077759 438.466492,371.982330 428.313446,372.330994 
	C424.064026,372.476868 422.390564,371.030853 420.978271,367.093201 
	C398.185577,303.545776 375.206451,240.065247 352.262207,176.572189 
	C351.848724,175.428009 351.345154,174.316345 350.001221,173.359131 
	C350.001221,239.516800 350.001221,305.674469 350.001221,372.026611 
	C330.240173,372.026611 310.967194,372.026611 291.385651,372.026611 
	C291.385651,274.912567 291.385651,177.847443 291.385651,80.361755 
	C292.759766,80.281799 294.192322,80.126770 295.625000,80.125801 
	C318.288055,80.110497 340.951996,80.217354 363.613220,80.012428 
	C367.318573,79.978920 368.722626,81.235847 369.864410,84.576019 
	C384.456757,127.264626 399.199677,169.901749 413.993774,212.937332 
z"/>
<path fill="#080A0A" opacity="1.000000" stroke="none" 
	d="
M1656.910400,305.094086 
	C1631.093262,261.871643 1605.441162,218.976746 1579.052124,174.849258 
	C1579.052124,241.245407 1579.052124,306.342255 1579.052124,371.828613 
	C1559.075684,371.828613 1539.708374,371.828613 1520.065430,371.828613 
	C1520.065430,274.838165 1520.065430,177.765747 1520.065430,80.115204 
	C1525.024292,80.115204 1529.966431,80.115120 1534.908569,80.115227 
	C1547.907593,80.115517 1560.909668,80.271294 1573.903564,80.013336 
	C1577.408813,79.943741 1579.199585,81.188484 1580.902344,84.039864 
	C1618.200439,146.495880 1655.579834,208.903442 1692.948364,271.317322 
	C1693.956665,273.001373 1695.019409,274.652893 1696.795166,277.506012 
	C1696.795166,211.042603 1696.795166,145.894363 1696.795166,80.424339 
	C1716.700928,80.424339 1736.079956,80.424339 1755.703247,80.424339 
	C1755.703247,177.628632 1755.703247,274.693726 1755.703247,372.216492 
	C1744.574707,372.216492 1733.624878,372.216492 1722.675049,372.216522 
	C1715.508911,372.216553 1708.337769,372.061401 1701.178955,372.289673 
	C1698.122803,372.387146 1696.453003,371.369476 1694.891968,368.729340 
	C1682.381592,347.570465 1669.702759,326.511322 1656.910400,305.094086 
z"/>
<path fill="#080A0A" opacity="1.000000" stroke="none" 
	d="
M1059.094238,288.173218 
	C1052.226562,265.518372 1037.694214,255.233307 1014.600342,255.722839 
	C999.466125,256.043640 984.319641,255.783401 968.660217,255.783401 
	C968.660217,294.581543 968.660217,333.127197 968.660217,371.947815 
	C948.886963,371.947815 929.630493,371.947815 909.996155,371.947815 
	C909.996155,274.801727 909.996155,177.621719 909.996155,80.114014 
	C911.752014,80.114014 913.392212,80.115532 915.032471,80.113792 
	C949.192871,80.077499 983.353333,80.084602 1017.513550,79.989288 
	C1041.438965,79.922531 1063.637207,86.138306 1083.497437,99.335800 
	C1105.922241,114.237656 1116.442627,135.851257 1117.248901,162.638641 
	C1118.202637,194.319916 1102.695923,215.467911 1075.531982,229.464706 
	C1074.373779,230.061523 1073.203735,230.635406 1071.377441,231.552155 
	C1083.165405,235.038910 1093.040527,240.559189 1101.021118,249.034256 
	C1113.276611,262.048920 1118.054443,278.094086 1118.871948,295.478546 
	C1119.505005,308.943054 1119.052856,322.474640 1120.084595,335.899414 
	C1120.955444,347.231720 1123.660645,358.259308 1132.353638,366.753448 
	C1133.444702,367.819550 1133.600952,369.842529 1134.487427,372.218842 
	C1131.901855,372.218842 1130.279175,372.218811 1128.656372,372.218842 
	C1111.659302,372.219025 1094.659790,372.066925 1077.666748,372.330841 
	C1073.621948,372.393646 1071.275635,370.847015 1068.973633,367.877869 
	C1062.426270,359.432953 1061.868530,349.302216 1061.219604,339.430878 
	C1060.357788,326.317963 1060.573853,313.136505 1060.191040,299.988434 
	C1060.080200,296.183105 1059.503662,292.391357 1059.094238,288.173218 
M968.529358,166.499756 
	C968.529358,180.921356 968.529358,195.342957 968.529358,210.133987 
	C981.920776,210.133987 994.871033,210.224014 1007.819031,210.092224 
	C1013.448608,210.034927 1019.176575,210.098785 1024.682373,209.114441 
	C1046.892822,205.143570 1058.984253,190.563843 1058.254395,168.143250 
	C1057.580200,147.431229 1047.231567,132.574493 1027.488770,127.542801 
	C1020.388306,125.733192 1012.691956,125.985725 1005.256470,125.830078 
	C993.156250,125.576790 981.046875,125.761742 968.528198,125.761742 
	C968.528198,139.296722 968.528198,152.398239 968.529358,166.499756 
z"/>
<path fill="#090B0B" opacity="1.000000" stroke="none" 
	d="
M652.997559,490.385315 
	C679.369873,489.372375 703.825500,494.436035 725.833984,508.465912 
	C760.536499,530.588013 779.329773,562.476562 781.120483,603.548767 
	C782.120605,626.486511 782.121277,649.556396 780.939819,672.482544 
	C778.360718,722.529724 743.958008,764.715820 695.431335,777.748352 
	C684.316467,780.733459 672.518188,782.233093 660.997803,782.447632 
	C628.025391,783.061707 595.034180,782.664490 562.050354,782.664856 
	C560.399109,782.664856 558.747864,782.664795 556.688416,782.664795 
	C556.688416,685.271118 556.688416,588.124268 556.688416,490.385315 
	C588.636353,490.385315 620.567261,490.385315 652.997559,490.385315 
M615.221985,582.499878 
	C615.221985,633.907104 615.221985,685.314331 615.221985,737.143555 
	C630.791016,737.143555 645.904236,737.138000 661.017395,737.145386 
	C672.493835,737.151062 683.111694,734.006714 692.268311,727.203003 
	C712.569153,712.119080 721.353271,690.991882 722.065430,666.381042 
	C722.628784,646.914795 722.097351,627.418640 722.203796,607.936584 
	C722.284912,593.091797 718.376892,579.321899 710.980103,566.610474 
	C699.146057,546.273499 681.581970,535.604736 657.712219,535.913147 
	C646.224365,536.061584 634.732971,535.939026 623.243225,535.939148 
	C620.649963,535.939209 618.056702,535.939148 615.221985,535.939148 
	C615.221985,551.575500 615.221985,566.537659 615.221985,582.499878 
z"/>
<path fill="#080A0A" opacity="1.000000" stroke="none" 
	d="
M1100.920898,491.075378 
	C1117.521606,496.628113 1132.859497,503.760071 1144.885986,516.321228 
	C1160.976318,533.127014 1168.236206,553.460876 1167.899292,576.634094 
	C1167.859985,579.334534 1167.453125,580.942200 1164.083740,580.914185 
	C1146.941040,580.771667 1129.796631,580.848450 1112.435303,580.848450 
	C1111.833374,576.117798 1111.654663,571.477600 1110.609375,567.041626 
	C1105.349243,544.720642 1085.865112,530.697144 1061.691284,531.577515 
	C1029.717285,532.742004 1009.136658,550.451172 1002.091797,583.301025 
	C1000.741821,589.595825 1000.080505,596.146362 1000.012146,602.588562 
	C999.768066,625.579163 999.805908,648.574585 999.950623,671.566895 
	C1000.068604,690.312561 1005.956848,707.212036 1017.739746,721.779297 
	C1027.284302,733.579285 1039.919556,740.278259 1055.124390,741.161804 
	C1073.747681,742.243958 1092.047974,741.100830 1108.450317,730.550537 
	C1111.819946,728.383179 1113.301880,725.883179 1113.222900,721.657776 
	C1112.936523,706.334351 1113.110229,691.002258 1113.110352,675.673462 
	C1113.110352,674.049194 1113.110352,672.424927 1113.110352,670.540527 
	C1094.361206,670.540527 1076.084106,670.540527 1057.447021,670.540527 
	C1057.447021,656.920166 1057.447021,643.558167 1057.447021,629.913452 
	C1095.543945,629.913452 1133.606567,629.913452 1172.000610,629.913452 
	C1172.074219,631.370422 1172.210571,632.816162 1172.211060,634.261841 
	C1172.223022,668.918274 1172.288330,703.575073 1172.087402,738.230347 
	C1172.072021,740.886230 1170.795654,744.091797 1169.030640,746.094604 
	C1150.939819,766.620544 1127.616943,777.910400 1101.208862,783.150696 
	C1073.265991,788.695618 1045.319824,789.581787 1017.964478,779.993958 
	C970.864136,763.485413 940.547546,719.720764 941.049805,669.831238 
	C941.274536,647.507568 941.259277,625.178101 941.052368,602.854065 
	C940.536926,547.241699 976.953247,500.191559 1030.865234,488.711151 
	C1054.000610,483.784515 1077.506348,484.132446 1100.920898,491.075378 
z"/>
<path fill="#080A0A" opacity="1.000000" stroke="none" 
	d="
M1679.999756,719.757568 
	C1657.166504,719.757629 1634.830811,719.928589 1612.502075,719.610535 
	C1608.140991,719.548462 1606.955688,721.204224 1605.860718,724.827820 
	C1600.388916,742.936584 1594.633179,760.959351 1589.061157,779.038269 
	C1588.363892,781.301025 1587.725464,782.758606 1584.804443,782.737244 
	C1565.647095,782.597046 1546.488281,782.665039 1526.773438,782.665039 
	C1527.117554,781.166077 1527.291870,779.931580 1527.682983,778.770203 
	C1559.566406,684.115967 1591.484497,589.473450 1623.293457,494.794220 
	C1624.433472,491.401215 1625.931396,490.238892 1629.585205,490.287994 
	C1646.415405,490.514221 1663.251953,490.514252 1680.082397,490.293274 
	C1683.829956,490.244080 1685.557129,491.221954 1686.791992,494.916321 
	C1715.780640,581.632141 1744.905640,668.302246 1774.009766,754.979309 
	C1777.008911,763.911255 1780.035278,772.834045 1783.277222,782.437317 
	C1776.847412,782.437317 1770.932129,782.437317 1765.016968,782.437378 
	C1752.183716,782.437561 1739.345215,782.232239 1726.520264,782.559204 
	C1722.514771,782.661438 1721.148315,781.154053 1720.076782,777.670593 
	C1714.565796,759.754822 1708.735229,741.937073 1703.254517,724.012268 
	C1702.266602,720.781128 1701.053833,719.435547 1697.494385,719.662415 
	C1691.850464,720.022156 1686.166626,719.757812 1679.999756,719.757568 
M1681.375244,673.213684 
	C1683.251099,673.213684 1685.126831,673.213684 1687.464966,673.213684 
	C1676.583618,638.594543 1665.972534,604.835083 1654.902222,569.614990 
	C1643.728271,605.010010 1633.036865,638.876404 1622.196777,673.213562 
	C1642.104248,673.213562 1661.255981,673.213562 1681.375244,673.213684 
z"/>
<path fill="#080A0A" opacity="1.000000" stroke="none" 
	d="
M2409.825195,212.135406 
	C2423.609131,220.145370 2437.747314,227.053802 2450.276123,236.173325 
	C2468.705811,249.588211 2477.158447,268.839355 2478.071533,291.640106 
	C2479.071045,316.604553 2470.976807,337.594360 2451.040283,352.934784 
	C2433.974854,366.065979 2414.133301,373.445129 2392.797607,375.658966 
	C2363.425537,378.706696 2334.737793,375.952454 2307.591309,362.963440 
	C2283.760254,351.560638 2266.097656,334.778870 2259.692383,308.374756 
	C2257.910400,301.028595 2257.817871,293.243988 2257.343506,285.636017 
	C2257.260498,284.304962 2259.119385,281.647003 2260.108887,281.633636 
	C2278.234619,281.389160 2296.364990,281.454926 2314.346436,281.454926 
	C2314.997559,286.816071 2315.050781,291.864410 2316.293213,296.600708 
	C2319.652344,309.404022 2326.711670,319.556061 2339.204102,325.065033 
	C2360.015137,334.242340 2381.077637,335.597900 2401.693359,325.009521 
	C2423.813477,313.648560 2425.406250,281.483337 2404.952637,267.254211 
	C2392.537354,258.617371 2378.797119,253.038620 2364.217041,249.223373 
	C2339.101074,242.651154 2315.904541,231.787338 2294.417480,217.260223 
	C2271.508789,201.771912 2261.760498,179.867386 2263.563965,152.654388 
	C2265.722412,120.083954 2284.996826,100.293648 2312.996338,86.974434 
	C2335.538818,76.250961 2359.470215,74.384140 2383.696045,76.360741 
	C2410.995361,78.588127 2435.522705,88.394150 2454.760254,108.535439 
	C2469.844727,124.328384 2476.143066,143.669296 2474.877686,165.780853 
	C2455.642090,165.780853 2436.735107,165.780853 2418.113770,165.780853 
	C2417.430176,161.225571 2417.147705,156.717941 2416.033203,152.426392 
	C2413.190186,141.479279 2407.182129,132.596405 2396.815430,127.596741 
	C2376.654297,117.873543 2356.331543,117.088905 2336.936279,129.295944 
	C2318.481201,140.911072 2315.892090,171.331406 2337.930908,183.877182 
	C2353.170166,192.552261 2369.042236,199.354401 2385.967285,203.947800 
	C2393.941162,206.111877 2401.637451,209.299057 2409.825195,212.135406 
z"/>
<path fill="#080A0A" opacity="1.000000" stroke="none" 
	d="
M2337.082520,489.050873 
	C2377.080322,481.833130 2414.625977,485.585114 2447.147705,511.573425 
	C2467.443848,527.792358 2476.046875,549.775696 2474.945801,575.987305 
	C2455.765625,575.987305 2437.014160,575.987305 2418.015137,575.987305 
	C2417.539551,572.158630 2417.382568,568.194397 2416.514648,564.392456 
	C2413.380615,550.664001 2405.485352,540.567993 2392.218750,535.559998 
	C2372.884766,528.261475 2353.694092,528.007202 2336.025391,540.131714 
	C2316.752197,553.357300 2317.797363,581.631653 2337.663574,593.812378 
	C2352.756592,603.066406 2368.975342,609.556641 2386.099854,614.099670 
	C2409.306152,620.256287 2430.519043,630.822144 2449.520264,645.453308 
	C2470.016357,661.235291 2478.731445,682.595215 2477.999023,708.247742 
	C2477.280762,733.398926 2466.677246,752.996582 2445.713623,766.819336 
	C2430.222900,777.033752 2413.100586,783.458252 2394.732666,785.598816 
	C2364.498047,789.122498 2335.030518,786.370605 2307.101807,772.933655 
	C2283.635498,761.643555 2266.169922,745.084778 2259.751465,719.116943 
	C2257.635254,710.554382 2257.382080,701.531311 2256.214111,692.215698 
	C2276.637695,692.215698 2295.521240,692.215698 2314.283691,692.215698 
	C2314.944336,697.347900 2315.027344,702.562561 2316.357910,707.436646 
	C2319.799072,720.041443 2326.941895,729.972046 2339.244385,735.384949 
	C2360.263184,744.632935 2381.532227,745.817871 2402.214355,734.999573 
	C2423.530518,723.849548 2425.149414,692.107483 2405.579834,678.027039 
	C2392.603027,668.690186 2377.997559,663.064880 2362.639404,658.972534 
	C2337.886963,652.377014 2315.016602,641.547607 2293.884521,627.112305 
	C2271.933105,612.117554 2262.270508,590.916077 2263.447754,564.692871 
	C2264.598389,539.061646 2276.411377,519.462463 2297.937256,505.584808 
	C2309.914795,497.863007 2322.808350,492.366943 2337.082520,489.050873 
z"/>
<path fill="#080A0A" opacity="1.000000" stroke="none" 
	d="
M689.998901,372.217285 
	C675.870178,372.217285 662.241333,372.217285 648.354126,372.217285 
	C648.354126,274.806488 648.354126,177.761292 648.354126,80.391609 
	C649.699341,80.295921 650.973206,80.127029 652.247192,80.126030 
	C691.066223,80.095650 729.891357,79.650314 768.702209,80.204651 
	C798.638489,80.632233 825.165527,90.790787 846.015869,112.836166 
	C860.489258,128.139160 867.297791,146.926086 868.114868,168.063354 
	C868.914917,188.760284 865.144531,208.073456 853.088806,225.309677 
	C838.042725,246.821259 816.414124,258.141693 791.613037,263.701233 
	C781.665466,265.931152 771.181152,266.242126 760.918762,266.486938 
	C743.120300,266.911530 725.304443,266.604858 707.114380,266.604858 
	C707.114380,301.715240 707.114380,336.636322 707.114380,372.217285 
	C701.330627,372.217285 695.914734,372.217285 689.998901,372.217285 
M791.622498,134.824326 
	C785.629883,132.125732 779.840088,128.699692 773.581482,126.955307 
	C768.436584,125.521309 762.736877,125.846207 757.280029,125.805962 
	C740.669922,125.683472 724.058472,125.761551 707.209473,125.761551 
	C707.209473,157.616760 707.209473,189.148621 707.209473,221.053879 
	C709.028748,221.053879 710.652405,221.053177 712.276062,221.053970 
	C728.757629,221.062027 745.239990,220.975525 761.720642,221.102203 
	C782.978455,221.265594 799.762390,210.417923 806.530396,191.922302 
	C813.975830,171.575073 808.026245,147.970566 791.622498,134.824326 
z"/>
<path fill="#090B0B" opacity="1.000000" stroke="none" 
	d="
M2136.000000,782.663635 
	C2103.529541,782.663879 2071.558838,782.663879 2039.228760,782.663879 
	C2039.228760,685.196838 2039.228760,588.016846 2039.228760,490.648071 
	C2101.406982,490.648071 2163.475342,490.648071 2225.734375,490.648071 
	C2225.734375,505.702759 2225.734375,520.480042 2225.734375,535.687866 
	C2183.291992,535.687866 2140.892334,535.687866 2098.141602,535.687866 
	C2098.141602,560.178223 2098.141602,584.244446 2098.141602,608.840210 
	C2133.793213,608.840210 2169.664307,608.840210 2205.733887,608.840210 
	C2205.733887,624.120239 2205.733887,638.872253 2205.733887,654.005127 
	C2169.846436,654.005127 2134.109375,654.005127 2098.081299,654.005127 
	C2098.081299,681.781067 2098.081299,709.178833 2098.081299,737.041687 
	C2140.604980,737.041687 2183.162842,737.041687 2226.022217,737.041687 
	C2226.022217,752.393860 2226.022217,767.283447 2226.022217,782.663391 
	C2196.070068,782.663391 2166.285156,782.663391 2136.000000,782.663635 
z"/>
<path fill="#080A0A" opacity="1.000000" stroke="none" 
	d="
M1358.073975,118.896103 
	C1358.074097,121.345421 1358.074097,123.308083 1358.074097,125.658264 
	C1315.242920,125.658264 1272.838135,125.658264 1230.186035,125.658264 
	C1230.186035,150.125610 1230.186035,174.189255 1230.186035,198.603714 
	C1266.198853,198.603714 1301.964355,198.603714 1337.907715,198.603714 
	C1337.907715,213.741577 1337.907715,228.530014 1337.907715,243.686035 
	C1302.158081,243.686035 1266.412720,243.686035 1230.302002,243.686035 
	C1230.302002,271.568054 1230.302002,299.086182 1230.302002,326.934753 
	C1272.923462,326.934753 1315.516724,326.934753 1358.437744,326.934753 
	C1358.437744,341.994781 1358.437744,356.731354 1358.437744,371.845642 
	C1296.143066,371.845642 1233.805908,371.845642 1171.263428,371.845642 
	C1171.263428,274.709045 1171.263428,177.658936 1171.263428,80.355347 
	C1233.526367,80.355347 1295.572754,80.355347 1358.073975,80.355347 
	C1358.073975,93.179237 1358.073975,105.794350 1358.073975,118.896103 
z"/>
<path fill="#080A0A" opacity="1.000000" stroke="none" 
	d="
M2038.870728,180.999939 
	C2038.870728,147.206894 2038.870728,113.913841 2038.870728,80.361717 
	C2101.318115,80.361717 2163.375977,80.361717 2225.679932,80.361717 
	C2225.679932,95.471275 2225.679932,110.369514 2225.679932,125.696487 
	C2183.044434,125.696487 2140.643555,125.696487 2098.017090,125.696487 
	C2098.017090,150.051956 2098.017090,173.979691 2098.017090,198.342072 
	C2133.801514,198.342072 2169.518555,198.342072 2205.587891,198.342072 
	C2205.587891,213.641800 2205.587891,228.513489 2205.587891,243.801331 
	C2169.879395,243.801331 2134.137207,243.801331 2098.093018,243.801331 
	C2098.093018,271.614899 2098.093018,299.018097 2098.093018,326.893433 
	C2140.528809,326.893433 2183.095459,326.893433 2225.920166,326.893433 
	C2225.920166,342.106567 2225.920166,356.851807 2225.920166,371.909393 
	C2163.737305,371.909393 2101.531738,371.909393 2038.870728,371.909393 
	C2038.870728,308.386902 2038.870728,244.943420 2038.870728,180.999939 
z"/>
<path fill="#080A0A" opacity="1.000000" stroke="none" 
	d="
M172.999878,372.218628 
	C136.191940,372.218628 99.883987,372.218628 63.281063,372.218628 
	C63.281063,274.915253 63.281063,177.845505 63.281063,80.440086 
	C125.265266,80.440086 187.315231,80.440086 249.668930,80.440086 
	C249.668930,95.323341 249.668930,110.231102 249.668930,125.554070 
	C207.282806,125.554070 164.875839,125.554070 122.178375,125.554070 
	C122.178375,150.030212 122.178375,174.094315 122.178375,198.568314 
	C158.073532,198.568314 193.819412,198.568314 229.752365,198.568314 
	C229.752365,213.750778 229.752365,228.525345 229.752365,243.733643 
	C193.980408,243.733643 158.248703,243.733643 122.202606,243.733643 
	C122.202606,271.566864 122.202606,298.970825 122.202606,326.831909 
	C164.592804,326.831909 207.155136,326.831909 250.040833,326.831909 
	C250.040833,342.022614 250.040833,356.764709 250.040833,372.218628 
	C224.668533,372.218628 199.084213,372.218628 172.999878,372.218628 
z"/>
<path fill="#090B0B" opacity="1.000000" stroke="none" 
	d="
M1397.693848,732.999451 
	C1397.694092,667.180542 1397.694092,601.861694 1397.694092,536.147095 
	C1370.412720,536.147095 1343.322876,536.147095 1315.840820,536.147095 
	C1315.840820,520.877747 1315.840820,505.996368 1315.840820,490.739868 
	C1390.292114,490.739868 1464.833130,490.739868 1539.659912,490.739868 
	C1539.659912,505.675201 1539.659912,520.562195 1539.659912,535.828613 
	C1512.100220,535.828613 1484.677124,535.828613 1456.822388,535.828613 
	C1456.822388,618.089722 1456.822388,699.974915 1456.822388,782.265991 
	C1437.015015,782.265991 1417.635010,782.265991 1397.693726,782.265991 
	C1397.693726,766.065552 1397.693726,749.782532 1397.693848,732.999451 
z"/>
<path fill="#080A0A" opacity="1.000000" stroke="none" 
	d="
M1923.871582,263.000061 
	C1923.871582,299.476196 1923.871582,335.452332 1923.871582,371.825745 
	C1904.298218,371.825745 1884.921997,371.825745 1865.106201,371.825745 
	C1865.106201,290.078613 1865.106201,208.186951 1865.106201,125.859344 
	C1837.611206,125.859344 1810.547729,125.859344 1783.171387,125.859344 
	C1783.171387,110.521492 1783.171387,95.616432 1783.171387,80.408936 
	C1857.534790,80.408936 1931.938354,80.408936 2006.698853,80.408936 
	C2006.698853,95.216225 2006.698853,110.121696 2006.698853,125.428055 
	C1979.457520,125.428055 1952.050293,125.428055 1923.871460,125.428055 
	C1923.871460,171.381516 1923.871460,216.940765 1923.871582,263.000061 
z"/>
<path fill="#090B0B" opacity="1.000000" stroke="none" 
	d="
M1869.825684,606.000122 
	C1869.825684,649.820984 1869.825684,693.141785 1869.825684,736.954834 
	C1913.188599,736.954834 1956.407837,736.954834 1999.983887,736.954834 
	C1999.983887,752.332153 1999.983887,767.221191 1999.983887,782.391174 
	C1937.191528,782.391174 1874.432373,782.391174 1811.301758,782.391174 
	C1811.301758,685.218079 1811.301758,588.030396 1811.301758,490.605530 
	C1830.636108,490.605530 1849.897217,490.605530 1869.825684,490.605530 
	C1869.825684,529.000000 1869.825684,567.250000 1869.825684,606.000122 
z"/>
<path fill="#090B0B" opacity="1.000000" stroke="none" 
	d="
M1284.557251,658.000366 
	C1284.557251,699.758606 1284.557251,741.016846 1284.557251,782.471619 
	C1264.704102,782.471619 1245.449585,782.471619 1225.919678,782.471619 
	C1225.919678,685.264709 1225.919678,588.205322 1225.919678,490.762756 
	C1245.230103,490.762756 1264.587769,490.762756 1284.557251,490.762756 
	C1284.557251,546.343323 1284.557251,601.921814 1284.557251,658.000366 
z"/>
<path fill="#080A0A" opacity="1.000000" stroke="none" 
	d="
M890.869629,736.000000 
	C890.869629,751.648560 890.869629,766.797119 890.869629,782.312134 
	C871.259399,782.312134 851.878296,782.312134 832.226746,782.312134 
	C832.226746,685.199280 832.226746,588.147156 832.226746,490.735596 
	C851.550598,490.735596 870.924683,490.735596 890.869629,490.735596 
	C890.869629,572.383057 890.869629,653.941528 890.869629,736.000000 
z"/>
<path fill="#080A0A" opacity="1.000000" stroke="none" 
	d="
M1403.207153,187.999893 
	C1403.207153,151.895355 1403.207153,116.290833 1403.207153,80.395798 
	C1422.861450,80.395798 1442.104248,80.395798 1461.742676,80.395798 
	C1461.742676,177.430679 1461.742676,274.565369 1461.742676,371.960632 
	C1442.421021,371.960632 1423.045288,371.960632 1403.207153,371.960632 
	C1403.207153,310.660156 1403.207153,249.580032 1403.207153,187.999893 
z"/>
<path fill="#0B0D0D" opacity="1.000000" stroke="none" 
	d="
M327.946960,676.043579 
	C343.905060,694.199341 359.641724,712.078735 375.794952,730.431396 
	C391.536591,707.888062 398.446655,682.960938 398.767273,655.687134 
	C402.537445,655.687134 406.083618,655.687134 410.012573,655.687134 
	C410.493530,686.484314 401.402405,714.015442 383.615051,739.068665 
	C396.023834,753.252930 408.347198,767.339539 421.305450,782.151855 
	C413.851685,782.908997 408.109833,783.904907 403.063141,777.504761 
	C394.826050,767.058533 385.555206,757.427490 377.426453,748.249573 
	C366.377502,756.457092 356.194733,765.744385 344.505554,772.376587 
	C311.331787,791.198547 276.751373,792.895142 242.412125,775.772400 
	C214.985611,762.096680 203.393173,738.659119 204.614136,708.323547 
	C205.461212,687.276917 215.223389,670.401733 229.118790,655.708130 
	C240.532303,643.638977 252.848251,632.423279 264.478271,621.107544 
	C257.833801,610.400208 250.083160,599.203491 243.675476,587.284790 
	C233.797623,568.911499 231.087494,549.099121 236.045944,528.761353 
	C242.181915,503.593781 263.260925,487.021088 289.192871,486.116455 
	C299.727478,485.748932 310.159088,486.092072 320.091614,490.288330 
	C342.299927,499.670929 354.152039,522.174805 350.551788,546.855469 
	C347.784424,565.826477 335.936310,578.491150 322.105560,589.862610 
	C308.733612,600.856812 295.044495,611.465271 280.980560,622.652161 
	C296.613342,640.415344 312.169434,658.091309 327.946960,676.043579 
M274.572418,631.873352 
	C273.371887,629.934448 272.258331,629.751343 270.252441,631.268494 
	C253.265457,644.116394 238.286957,658.820923 226.611496,676.782837 
	C205.098160,709.879761 216.205185,750.949951 251.849731,767.764099 
	C277.091858,779.671326 302.894012,777.817688 328.378937,768.268066 
	C344.491425,762.230408 357.904572,752.136536 369.175323,739.021301 
	C337.609894,703.274353 306.324341,667.844299 274.572418,631.873352 
M297.784424,596.294739 
	C304.300537,591.120850 310.899963,586.047729 317.312317,580.748291 
	C325.915771,573.638000 332.633850,565.053406 336.489136,554.476685 
	C343.904114,534.134094 336.915588,512.693481 319.940491,502.970367 
	C311.056030,497.881500 301.422516,497.052490 291.504303,497.348999 
	C267.154816,498.076965 247.971008,516.109497 245.855911,540.432373 
	C243.294022,569.893188 256.400696,593.336609 274.226196,615.071289 
	C282.135498,608.776978 289.687531,602.766907 297.784424,596.294739 
z"/>
<path fill="#0D0F0F" opacity="1.000000" stroke="none" 
	d="
M2688.964355,742.000000 
	C2688.964355,519.909485 2688.964355,298.318939 2688.964355,76.378952 
	C2693.824707,76.378952 2698.526855,76.378952 2703.478516,76.378952 
	C2703.478516,313.032562 2703.478516,549.563599 2703.478516,786.480835 
	C2698.892334,786.480835 2694.329346,786.480835 2688.964355,786.480835 
	C2688.964355,771.970215 2688.964355,757.235107 2688.964355,742.000000 
z"/>
<path fill="#0A0C0C" opacity="1.000000" stroke="none" 
	d="
M2970.534180,472.582703 
	C2968.412842,480.164673 2966.311035,487.338104 2964.544434,494.593109 
	C2962.177490,504.312408 2965.275635,509.161377 2975.162842,509.975037 
	C2995.081055,511.614136 3014.962891,510.538727 3033.521484,502.676575 
	C3046.298340,497.263824 3055.712646,487.031189 3063.716309,475.727203 
	C3064.483154,474.644135 3065.190186,473.518677 3066.193115,472.009369 
	C3067.738037,472.785889 3069.263916,473.552826 3070.934082,474.392242 
	C3065.506592,488.573029 3060.238770,502.501221 3054.760498,516.346191 
	C3054.310059,517.484741 3052.435059,518.786377 3051.218506,518.789673 
	C3005.900146,518.914307 2960.581543,518.894775 2914.809570,518.894775 
	C2914.692383,517.370056 2914.585693,515.983032 2914.476562,514.565308 
	C2915.260986,514.314148 2915.703857,514.062927 2916.156982,514.043152 
	C2926.993164,513.571350 2933.258545,507.352295 2936.007812,497.480164 
	C2948.342041,453.190002 2960.510986,408.853699 2972.679199,364.517578 
	C2973.379150,361.967438 2973.801758,359.280579 2973.902588,356.640076 
	C2974.080322,351.989319 2971.964844,348.428436 2967.405273,347.156433 
	C2962.797607,345.871124 2958.014648,345.216034 2952.655762,344.155731 
	C2952.587158,343.444641 2952.455322,342.081146 2952.290283,340.375671 
	C2997.962158,340.375671 3043.206055,340.375671 3089.024902,340.375671 
	C3086.194092,354.218933 3083.389404,367.934052 3080.562500,381.759094 
	C3078.569824,381.759094 3076.824951,381.759094 3075.207764,381.759094 
	C3075.207764,377.548218 3075.147705,373.604706 3075.219727,369.663605 
	C3075.382324,360.755219 3070.901367,355.007874 3062.212402,352.777985 
	C3045.358887,348.452789 3028.289307,348.444672 3011.127197,350.022278 
	C3007.130371,350.389679 3004.161133,352.128418 3003.019287,356.232544 
	C2997.322998,376.704498 2991.625244,397.175995 2985.949219,417.653625 
	C2985.778320,418.269989 2985.843994,418.951843 2985.701172,421.041473 
	C2999.567383,419.219177 3013.131348,417.961273 3026.431641,415.355713 
	C3030.217773,414.613983 3033.767090,410.376099 3036.468018,406.980408 
	C3039.619141,403.018982 3041.721436,398.223602 3044.580811,393.266815 
	C3045.685303,393.557770 3047.325928,393.989960 3049.307861,394.512085 
	C3043.019531,415.783722 3036.825439,436.736786 3030.521729,458.059937 
	C3028.561279,457.579010 3026.883301,457.167358 3024.876221,456.675049 
	C3025.498535,452.664001 3026.166992,448.923584 3026.645020,445.159027 
	C3027.688965,436.940338 3024.661621,432.060059 3016.461182,431.027069 
	C3005.452637,429.640289 2994.316650,429.265594 2982.826904,428.426575 
	C2978.652100,443.502747 2974.677490,457.856598 2970.534180,472.582703 
z"/>
<path fill="#0A0C0C" opacity="1.000000" stroke="none" 
	d="
M3161.174072,491.096191 
	C3153.987549,498.729584 3147.645752,506.841217 3139.867920,513.195129 
	C3129.568359,521.609558 3117.324707,524.606201 3104.326416,519.546875 
	C3091.493408,514.552002 3084.710449,500.127075 3086.374756,484.500702 
	C3089.045898,459.421356 3100.874023,439.329132 3118.532471,422.018127 
	C3129.094971,411.663544 3140.218994,402.322540 3154.965332,398.652252 
	C3158.479248,397.777710 3162.182617,397.330627 3165.805420,397.289551 
	C3176.099365,397.172760 3180.989990,400.636597 3184.946777,410.969208 
	C3187.221191,402.960602 3189.270508,395.677948 3191.358887,388.406464 
	C3194.199951,378.515259 3197.072510,368.633148 3199.924316,358.745056 
	C3200.154541,357.947418 3200.325684,357.132782 3200.524902,356.326202 
	C3203.158691,345.660980 3200.465576,342.386292 3189.625488,343.070160 
	C3187.999268,343.172760 3186.372803,343.266144 3184.746094,343.363800 
	C3183.443848,340.011505 3184.452881,338.639648 3187.742920,338.129150 
	C3199.560059,336.295593 3211.348633,334.275330 3223.141602,332.288971 
	C3227.708984,331.519714 3228.377686,332.214020 3227.077881,336.908783 
	C3212.643311,389.039520 3198.184326,441.163483 3183.757080,493.296295 
	C3183.094238,495.691895 3182.414551,498.130463 3182.189941,500.589874 
	C3181.725342,505.676605 3185.035156,508.186920 3189.635986,506.002991 
	C3192.556396,504.616882 3195.341064,502.617065 3197.652832,500.348663 
	C3201.781494,496.297424 3205.506836,491.834900 3209.550537,487.379761 
	C3210.700928,488.441254 3211.649658,489.316803 3213.019287,490.580566 
	C3202.808838,503.318298 3194.077881,517.390808 3176.552979,521.358215 
	C3167.037354,523.512451 3160.433105,518.173950 3160.852295,508.380066 
	C3160.994385,505.062622 3161.388184,501.751465 3161.775635,498.450256 
	C3162.129639,495.438049 3162.631348,492.443237 3163.229492,488.326324 
	C3162.134033,489.786499 3161.756836,490.289368 3161.174072,491.096191 
M3173.800537,405.325348 
	C3171.385742,404.873352 3168.963623,404.002289 3166.557129,404.042542 
	C3156.541992,404.210052 3148.687988,409.299408 3142.416504,416.432190 
	C3124.547607,436.755615 3112.485352,459.828979 3110.493408,487.376678 
	C3109.379883,502.776550 3120.424072,511.494232 3134.812256,505.980011 
	C3139.483154,504.190033 3144.384033,501.383240 3147.565674,497.661652 
	C3154.221680,489.876709 3160.424316,481.546326 3165.693359,472.767792 
	C3175.356934,456.668304 3180.383545,439.020325 3180.119385,420.102295 
	C3180.044189,414.725189 3179.127441,409.460388 3173.800537,405.325348 
z"/>
<path fill="#0A0C0C" opacity="1.000000" stroke="none" 
	d="
M3701.123047,440.263580 
	C3695.838379,459.714508 3690.496826,478.728973 3685.617188,497.861176 
	C3684.859863,500.829773 3686.215088,504.337189 3686.593506,507.595520 
	C3689.762207,506.266052 3693.665039,505.687439 3695.949707,503.453796 
	C3701.032715,498.484283 3705.306396,492.686707 3710.232178,486.844299 
	C3711.348633,487.740662 3712.682861,488.812073 3714.948975,490.631714 
	C3707.550537,498.917450 3700.893799,507.470520 3693.029785,514.712708 
	C3689.141113,518.293823 3683.215820,520.233765 3677.875732,521.534302 
	C3669.933350,523.468689 3662.479492,516.543457 3663.716797,507.923981 
	C3665.243164,497.294373 3668.042969,486.830353 3670.599854,476.369934 
	C3674.774170,459.293060 3679.225342,442.284180 3683.474854,425.225494 
	C3683.950928,423.314850 3684.110352,421.255463 3684.012695,419.285156 
	C3683.750732,414.010895 3680.312500,411.079559 3675.323486,412.679108 
	C3671.169922,414.010925 3666.769531,415.915253 3663.616943,418.807312 
	C3643.411133,437.342163 3628.743408,459.626709 3620.067139,485.707001 
	C3616.415771,496.683411 3613.069336,507.761322 3609.587402,518.782715 
	C3602.656006,518.782715 3596.020508,518.782715 3588.798340,518.782715 
	C3592.061279,506.869843 3595.231689,495.251709 3598.425537,483.639984 
	C3603.703125,464.449860 3608.995117,445.263611 3614.286377,426.077271 
	C3614.418701,425.597931 3614.667236,425.148621 3614.779297,424.666199 
	C3617.251953,414.030182 3613.751953,409.966370 3602.827393,410.767120 
	C3601.507568,410.863861 3600.185547,410.929962 3598.405762,411.038177 
	C3598.289307,409.588531 3598.180664,408.234863 3598.072021,406.879333 
	C3613.123047,403.786072 3627.839600,400.761597 3643.897705,397.461395 
	C3638.303955,415.781799 3632.983154,433.207153 3627.662598,450.632538 
	C3627.899414,450.765839 3628.135986,450.899139 3628.372559,451.032471 
	C3629.005127,450.281830 3629.668701,449.555084 3630.265625,448.776978 
	C3638.866211,437.560944 3647.250732,426.171356 3656.116699,415.169312 
	C3663.338135,406.207947 3673.066650,400.814545 3684.209473,398.240997 
	C3697.189209,395.243195 3707.455078,403.857727 3706.064209,417.050812 
	C3705.253906,424.740662 3702.885254,432.266235 3701.123047,440.263580 
z"/>
<path fill="#0A0C0C" opacity="1.000000" stroke="none" 
	d="
M3525.283691,398.156067 
	C3533.147949,398.213074 3540.848389,397.102478 3547.955078,398.675140 
	C3563.469482,402.108521 3573.841309,415.611786 3574.970703,431.826996 
	C3576.093750,447.950562 3572.226807,463.066711 3563.549316,476.452454 
	C3551.350586,495.271057 3536.525635,511.544769 3514.056885,518.409119 
	C3503.475586,521.641846 3492.740967,523.528687 3481.713135,520.209290 
	C3464.666992,515.078125 3453.910645,500.870636 3454.143311,483.059235 
	C3454.338379,468.150818 3457.847656,453.969635 3466.057129,441.434387 
	C3479.009521,421.657440 3495.040039,405.486084 3519.019287,399.512024 
	C3520.951660,399.030609 3522.906250,398.638794 3525.283691,398.156067 
M3512.772705,411.214417 
	C3506.334961,419.402374 3499.154297,427.120819 3493.617676,435.878540 
	C3482.915771,452.806610 3477.875488,471.685486 3477.879150,491.738831 
	C3477.882568,510.274078 3492.983643,520.469238 3509.948242,513.018982 
	C3515.390137,510.629150 3520.677002,506.706116 3524.585205,502.221313 
	C3536.998291,487.975830 3544.881348,471.213318 3549.100098,452.810211 
	C3551.899414,440.597870 3553.917725,428.286102 3550.035400,415.882050 
	C3547.228760,406.913422 3539.712891,401.637329 3530.524658,403.641907 
	C3524.567627,404.941589 3519.069092,408.344971 3512.772705,411.214417 
z"/>
<path fill="#0B0D0D" opacity="1.000000" stroke="none" 
	d="
M3774.593018,512.802307 
	C3784.483887,503.892731 3785.885986,491.299500 3778.367920,479.653137 
	C3771.248779,468.624939 3763.887939,457.752899 3756.741211,446.742157 
	C3752.292236,439.887970 3749.637451,432.433746 3750.646240,424.117218 
	C3752.631836,407.749054 3766.556641,396.119263 3782.992432,397.603058 
	C3789.719238,398.210388 3796.324707,400.145447 3802.989258,401.457886 
	C3807.899414,402.424896 3812.848877,403.883881 3816.484131,398.475433 
	C3817.082031,397.585602 3819.013672,397.592255 3821.213623,396.910797 
	C3819.295654,410.270233 3817.510254,422.707520 3815.665771,435.555847 
	C3814.254395,435.689606 3812.860352,435.821747 3811.184326,435.980591 
	C3810.847900,434.641174 3810.602539,433.543152 3810.295654,432.462555 
	C3808.805420,427.213226 3807.800293,421.755951 3805.685059,416.770386 
	C3802.258789,408.695831 3795.540771,404.625061 3786.870117,404.144531 
	C3774.775879,403.474243 3767.428223,413.500916 3771.838867,425.212677 
	C3773.795410,430.408142 3777.150146,435.123383 3780.177979,439.859772 
	C3787.244141,450.912567 3795.213623,461.453644 3801.492432,472.927032 
	C3809.367188,487.317139 3804.885010,503.408691 3791.741455,513.257568 
	C3780.224609,521.887756 3767.342773,524.065613 3753.457031,521.479919 
	C3748.234131,520.507324 3743.095215,518.918640 3737.838623,518.364563 
	C3735.627197,518.131470 3733.162598,519.740173 3730.902100,520.717651 
	C3729.212646,521.448242 3727.666260,522.509155 3724.888428,524.085388 
	C3726.177490,513.244690 3727.256836,504.045746 3728.370850,494.850983 
	C3728.891602,490.554626 3729.337891,486.240417 3730.122070,481.990356 
	C3730.356445,480.720673 3731.619141,479.640686 3732.410400,478.473724 
	C3733.544922,479.539581 3735.269287,480.403229 3735.715820,481.705017 
	C3738.075684,488.585358 3739.486084,495.852478 3742.398926,502.468994 
	C3747.913818,514.995117 3762.172607,519.406311 3774.593018,512.802307 
z"/>
<path fill="#0B0D0D" opacity="1.000000" stroke="none" 
	d="
M3336.174805,514.207886 
	C3331.204590,516.755981 3326.716797,519.906677 3321.745850,521.196411 
	C3310.638916,524.078369 3302.863037,516.036194 3305.854492,504.961212 
	C3313.639893,476.135834 3321.707520,447.386627 3329.653076,418.604340 
	C3330.222900,416.539612 3330.710938,414.452209 3331.415039,411.672974 
	C3324.540039,411.672974 3318.029297,411.672974 3311.518799,411.672974 
	C3311.161377,411.163391 3310.803955,410.653778 3310.446533,410.144196 
	C3312.047852,408.263885 3313.281982,405.441803 3315.308350,404.651520 
	C3332.275146,398.033966 3345.404785,386.697968 3356.494629,372.575470 
	C3357.684326,371.060516 3360.114258,370.519684 3361.968994,369.526947 
	C3362.169189,371.534241 3362.925781,373.677368 3362.474854,375.525787 
	C3360.355713,384.208008 3357.904785,392.809204 3355.436035,401.943787 
	C3362.840576,401.943787 3369.743164,401.943787 3377.222656,401.943787 
	C3376.695068,405.281189 3376.243408,408.137482 3375.684570,411.672058 
	C3369.210938,411.672058 3362.782227,411.806458 3356.363525,411.609863 
	C3353.560791,411.524017 3352.413086,412.295746 3351.634766,415.182526 
	C3344.034668,443.367706 3336.157471,471.478302 3328.605713,499.676117 
	C3328.025146,501.844513 3329.315186,504.513794 3329.735840,506.950256 
	C3332.127441,506.348022 3335.264160,506.502350 3336.778809,505.010071 
	C3342.682373,499.193237 3348.072021,492.854767 3354.082764,486.237030 
	C3354.719482,486.540375 3355.926758,487.115540 3357.425293,487.829315 
	C3351.717773,497.923279 3344.755615,506.481049 3336.174805,514.207886 
z"/>
<path fill="#0A0C0C" opacity="1.000000" stroke="none" 
	d="
M3405.747803,505.557373 
	C3408.387695,510.086182 3411.724609,508.190765 3413.918457,506.300415 
	C3418.671143,502.204895 3422.931396,497.525940 3427.269775,492.968231 
	C3428.961914,491.190521 3430.322021,489.096985 3432.062256,486.852478 
	C3433.274414,487.873566 3434.363281,488.790833 3435.377441,489.645294 
	C3435.325684,490.156586 3435.410400,490.560211 3435.246338,490.763000 
	C3429.505371,497.864624 3424.256348,505.470367 3417.792236,511.842346 
	C3413.721924,515.854736 3408.153564,519.040283 3402.679932,520.786316 
	C3392.381348,524.071472 3384.077637,517.455078 3384.216309,506.469116 
	C3384.286621,500.908752 3385.358643,495.242706 3386.786621,489.838196 
	C3392.802979,467.072601 3399.133789,444.390259 3405.312988,421.667389 
	C3405.787842,419.920197 3406.086182,418.105988 3406.270996,416.302856 
	C3406.652832,412.575195 3405.210938,410.202240 3401.196533,409.823425 
	C3397.253418,409.451233 3393.318604,408.989563 3389.166504,408.544189 
	C3389.166504,407.316162 3389.166504,406.047974 3389.166504,404.550171 
	C3403.888672,402.140259 3418.652344,399.723602 3434.312012,397.160248 
	C3433.779785,399.488434 3433.497070,401.030151 3433.073975,402.532288 
	C3424.575928,432.691833 3416.012695,462.833130 3407.612061,493.019684 
	C3406.521240,496.938843 3406.255615,501.087616 3405.747803,505.557373 
z"/>
<path fill="#0A0C0C" opacity="1.000000" stroke="none" 
	d="
M3265.621094,503.704407 
	C3270.618896,498.132294 3275.342773,492.795807 3280.346191,487.143860 
	C3281.293213,487.953766 3282.468018,488.958435 3284.291748,490.517761 
	C3277.607422,498.286011 3271.299805,505.967834 3264.594971,513.286133 
	C3260.080078,518.214111 3254.039795,520.713135 3247.475098,521.742432 
	C3239.697266,522.962158 3232.200195,516.184692 3232.223633,507.089691 
	C3232.238525,501.366150 3233.276367,495.506195 3234.761963,489.949860 
	C3240.799561,467.368256 3247.195557,444.882538 3253.433350,422.354340 
	C3253.963623,420.439178 3254.539551,418.489014 3254.683594,416.524963 
	C3254.947998,412.929108 3253.552734,410.359467 3249.581299,409.922638 
	C3245.632568,409.488312 3241.682129,409.070312 3237.405273,408.609955 
	C3237.405273,407.389893 3237.405273,406.021973 3237.405273,404.681641 
	C3252.163086,402.238220 3266.787598,399.816895 3282.262207,397.254791 
	C3281.770752,399.463165 3281.503662,401.005402 3281.083008,402.504486 
	C3272.300293,433.792328 3263.498535,465.074829 3254.710693,496.361145 
	C3254.396973,497.477142 3253.882812,498.646393 3253.978516,499.745880 
	C3254.208252,502.385956 3254.745850,504.999268 3255.159180,507.623352 
	C3257.893555,506.899597 3260.647949,506.240173 3263.349609,505.410217 
	C3264.095459,505.181122 3264.685547,504.444031 3265.621094,503.704407 
z"/>
<path fill="#0B0D0D" opacity="1.000000" stroke="none" 
	d="
M3048.890137,289.888855 
	C3051.405518,287.433472 3053.593750,285.144379 3055.934814,283.023804 
	C3061.088379,278.355316 3067.932617,278.675964 3071.727783,283.671570 
	C3075.437744,288.554688 3074.079102,293.956055 3067.894287,297.848816 
	C3053.435791,306.948669 3039.024414,316.135712 3024.312744,324.810364 
	C3021.228516,326.628754 3016.934326,326.394531 3012.391357,327.259766 
	C3025.065186,314.275787 3036.848877,302.203705 3048.890137,289.888855 
z"/>
<path fill="#0A0C0C" opacity="1.000000" stroke="none" 
	d="
M3291.029297,358.766907 
	C3286.920166,367.255463 3281.313232,370.255585 3274.385742,368.017151 
	C3267.646240,365.839447 3263.790771,358.762512 3265.014648,350.816833 
	C3266.082275,343.885864 3272.104248,338.758484 3278.839600,339.045776 
	C3285.674561,339.337250 3291.455566,345.457916 3291.806641,352.996613 
	C3291.889648,354.776123 3291.358398,356.584259 3291.029297,358.766907 
z"/>
<path fill="#0B0D0D" opacity="1.000000" stroke="none" 
	d="
M3441.619141,361.415344 
	C3436.183350,368.505951 3430.489990,370.300659 3424.292480,367.130096 
	C3418.016357,363.919189 3414.949463,355.960083 3417.202881,348.731506 
	C3419.204834,342.311279 3425.121826,338.334198 3431.632324,339.033203 
	C3441.106201,340.050323 3445.994873,350.638153 3441.619141,361.415344 
z"/>
<path fill="#FFFFFF" opacity="1.000000" stroke="none" 
	d="
M968.528809,165.999756 
	C968.528198,152.398239 968.528198,139.296722 968.528198,125.761742 
	C981.046875,125.761742 993.156250,125.576790 1005.256470,125.830078 
	C1012.691956,125.985725 1020.388306,125.733192 1027.488770,127.542801 
	C1047.231567,132.574493 1057.580200,147.431229 1058.254395,168.143250 
	C1058.984253,190.563843 1046.892822,205.143570 1024.682373,209.114441 
	C1019.176575,210.098785 1013.448608,210.034927 1007.819031,210.092224 
	C994.871033,210.224014 981.920776,210.133987 968.529358,210.133987 
	C968.529358,195.342957 968.529358,180.921356 968.528809,165.999756 
z"/>
<path fill="#FEFEFE" opacity="1.000000" stroke="none" 
	d="
M615.221985,581.999878 
	C615.221985,566.537659 615.221985,551.575500 615.221985,535.939148 
	C618.056702,535.939148 620.649963,535.939209 623.243225,535.939148 
	C634.732971,535.939026 646.224365,536.061584 657.712219,535.913147 
	C681.581970,535.604736 699.146057,546.273499 710.980103,566.610474 
	C718.376892,579.321899 722.284912,593.091797 722.203796,607.936584 
	C722.097351,627.418640 722.628784,646.914795 722.065430,666.381042 
	C721.353271,690.991882 712.569153,712.119080 692.268311,727.203003 
	C683.111694,734.006714 672.493835,737.151062 661.017395,737.145386 
	C645.904236,737.138000 630.791016,737.143555 615.221985,737.143555 
	C615.221985,685.314331 615.221985,633.907104 615.221985,581.999878 
z"/>
<path fill="#FDFEFE" opacity="1.000000" stroke="none" 
	d="
M1680.891479,673.213623 
	C1661.255981,673.213562 1642.104248,673.213562 1622.196777,673.213562 
	C1633.036865,638.876404 1643.728271,605.010010 1654.902222,569.614990 
	C1665.972534,604.835083 1676.583618,638.594543 1687.464966,673.213684 
	C1685.126831,673.213684 1683.251099,673.213684 1680.891479,673.213623 
z"/>
<path fill="#FFFFFF" opacity="1.000000" stroke="none" 
	d="
M791.928589,135.014862 
	C808.026245,147.970566 813.975830,171.575073 806.530396,191.922302 
	C799.762390,210.417923 782.978455,221.265594 761.720642,221.102203 
	C745.239990,220.975525 728.757629,221.062027 712.276062,221.053970 
	C710.652405,221.053177 709.028748,221.053879 707.209473,221.053879 
	C707.209473,189.148621 707.209473,157.616760 707.209473,125.761551 
	C724.058472,125.761551 740.669922,125.683472 757.280029,125.805962 
	C762.736877,125.846207 768.436584,125.521309 773.581482,126.955307 
	C779.840088,128.699692 785.629883,132.125732 791.928589,135.014862 
z"/>
<path fill="#FEFEFE" opacity="1.000000" stroke="none" 
	d="
M274.805603,632.143799 
	C306.324341,667.844299 337.609894,703.274353 369.175323,739.021301 
	C357.904572,752.136536 344.491425,762.230408 328.378937,768.268066 
	C302.894012,777.817688 277.091858,779.671326 251.849731,767.764099 
	C216.205185,750.949951 205.098160,709.879761 226.611496,676.782837 
	C238.286957,658.820923 253.265457,644.116394 270.252441,631.268494 
	C272.258331,629.751343 273.371887,629.934448 274.805603,632.143799 
z"/>
<path fill="#FEFEFE" opacity="1.000000" stroke="none" 
	d="
M297.511993,596.525818 
	C289.687531,602.766907 282.135498,608.776978 274.226196,615.071289 
	C256.400696,593.336609 243.294022,569.893188 245.855911,540.432373 
	C247.971008,516.109497 267.154816,498.076965 291.504303,497.348999 
	C301.422516,497.052490 311.056030,497.881500 319.940491,502.970367 
	C336.915588,512.693481 343.904114,534.134094 336.489136,554.476685 
	C332.633850,565.053406 325.915771,573.638000 317.312317,580.748291 
	C310.899963,586.047729 304.300537,591.120850 297.511993,596.525818 
z"/>
<path fill="#FDFEFE" opacity="1.000000" stroke="none" 
	d="
M3174.094727,405.587952 
	C3179.127441,409.460388 3180.044189,414.725189 3180.119385,420.102295 
	C3180.383545,439.020325 3175.356934,456.668304 3165.693359,472.767792 
	C3160.424316,481.546326 3154.221680,489.876709 3147.565674,497.661652 
	C3144.384033,501.383240 3139.483154,504.190033 3134.812256,505.980011 
	C3120.424072,511.494232 3109.379883,502.776550 3110.493408,487.376678 
	C3112.485352,459.828979 3124.547607,436.755615 3142.416504,416.432190 
	C3148.687988,409.299408 3156.541992,404.210052 3166.557129,404.042542 
	C3168.963623,404.002289 3171.385742,404.873352 3174.094727,405.587952 
z"/>
<path fill="#FEFEFE" opacity="1.000000" stroke="none" 
	d="
M3513.068848,411.010071 
	C3519.069092,408.344971 3524.567627,404.941589 3530.524658,403.641907 
	C3539.712891,401.637329 3547.228760,406.913422 3550.035400,415.882050 
	C3553.917725,428.286102 3551.899414,440.597870 3549.100098,452.810211 
	C3544.881348,471.213318 3536.998291,487.975830 3524.585205,502.221313 
	C3520.677002,506.706116 3515.390137,510.629150 3509.948242,513.018982 
	C3492.983643,520.469238 3477.882568,510.274078 3477.879150,491.738831 
	C3477.875488,471.685486 3482.915771,452.806610 3493.617676,435.878540 
	C3499.154297,427.120819 3506.334961,419.402374 3513.068848,411.010071 
z"/>
</svg>