<?xml version="1.0" standalone="no"?>
<!DOCTYPE svg PUBLIC "-//W3C//DTD SVG 20010904//EN"
 "http://www.w3.org/TR/2001/REC-SVG-20010904/DTD/svg10.dtd">
<svg version="1.0" xmlns="http://www.w3.org/2000/svg"
 width="2048.000000pt" height="829.000000pt" viewBox="0 0 2048.000000 829.000000"
 preserveAspectRatio="xMidYMid meet">
<metadata>
Created by potrace 1.16, written by Peter Selinger 2001-2019
</metadata>
<g transform="translate(0.000000,829.000000) scale(0.100000,-0.100000)"
fill="#000000" stroke="none">
<path d="M8710 4145 l0 -4145 85 0 85 0 0 4145 0 4145 -85 0 -85 0 0 -4145z"/>
<path d="M11595 5900 c-11 -5 -139 -126 -285 -269 l-265 -260 58 0 c57 -1 58
-1 330 169 305 191 299 187 315 217 46 86 -59 184 -153 143z"/>
<path d="M2 4193 l3 -1698 1093 -3 1092 -2 0 265 0 265 -750 0 -750 0 0 485 0
485 630 0 630 0 0 260 0 260 -630 0 -630 0 0 430 0 430 745 0 745 0 0 260 0
260 -1090 0 -1090 0 2 -1697z"/>
<path d="M3465 5870 c-282 -75 -452 -270 -495 -568 -16 -107 0 -284 35 -406
40 -139 130 -307 262 -487 35 -48 63 -89 63 -92 0 -3 -35 -34 -77 -69 -185
-150 -321 -289 -443 -453 -81 -108 -121 -184 -157 -302 -24 -79 -26 -105 -27
-243 -1 -133 2 -166 22 -234 79 -276 271 -465 576 -567 132 -45 225 -59 389
-59 358 0 645 118 933 384 l81 75 182 -205 181 -204 76 0 c57 0 73 3 68 13 -5
6 -102 119 -218 251 -197 224 -209 240 -196 260 147 228 220 400 265 619 20
100 38 318 27 329 -5 5 -36 8 -68 6 l-59 -3 -7 -115 c-10 -179 -48 -339 -118
-501 -41 -95 -129 -249 -142 -249 -8 0 -1111 1250 -1106 1255 2 1 127 101 278
222 347 277 440 375 497 529 35 92 44 295 19 394 -55 215 -218 373 -436 424
-95 23 -314 20 -405 -4z m410 -132 c130 -42 239 -143 286 -266 30 -80 37 -233
14 -321 -47 -181 -118 -264 -465 -541 l-275 -220 -33 38 c-50 55 -149 206
-192 291 -79 160 -111 293 -111 465 0 91 4 125 25 191 66 210 222 345 442 385
77 14 234 3 309 -22z m86 -2135 c299 -339 552 -627 562 -640 18 -22 18 -23
-47 -87 -185 -185 -430 -309 -685 -346 -50 -8 -142 -10 -239 -7 -185 6 -245
20 -400 98 -179 90 -305 232 -368 414 -25 71 -28 94 -28 210 0 95 4 147 18
195 59 216 247 466 511 682 66 53 123 98 126 98 3 0 250 -278 550 -617z"/>
<path d="M5690 4190 l0 -1700 658 0 c415 0 690 4 747 11 530 65 978 428 1145
927 64 192 65 207 65 767 0 568 -1 574 -72 779 -142 409 -458 716 -874 851
-197 63 -218 65 -981 65 l-688 0 0 -1700z m1405 1147 c87 -28 168 -74 240
-133 99 -80 210 -266 257 -429 23 -79 23 -87 23 -585 l0 -505 -28 -88 c-75
-242 -213 -420 -391 -507 -136 -67 -161 -70 -513 -70 l-313 0 0 1168 c0 643 3
1172 7 1176 5 4 150 6 323 4 309 -4 316 -5 395 -31z"/>
<path d="M13489 5296 c-2 -3 -92 -19 -199 -36 -259 -41 -240 -36 -240 -65 0
-25 1 -25 81 -22 74 2 82 0 100 -22 12 -14 19 -39 19 -64 0 -32 -156 -612
-187 -697 -3 -10 -11 0 -20 27 -58 167 -317 164 -574 -7 -82 -55 -300 -276
-368 -374 -121 -175 -183 -365 -185 -561 -1 -115 0 -123 30 -186 38 -80 90
-134 161 -166 103 -47 229 -40 352 20 75 37 212 162 293 267 29 38 53 68 55
67 1 -2 -4 -39 -12 -82 -21 -117 -19 -203 5 -242 44 -72 135 -81 257 -24 75
36 183 135 271 249 55 72 55 73 36 93 -20 19 -20 18 -101 -75 -103 -118 -171
-156 -217 -123 -32 24 -20 89 79 442 196 691 434 1568 429 1576 -5 9 -57 13
-65 5z m-548 -857 c110 -78 67 -461 -81 -737 -151 -281 -301 -428 -456 -448
-89 -11 -147 22 -189 106 -54 105 -7 377 102 595 111 220 265 410 383 470 92
47 187 52 241 14z"/>
<path d="M14085 5207 c-38 -18 -60 -43 -80 -90 -21 -51 -19 -95 8 -147 59
-117 203 -122 266 -10 19 34 23 52 19 101 -5 62 -23 97 -70 132 -33 25 -104
31 -143 14z"/>
<path d="M15839 5197 c-41 -27 -79 -98 -79 -147 0 -50 38 -120 80 -148 50 -34
128 -27 171 14 49 46 62 79 57 146 -9 126 -133 200 -229 135z"/>
<path d="M10350 5180 c0 -29 1 -30 48 -30 73 0 146 -25 176 -61 30 -36 33 -74
11 -165 -21 -89 -424 -1543 -437 -1579 -35 -93 -103 -149 -193 -162 -39 -5
-45 -9 -45 -29 l0 -24 811 2 812 3 97 253 98 253 -26 13 c-24 13 -27 11 -83
-64 -99 -131 -249 -254 -356 -292 -140 -49 -261 -69 -449 -75 -266 -8 -335 18
-333 126 0 27 45 208 108 431 l107 385 180 0 c314 -1 361 -35 329 -239 -9 -63
-9 -76 3 -81 27 -10 51 -5 56 13 71 234 206 700 206 709 0 7 -6 13 -14 13 -8
0 -21 3 -30 6 -9 3 -16 1 -16 -6 0 -31 -59 -128 -112 -185 -51 -55 -66 -65
-111 -75 -99 -22 -262 -40 -360 -40 -89 0 -98 2 -93 18 3 9 48 172 101 362 53
190 101 358 107 373 22 57 42 62 268 65 202 4 311 -6 432 -39 48 -12 94 -51
119 -101 17 -34 20 -56 18 -137 l-3 -96 32 -3 c18 -2 32 -2 32 0 0 2 22 110
49 240 27 130 46 240 43 243 -3 3 -360 5 -794 5 l-788 0 0 -30z"/>
<path d="M15061 4828 c-19 -24 -81 -88 -136 -143 -102 -102 -177 -154 -308
-213 -48 -22 -70 -38 -77 -57 -6 -14 -10 -28 -10 -31 0 -2 54 -4 120 -4 66 0
120 -2 120 -4 0 -2 -68 -249 -151 -548 -102 -364 -152 -560 -153 -595 -1 -133
135 -182 285 -101 72 37 190 159 268 273 40 60 49 80 39 86 -24 15 -36 10 -69
-33 -117 -151 -190 -215 -229 -203 -50 16 -48 23 104 578 80 290 148 532 151
537 4 6 61 10 136 10 95 0 131 3 134 13 2 6 6 29 10 50 l6 37 -126 0 c-89 0
-125 3 -125 12 0 6 20 88 45 181 36 132 43 172 34 183 -18 22 -29 17 -68 -28z"/>
<path d="M14065 4520 c-44 -10 -151 -29 -237 -41 -153 -21 -158 -23 -158 -46
0 -15 6 -23 18 -23 20 -1 83 -8 129 -16 37 -6 53 -28 53 -76 0 -18 -57 -235
-126 -483 -146 -524 -153 -567 -108 -654 50 -93 132 -114 249 -62 60 26 168
131 258 249 67 88 69 93 51 107 -10 8 -22 13 -25 12 -3 -1 -40 -43 -82 -94
-140 -168 -254 -195 -227 -52 5 24 61 228 125 454 196 689 206 726 200 736 -8
12 -25 11 -120 -11z"/>
<path d="M15855 4524 c-56 -12 -381 -64 -405 -64 -5 0 -10 -10 -10 -23 0 -21
6 -24 85 -34 46 -5 91 -16 100 -23 9 -7 15 -29 15 -54 0 -22 -54 -237 -120
-476 -66 -239 -125 -462 -132 -496 -20 -110 7 -191 82 -242 74 -51 211 -5 317
104 57 59 193 231 193 244 0 3 -9 11 -21 18 -19 12 -23 11 -37 -9 -39 -56
-138 -163 -175 -190 -75 -54 -124 -33 -114 49 3 26 78 302 166 615 89 312 161
574 161 582 0 18 -23 18 -105 -1z"/>
<path d="M17008 4525 c-206 -39 -359 -130 -522 -311 -186 -205 -266 -381 -282
-624 -17 -244 109 -427 333 -485 172 -45 420 16 610 151 76 54 248 239 308
334 121 186 180 438 141 603 -35 150 -108 245 -235 305 -67 32 -83 36 -175 38
-59 2 -132 -3 -178 -11z m195 -69 c55 -23 96 -74 119 -150 36 -118 17 -333
-48 -531 -33 -103 -113 -268 -174 -359 -56 -83 -158 -184 -216 -214 -158 -81
-320 -34 -385 110 -20 46 -24 68 -23 158 3 239 79 472 229 702 101 153 201
244 313 284 49 17 144 17 185 0z"/>
<path d="M18866 4524 c-78 -19 -170 -65 -233 -117 -79 -64 -352 -407 -403
-505 -32 -62 -13 11 75 294 52 169 95 314 95 321 0 19 -18 17 -175 -18 -77
-17 -185 -38 -240 -48 -97 -16 -100 -17 -103 -44 l-3 -28 49 7 c59 8 116 -8
137 -39 8 -12 15 -40 15 -62 0 -22 -69 -290 -154 -595 -85 -305 -153 -556
-152 -556 0 -1 54 -4 118 -8 l117 -7 36 118 c80 261 120 373 170 478 122 258
360 556 499 625 74 37 109 38 143 4 24 -24 25 -30 20 -93 -3 -38 -52 -243
-108 -457 -116 -443 -129 -494 -129 -547 0 -79 50 -142 124 -154 41 -6 135 20
185 51 54 35 161 151 254 277 l27 36 -23 21 -23 22 -31 -42 c-50 -69 -141
-170 -171 -190 -42 -28 -77 -24 -92 11 -13 33 -15 25 144 606 58 209 99 378
102 420 6 64 3 75 -23 125 -46 87 -135 121 -247 94z"/>
<path d="M19927 4530 c-105 -27 -197 -104 -243 -203 -24 -53 -26 -68 -22 -150
5 -116 21 -149 205 -426 75 -112 142 -220 149 -240 18 -51 17 -173 -2 -219
-36 -86 -109 -132 -212 -132 -115 0 -191 50 -247 161 -28 54 -75 209 -75 245
0 20 -5 24 -30 24 -16 0 -30 -3 -30 -7 0 -5 -14 -116 -30 -248 -16 -132 -30
-243 -30 -247 0 -20 50 -6 68 19 24 34 54 34 184 2 137 -33 279 -32 375 3 82
29 186 99 227 152 94 124 98 286 12 441 -19 33 -87 137 -152 230 -65 94 -133
199 -152 235 -31 59 -34 71 -30 132 3 58 8 72 33 99 38 40 83 59 141 59 77 0
124 -20 179 -75 42 -41 55 -64 77 -130 14 -44 29 -99 33 -122 6 -37 10 -43 31
-43 16 0 25 7 29 23 3 17 34 229 58 407 4 28 -34 22 -65 -9 -38 -39 -63 -39
-194 -6 -109 29 -230 39 -287 25z"/>
</g>
</svg>
