<svg version="1.1" id="Layer_1" xmlns="http://www.w3.org/2000/svg" xmlns:xlink="http://www.w3.org/1999/xlink" x="0px" y="0px"
	 width="100%" viewBox="0 0 5000 2309" enable-background="new 0 0 5000 2309" xml:space="preserve">
<path fill="#FFFFFF" opacity="1.000000" stroke="none" 
	d="
M3448.000000,2312.000000 
	C2298.666748,2312.000000 1150.333374,2312.000000 2.000000,2312.000000 
	C2.000000,1542.000000 2.000000,772.000000 2.000000,2.000000 
	C1668.666626,2.000000 3335.333252,2.000000 5002.000000,2.000000 
	C5002.000000,772.000000 5002.000000,1542.000000 5002.000000,2312.000000 
	C4484.333496,2312.000000 3966.666748,2312.000000 3448.000000,2312.000000 
M4194.114746,1166.480103 
	C4193.666992,1165.995361 4193.219727,1165.510742 4192.976562,1163.527954 
	C4196.568359,1150.270508 4201.876465,1137.461792 4204.708008,1122.826172 
	C4189.687500,1125.837769 4176.061523,1128.496338 4162.493164,1131.421509 
	C4161.336914,1131.670776 4160.563477,1133.696045 4159.047363,1135.608398 
	C4161.350586,1135.837402 4162.296875,1136.013672 4163.243164,1136.013062 
	C4176.120117,1136.004517 4178.566895,1139.020264 4175.769531,1151.527222 
	C4175.552246,1152.497437 4175.198730,1153.436401 4174.932129,1154.396240 
	C4169.500000,1173.938354 4164.037598,1193.472046 4158.656738,1213.028198 
	C4155.888672,1223.086914 4153.269043,1233.186279 4150.482422,1243.642578 
	C4158.103516,1243.642578 4164.684570,1243.642578 4171.082520,1243.642578 
	C4175.374512,1230.555054 4179.319336,1217.849609 4183.706055,1205.298706 
	C4191.312500,1183.536743 4204.276855,1165.047241 4220.101074,1148.607056 
	C4224.332520,1144.211548 4229.967773,1140.579590 4235.644531,1138.321655 
	C4241.848633,1135.853882 4245.798340,1139.719849 4245.558594,1146.530396 
	C4245.500977,1148.172852 4245.063477,1149.817871 4244.669434,1151.429565 
	C4242.142090,1161.764893 4239.593262,1172.095215 4237.022949,1182.420044 
	C4233.169922,1197.900757 4229.206543,1213.354736 4225.453125,1228.859375 
	C4222.475586,1241.156372 4230.844727,1250.721069 4246.055664,1245.111206 
	C4247.911133,1244.427246 4250.027832,1243.721802 4251.318848,1242.358521 
	C4259.060547,1234.182617 4266.685059,1225.888916 4274.054199,1217.379395 
	C4274.749023,1216.576538 4273.400879,1214.004639 4272.813965,1211.432373 
	C4263.817871,1219.163330 4260.413086,1230.729004 4249.216309,1233.208252 
	C4244.444336,1229.390137 4246.399902,1225.474487 4247.423340,1221.708008 
	C4253.264648,1200.207031 4259.213867,1178.734985 4264.943848,1157.204224 
	C4266.305664,1152.086670 4267.181641,1146.812866 4267.911621,1141.559692 
	C4269.375488,1131.018188 4259.772949,1120.654297 4246.576172,1123.323242 
	C4234.327148,1125.800171 4224.313965,1131.938232 4216.456543,1141.544067 
	C4209.292480,1150.302734 4202.331543,1159.227783 4194.114746,1166.480103 
M911.634338,1070.973145 
	C911.730896,1014.663574 911.826843,958.354004 911.939636,902.044495 
	C911.940125,901.798218 912.135681,901.393250 912.317688,901.342834 
	C912.608704,901.262268 912.964905,901.417358 913.682373,901.538330 
	C937.213623,966.645691 960.811218,1031.936768 984.428772,1097.282959 
	C997.856995,1097.282959 1010.763733,1097.282959 1024.376831,1097.282959 
	C1032.234863,1075.695435 1040.077637,1054.189209 1047.891602,1032.672363 
	C1055.836914,1010.793640 1063.721680,988.892822 1071.692383,967.023315 
	C1079.436646,945.775146 1086.541260,924.273926 1095.091187,903.340698 
	C1095.927002,903.515625 1096.762817,903.690613 1097.598633,903.865540 
	C1097.598633,968.307983 1097.598633,1032.750488 1097.598633,1097.100708 
	C1117.614746,1097.100708 1136.487183,1097.100708 1155.741699,1097.100708 
	C1155.741699,999.757141 1155.741699,902.948669 1155.741699,805.973022 
	C1130.088989,805.973022 1104.889282,805.973022 1079.417603,805.973022 
	C1054.619141,877.049500 1029.947144,947.763489 1005.275208,1018.477478 
	C1004.619812,1018.495911 1003.964417,1018.514343 1003.309021,1018.532837 
	C978.755066,947.440613 954.201111,876.348389 929.940552,806.105591 
	C903.257019,806.105591 878.059570,806.105591 852.923096,806.105591 
	C850.934448,835.592224 851.887085,1089.482544 853.976379,1097.138428 
	C872.845886,1097.138428 891.717773,1097.138428 911.634338,1097.138428 
	C911.634338,1088.770752 911.634338,1080.865601 911.634338,1070.973145 
M2317.594482,1054.999756 
	C2317.594482,972.102600 2317.594482,889.205505 2317.594482,805.935303 
	C2297.497070,805.935303 2278.280762,805.935303 2258.394531,805.935303 
	C2258.379883,870.696350 2258.401367,934.998962 2257.463135,999.420654 
	C2255.290039,997.655334 2254.092529,995.773987 2252.946289,993.862183 
	C2233.430420,961.312988 2213.912598,928.765137 2194.412109,896.206726 
	C2177.649170,868.218445 2160.795654,840.282837 2144.262451,812.159241 
	C2141.408691,807.304749 2138.424805,804.908142 2132.530273,805.329773 
	C2124.572021,805.898987 2116.541748,805.469360 2108.542480,805.468933 
	C2099.648438,805.468445 2090.754395,805.468811 2081.890137,805.468811 
	C2081.890137,903.424988 2081.890137,1000.280273 2081.890137,1097.152222 
	C2101.352783,1097.152222 2120.239502,1097.152222 2138.723633,1097.152222 
	C2139.320801,1096.421997 2139.576904,1096.201050 2139.708984,1095.921509 
	C2139.847656,1095.627686 2139.896484,1095.280884 2139.933350,1094.951538 
	C2140.007324,1094.292236 2140.093262,1093.629028 2140.093506,1092.967407 
	C2140.105225,1030.972412 2140.108887,968.977478 2140.119873,906.982483 
	C2140.120117,905.984924 2140.172852,904.983948 2140.275635,903.992310 
	C2140.299072,903.765503 2140.599854,903.514771 2140.833252,903.376038 
	C2141.107666,903.212891 2141.447510,903.159790 2142.224854,902.907959 
	C2181.075439,967.846985 2219.983887,1032.882690 2258.721924,1097.633789 
	C2269.449219,1097.633789 2279.109131,1097.689697 2288.768311,1097.617920 
	C2298.269043,1097.547241 2307.804443,1097.954834 2317.594482,1097.312988 
	C2317.594482,1082.973633 2317.594482,1069.986572 2317.594482,1054.999756 
M1608.931763,992.014038 
	C1618.097656,1001.710571 1621.796997,1013.263184 1621.936035,1026.552979 
	C1622.106445,1042.838379 1622.782715,1059.151489 1624.170166,1075.373169 
	C1624.657959,1081.076416 1627.573486,1086.687134 1629.974976,1092.075195 
	C1631.892578,1096.377563 1635.649170,1097.825562 1640.591553,1097.738892 
	C1657.242188,1097.446777 1673.901367,1097.651611 1690.556885,1097.583252 
	C1692.042358,1097.577148 1693.525635,1096.969604 1696.070068,1096.406738 
	C1694.432617,1093.651489 1693.209351,1091.857056 1692.250732,1089.930786 
	C1689.327515,1084.057251 1685.399658,1078.397583 1683.909302,1072.165283 
	C1681.762573,1063.189087 1681.008789,1053.808350 1680.418457,1044.551880 
	C1679.846924,1035.592529 1680.797241,1026.527832 1680.095947,1017.586548 
	C1677.913086,989.752014 1665.329590,968.974182 1638.402954,958.457825 
	C1637.250244,958.007629 1636.049316,957.681213 1633.998169,957.012695 
	C1636.016968,955.657532 1637.271362,954.648987 1638.666382,953.903564 
	C1668.318237,938.058960 1681.930054,913.620972 1678.239380,879.964844 
	C1675.659912,856.442566 1664.924561,837.548523 1645.091919,824.508911 
	C1625.443115,811.590149 1603.641479,805.196594 1580.021729,805.268738 
	C1546.378174,805.371521 1512.734375,805.398682 1479.090820,805.513062 
	C1476.591797,805.521545 1474.094238,805.970886 1471.859619,806.189514 
	C1471.859619,903.711609 1471.859619,1000.457214 1471.859619,1097.074463 
	C1491.480591,1097.074463 1510.344849,1097.074463 1530.287842,1097.074463 
	C1530.287842,1058.113281 1530.287842,1019.691284 1530.287842,980.774353 
	C1546.015381,980.774353 1560.660767,981.011414 1575.294556,980.700684 
	C1587.420654,980.443176 1598.312378,983.410645 1608.931763,992.014038 
M1330.447510,1280.688599 
	C1307.792358,1238.489868 1272.226196,1216.919312 1224.637939,1215.845215 
	C1191.999878,1215.108521 1159.331909,1215.689575 1126.677246,1215.727661 
	C1123.836792,1215.730957 1120.996826,1216.077637 1118.273560,1216.257080 
	C1116.228027,1256.540161 1117.207275,1499.349976 1119.508301,1507.880249 
	C1152.355469,1507.880249 1185.316406,1507.994141 1218.275635,1507.800659 
	C1226.572998,1507.751953 1234.930908,1507.198486 1243.147949,1506.060425 
	C1296.365601,1498.690308 1338.830200,1453.611816 1342.173828,1400.064453 
	C1343.479736,1379.149414 1342.688477,1358.106201 1342.960938,1337.122803 
	C1343.211304,1317.838013 1339.630371,1299.401123 1330.447510,1280.688599 
M1541.789673,1238.792114 
	C1515.870605,1262.237549 1503.228027,1291.756592 1502.541870,1326.384644 
	C1502.072998,1350.036621 1502.309570,1373.706421 1502.480591,1397.366455 
	C1502.844360,1447.692749 1534.749878,1491.486084 1582.883057,1506.139160 
	C1618.551392,1516.997681 1653.952881,1513.654663 1688.580200,1500.511841 
	C1703.447998,1494.868774 1716.170898,1486.000854 1727.444214,1474.835205 
	C1731.935547,1470.386719 1734.156860,1465.787109 1734.073608,1459.109985 
	C1733.678711,1427.454224 1733.910034,1395.790894 1733.878174,1364.130249 
	C1733.875244,1361.234253 1733.587769,1358.338501 1733.416016,1355.135010 
	C1694.983154,1355.135010 1657.180420,1355.135010 1619.038818,1355.135010 
	C1619.038818,1368.837891 1619.038818,1381.962158 1619.038818,1396.080078 
	C1637.765625,1396.080078 1655.909912,1396.080078 1674.479492,1396.080078 
	C1674.479492,1412.373535 1673.938843,1427.697388 1674.699951,1442.956299 
	C1675.099854,1450.972656 1672.073730,1455.536865 1665.275146,1458.385254 
	C1660.693726,1460.304810 1656.136353,1462.880371 1651.339966,1463.565674 
	C1640.839111,1465.066162 1630.193115,1466.286865 1619.606201,1466.287842 
	C1600.949097,1466.289429 1586.395508,1457.672485 1575.887085,1442.421753 
	C1566.589722,1428.928345 1561.629761,1413.919800 1561.587280,1397.449585 
	C1561.525269,1373.454346 1561.385132,1349.456421 1561.689453,1325.464966 
	C1561.773071,1318.871338 1562.673218,1312.130737 1564.307007,1305.740967 
	C1572.548218,1273.508057 1594.225342,1256.052856 1624.722290,1256.594238 
	C1651.689331,1257.072876 1669.219360,1272.328003 1673.221191,1298.811279 
	C1673.561768,1301.064697 1673.840942,1303.327271 1674.145630,1305.563721 
	C1692.421509,1305.563721 1710.321777,1305.563721 1728.217773,1305.563721 
	C1728.721313,1304.280396 1729.318237,1303.394287 1729.382324,1302.471313 
	C1729.543579,1300.150269 1729.637451,1297.798828 1729.454590,1295.483521 
	C1727.058228,1265.135010 1713.577881,1241.666626 1686.627563,1226.539795 
	C1665.083862,1214.447510 1641.955933,1210.743896 1617.409180,1211.193115 
	C1589.263550,1211.708374 1564.510620,1220.002441 1541.789673,1238.792114 
M2853.494629,1489.579102 
	C2872.317139,1501.642578 2892.822266,1509.027832 2915.078125,1511.190796 
	C2945.896973,1514.186157 2975.236572,1510.224976 3002.934082,1494.850220 
	C3051.832764,1467.707031 3049.882324,1397.480835 3009.514160,1369.283325 
	C2989.366455,1355.209839 2967.868164,1344.374756 2944.107178,1338.180908 
	C2928.853760,1334.204834 2914.666016,1327.891235 2901.031982,1320.079834 
	C2890.006592,1313.762817 2883.557373,1304.873901 2883.948486,1291.817505 
	C2884.353027,1278.308838 2890.742188,1268.462891 2902.581543,1262.087036 
	C2914.894775,1255.455688 2928.093750,1254.696045 2941.461670,1257.058716 
	C2962.550049,1260.786133 2977.256592,1273.926147 2978.915771,1296.264893 
	C2979.034912,1297.870361 2979.492432,1299.450684 2979.800049,1301.082764 
	C2998.717529,1301.082764 3017.199219,1301.082764 3035.825928,1301.082764 
	C3037.253174,1290.759277 3035.889160,1281.320679 3032.886475,1272.037231 
	C3025.054932,1247.825317 3007.678711,1232.766357 2985.452393,1222.199341 
	C2964.993652,1212.472534 2943.316650,1210.712891 2921.107910,1211.423706 
	C2896.747559,1212.203369 2874.941162,1219.973633 2854.952881,1233.761353 
	C2815.323486,1261.097656 2813.405762,1326.199707 2856.980225,1353.591919 
	C2879.717285,1367.885254 2903.655518,1379.060059 2929.634766,1385.809692 
	C2942.659668,1389.193604 2954.451904,1395.088257 2965.803223,1402.235962 
	C2985.321777,1414.526733 2987.423828,1450.608765 2960.517578,1461.919922 
	C2942.095459,1469.664551 2923.614502,1469.363525 2905.094971,1462.407104 
	C2886.880371,1455.565186 2878.078369,1441.782837 2876.237549,1422.932251 
	C2876.055664,1421.069214 2875.744873,1419.218750 2875.528809,1417.618164 
	C2856.364258,1417.618164 2837.843262,1417.618164 2818.523682,1417.618164 
	C2817.660156,1447.719116 2828.092041,1471.453613 2853.494629,1489.579102 
M2881.422363,957.570618 
	C2897.905273,963.693237 2914.243896,970.248962 2930.919922,975.791199 
	C2942.678955,979.699341 2953.922852,984.356506 2964.368164,991.018433 
	C2976.974609,999.058533 2981.662109,1010.766663 2980.308105,1025.194580 
	C2979.061035,1038.478638 2971.428467,1047.081909 2959.464111,1052.074951 
	C2942.050781,1059.342407 2924.357178,1058.817871 2906.817139,1052.838135 
	C2887.726562,1046.329590 2878.113281,1032.268555 2876.284180,1012.497437 
	C2876.111816,1010.632202 2875.849365,1008.775269 2875.659424,1007.172363 
	C2856.509277,1007.172363 2838.052002,1007.172363 2819.042969,1007.172363 
	C2818.856689,1010.807251 2818.422363,1013.760376 2818.599854,1016.676270 
	C2820.243652,1043.690430 2831.695312,1065.299316 2854.737793,1079.968140 
	C2888.809326,1101.657593 2926.092285,1105.952759 2965.125732,1099.016968 
	C2978.987549,1096.553955 2991.736084,1090.878662 3004.012207,1083.982178 
	C3051.011719,1057.578125 3050.291504,989.295044 3011.065430,960.278015 
	C2990.770996,945.265381 2968.541504,934.366577 2944.102539,928.001099 
	C2927.890869,923.778687 2912.790283,917.021667 2898.516602,908.283813 
	C2890.307129,903.258240 2885.194336,896.147339 2884.183105,886.640320 
	C2882.630371,872.044983 2888.172119,860.563721 2900.789795,852.873291 
	C2913.758789,844.968994 2928.064209,844.444641 2942.371826,847.059631 
	C2963.248535,850.875305 2977.190186,864.126648 2978.936279,885.956055 
	C2979.064453,887.557678 2979.476807,889.136536 2979.777344,890.840454 
	C2998.725342,890.840454 3017.204346,890.840454 3036.081299,890.840454 
	C3037.789795,868.466492 3030.872803,849.693970 3016.350586,833.627563 
	C3006.559082,822.794922 2994.110596,815.796265 2980.886230,810.026855 
	C2959.798340,800.826538 2937.575195,800.230591 2915.178955,801.638611 
	C2891.597900,803.121155 2870.499756,811.568176 2851.863525,825.959839 
	C2814.691895,854.665222 2815.161621,917.131042 2856.131836,942.556946 
	C2864.037842,947.463501 2872.151123,952.036621 2881.422363,957.570618 
M2215.008789,1215.699707 
	C2205.454590,1215.699707 2195.900391,1215.699707 2186.324951,1215.699707 
	C2153.364258,1313.473145 2120.733887,1410.265869 2087.970215,1507.454712 
	C2109.439697,1507.454712 2129.360107,1507.454712 2149.471191,1507.454712 
	C2156.046631,1486.567749 2162.517578,1466.012451 2169.017578,1445.364746 
	C2200.803467,1445.364746 2231.959961,1445.364746 2263.390625,1445.364746 
	C2270.094482,1466.326172 2276.650146,1486.824341 2283.232910,1507.407227 
	C2303.787354,1507.407227 2323.648438,1507.407227 2344.719971,1507.407227 
	C2311.905762,1409.783569 2279.328369,1312.865112 2246.667969,1215.699707 
	C2236.277832,1215.699707 2226.638672,1215.699707 2215.008789,1215.699707 
M2691.001709,969.204956 
	C2716.235596,969.204956 2741.469238,969.204956 2767.095215,969.204956 
	C2767.095215,953.591309 2767.095215,939.115173 2767.095215,923.669067 
	C2731.133057,923.669067 2695.650146,923.669067 2660.048340,923.669067 
	C2660.048340,898.885620 2660.048340,875.080017 2660.048340,850.313477 
	C2702.859131,850.313477 2745.010742,850.313477 2787.292480,850.313477 
	C2787.292480,835.058594 2787.292480,820.775574 2787.292480,806.053711 
	C2724.895996,806.053711 2662.775879,806.053711 2600.882324,806.053711 
	C2600.882324,903.436035 2600.882324,1000.222900 2600.882324,1097.055664 
	C2663.404297,1097.055664 2725.217773,1097.055664 2787.396240,1097.055664 
	C2787.396240,1081.979492 2787.396240,1067.492188 2787.396240,1051.913818 
	C2744.498291,1051.913818 2702.053467,1051.913818 2659.852051,1051.913818 
	C2659.852051,1023.925598 2659.852051,997.032776 2659.852051,969.204895 
	C2669.862549,969.204895 2679.432129,969.204895 2691.001709,969.204956 
M729.001099,805.461731 
	C711.676453,805.461914 694.351807,805.433472 677.027222,805.470276 
	C659.563538,805.507324 642.090698,805.299194 624.750244,805.607239 
	C622.503174,848.013855 623.587708,1089.476562 625.888550,1096.956299 
	C687.796692,1096.956299 749.612000,1096.956299 811.409424,1096.956299 
	C811.409424,1081.765625 811.409424,1067.269287 811.409424,1052.016113 
	C768.676331,1052.016113 726.506897,1052.016113 684.056274,1052.016113 
	C684.056274,1024.134277 684.056274,997.025879 684.056274,968.892517 
	C720.048706,968.892517 755.514587,968.892517 790.999878,968.892517 
	C790.999878,953.360229 790.999878,938.863586 790.999878,923.726624 
	C772.796997,923.726624 755.180603,923.726685 737.564270,923.726685 
	C719.697754,923.726685 701.831238,923.726624 684.331787,923.726624 
	C684.331787,898.666748 684.331787,874.898987 684.331787,850.457642 
	C727.046692,850.457642 768.952209,850.457642 811.221069,850.457642 
	C811.221069,835.291016 811.221069,820.798950 811.221069,805.461853 
	C784.206726,805.461853 757.603943,805.461853 729.001099,805.461731 
M1846.999023,850.774292 
	C1858.990601,850.774292 1870.982178,850.814758 1882.973633,850.763000 
	C1895.124878,850.710571 1907.294434,851.002258 1919.476318,850.557495 
	C1919.476318,834.941528 1919.476318,820.667175 1919.476318,806.076294 
	C1857.065186,806.076294 1794.952393,806.076294 1733.093262,806.076294 
	C1733.093262,903.458496 1733.093262,1000.224182 1733.093262,1097.132568 
	C1795.606201,1097.132568 1857.416504,1097.132568 1919.415039,1097.132568 
	C1919.415039,1081.893188 1919.415039,1067.174194 1919.415039,1051.759521 
	C1876.511230,1051.759521 1834.339478,1051.759521 1792.211792,1051.759521 
	C1792.211792,1023.915649 1792.211792,996.789490 1792.211792,968.753479 
	C1828.319946,968.753479 1863.816895,968.753479 1899.172363,968.753479 
	C1899.172363,953.317078 1899.172363,938.808777 1899.172363,923.411560 
	C1863.081055,923.411560 1827.594360,923.411560 1792.328857,923.411560 
	C1792.328857,898.707764 1792.328857,874.917419 1792.328857,850.774231 
	C1810.374634,850.774231 1827.686768,850.774231 1846.999023,850.774292 
M1423.507080,934.212463 
	C1428.782959,920.983276 1430.434448,907.193420 1429.692993,893.074646 
	C1428.184814,864.351990 1416.304199,841.147400 1392.312134,824.853149 
	C1373.103638,811.807800 1351.764771,805.290955 1328.414185,805.382996 
	C1292.106689,805.526123 1255.798462,805.459351 1219.490479,805.481140 
	C1216.570557,805.482910 1213.650513,805.481384 1210.854370,805.481384 
	C1208.861206,818.346863 1209.377808,1090.155396 1211.252930,1097.003540 
	C1230.122559,1097.003540 1248.946899,1097.003540 1268.492432,1097.003540 
	C1268.492432,1061.858643 1268.492432,1027.329712 1268.492432,991.867493 
	C1287.107788,991.867493 1305.004395,992.048645 1322.894409,991.787048 
	C1331.187866,991.665833 1339.632568,991.522461 1347.726685,989.943726 
	C1381.032959,983.447510 1408.363770,968.319275 1423.507080,934.212463 
M2600.172852,1271.000000 
	C2600.173096,1321.331421 2600.143555,1371.662964 2600.184570,1421.994385 
	C2600.207520,1449.987671 2600.346191,1477.980835 2600.458008,1505.973999 
	C2600.458984,1506.237305 2600.782959,1506.517090 2600.993164,1506.756714 
	C2601.211914,1507.006226 2601.475586,1507.216431 2601.567627,1507.302002 
	C2663.539062,1507.302002 2725.390381,1507.302002 2787.498535,1507.302002 
	C2787.498535,1492.198853 2787.498535,1477.691040 2787.498535,1462.064209 
	C2744.607178,1462.064209 2702.159424,1462.064209 2659.896484,1462.064209 
	C2659.896484,1434.078369 2659.896484,1407.217163 2659.896484,1379.343750 
	C2695.861572,1379.343750 2731.329102,1379.343750 2767.084961,1379.343750 
	C2767.084961,1363.824585 2767.084961,1349.329224 2767.084961,1333.926147 
	C2731.090576,1333.926147 2695.589355,1333.926147 2660.052734,1333.926147 
	C2660.052734,1309.225708 2660.052734,1285.442993 2660.052734,1261.155151 
	C2674.677979,1261.155151 2688.639648,1261.155151 2702.601318,1261.155151 
	C2716.934082,1261.155151 2731.267090,1261.209351 2745.599609,1261.139771 
	C2759.457275,1261.072510 2773.335938,1261.451904 2786.836670,1260.911377 
	C2786.836670,1245.103516 2786.836670,1230.618530 2786.836670,1216.410522 
	C2724.292480,1216.410522 2662.484131,1216.410522 2600.172852,1216.410522 
	C2600.172852,1234.418945 2600.172852,1251.709473 2600.172852,1271.000000 
M2485.493652,1064.993774 
	C2485.493652,993.790344 2485.493652,922.586914 2485.493652,850.422485 
	C2513.784180,850.422485 2540.907471,850.422485 2567.899902,850.422485 
	C2567.899902,834.946350 2567.899902,820.444824 2567.899902,805.921997 
	C2493.140137,805.921997 2418.936768,805.921997 2344.656738,805.921997 
	C2344.656738,820.906006 2344.656738,835.427246 2344.656738,850.907288 
	C2371.940918,850.907288 2398.749268,850.907288 2426.279541,850.907288 
	C2426.279541,892.800110 2426.276367,933.729065 2426.280518,974.658020 
	C2426.284424,1015.475769 2426.261230,1056.293945 2426.299072,1097.637207 
	C2437.421875,1097.637207 2447.052734,1097.705811 2456.681885,1097.617798 
	C2466.169678,1097.531128 2475.700195,1098.026978 2485.493652,1097.253784 
	C2485.493652,1086.283813 2485.493652,1076.636353 2485.493652,1064.993774 
M2018.081665,1297.002197 
	C2018.299805,1285.188721 2017.631836,1273.337280 2018.506836,1260.641479 
	C2046.781250,1260.641479 2073.968994,1260.641479 2100.902344,1260.641479 
	C2100.902344,1245.170776 2100.902344,1230.666992 2100.902344,1216.240234 
	C2026.058594,1216.240234 1951.894531,1216.240234 1877.516357,1216.240234 
	C1877.516357,1231.272339 1877.516357,1245.754761 1877.516357,1261.349731 
	C1904.883911,1261.349731 1931.677124,1261.349731 1959.185547,1261.349731 
	C1959.185547,1303.053345 1959.185547,1343.640747 1959.185547,1384.228149 
	C1959.185547,1425.153687 1959.185547,1466.079224 1959.185547,1507.303223 
	C1979.174316,1507.303223 1998.280151,1507.303223 2018.081787,1507.303223 
	C2018.081787,1437.481812 2018.081787,1368.241333 2018.081665,1297.002197 
M2431.429688,1239.050171 
	C2431.429688,1231.491211 2431.429688,1223.932129 2431.429688,1216.317261 
	C2411.155762,1216.317261 2392.031494,1216.317261 2372.804199,1216.317261 
	C2372.804199,1313.661987 2372.804199,1410.378052 2372.804199,1507.187500 
	C2436.081299,1507.187500 2498.784668,1507.187500 2561.397461,1507.187500 
	C2561.397461,1491.974854 2561.397461,1477.476196 2561.397461,1461.892578 
	C2517.774658,1461.892578 2474.706787,1461.892578 2431.429688,1461.892578 
	C2431.429688,1387.540283 2431.429688,1314.286621 2431.429688,1239.050171 
M2023.832397,953.000000 
	C2023.832397,904.103333 2023.832397,855.206665 2023.832397,805.905762 
	C2003.917114,805.905762 1984.719238,805.905762 1965.588257,805.905762 
	C1963.522461,820.021912 1964.224731,1090.557373 1966.245239,1097.118042 
	C1985.148438,1097.118042 2004.014771,1097.118042 2023.832397,1097.118042 
	C2023.832397,1049.395142 2023.832397,1002.197571 2023.832397,953.000000 
M1787.155762,1221.021118 
	C1787.155762,1316.406128 1787.155762,1411.791138 1787.155762,1507.138672 
	C1807.525879,1507.138672 1826.608276,1507.138672 1845.432373,1507.138672 
	C1845.432373,1409.685425 1845.432373,1312.971924 1845.432373,1215.719360 
	C1826.896118,1215.719360 1808.963257,1215.651123 1791.033813,1215.861450 
	C1789.739502,1215.876709 1788.469116,1217.920166 1787.155762,1221.021118 
M1452.209595,1409.000000 
	C1452.209595,1344.808960 1452.209595,1280.617920 1452.209595,1216.399902 
	C1432.079224,1216.399902 1412.988403,1216.399902 1394.299194,1216.399902 
	C1394.299194,1313.855103 1394.299194,1410.619019 1394.299194,1507.321167 
	C1413.850220,1507.321167 1432.682129,1507.321167 1452.209595,1507.321167 
	C1452.209595,1474.848389 1452.209595,1442.924194 1452.209595,1409.000000 
M912.211243,1269.820557 
	C912.244934,1266.823730 912.357361,1263.825317 912.299622,1260.830200 
	C911.888550,1239.510742 899.851318,1222.401123 880.065857,1214.759033 
	C869.154724,1210.544678 857.774963,1210.591187 846.546143,1211.850098 
	C824.701111,1214.299194 808.689209,1225.324341 799.979431,1246.001709 
	C794.055359,1260.065796 794.508850,1274.685181 796.961548,1289.224609 
	C800.087646,1307.755981 810.197693,1323.113403 820.804199,1338.117310 
	C822.822571,1340.972412 824.927063,1343.766846 827.043091,1346.659424 
	C823.033875,1349.960815 819.960449,1352.502441 816.875549,1355.030029 
	C802.370972,1366.914429 789.581909,1380.410767 778.727234,1395.713257 
	C757.697327,1425.360229 758.091370,1481.562500 809.134338,1503.882080 
	C828.019043,1512.139893 847.681152,1513.613647 867.824219,1511.107422 
	C892.603210,1508.024292 912.847229,1495.783569 930.989014,1479.409058 
	C933.343079,1477.284302 935.725952,1475.191406 938.307495,1472.895386 
	C947.106689,1482.786987 955.640198,1491.699951 963.341980,1501.281616 
	C968.325684,1507.481689 973.781372,1509.395264 982.364136,1506.745850 
	C969.722290,1492.268555 957.576599,1478.359375 945.301392,1464.301880 
	C962.845154,1438.795410 972.323425,1411.501465 971.462830,1380.707886 
	C968.770264,1380.542725 967.126038,1380.341309 965.485779,1380.369995 
	C963.904907,1380.397583 962.328186,1380.662720 960.361145,1380.863037 
	C959.586670,1407.910645 953.309753,1432.726807 937.152039,1455.341431 
	C905.197632,1418.993652 874.078430,1383.595947 842.747375,1347.957153 
	C846.233398,1345.069336 848.747803,1342.927979 851.323486,1340.862915 
	C863.270508,1331.284180 875.466003,1321.998901 887.129883,1312.087646 
	C899.777283,1301.340698 910.239929,1288.980347 912.211243,1269.820557 
M3265.388184,1457.000244 
	C3265.388184,1238.799072 3265.388184,1020.597839 3265.388184,802.060364 
	C3259.914551,802.060364 3255.215576,802.060364 3250.737305,802.060364 
	C3250.737305,1039.036499 3250.737305,1275.193604 3250.737305,1511.450439 
	C3255.749268,1511.450439 3260.206055,1511.450439 3265.388184,1511.450439 
	C3265.388184,1493.553467 3265.388184,1476.276978 3265.388184,1457.000244 
M3532.106201,1197.488770 
	C3536.166260,1183.132935 3540.226318,1168.776978 3544.510986,1153.626099 
	C3555.739746,1154.410522 3566.388184,1154.638428 3576.879395,1156.040527 
	C3586.304688,1157.300049 3588.606689,1160.894043 3587.959961,1170.441650 
	C3587.716309,1174.040405 3587.033936,1177.609375 3586.568359,1181.066895 
	C3591.003906,1184.302734 3592.635010,1181.787354 3593.723389,1178.025269 
	C3597.234863,1165.886475 3600.733643,1153.744019 3604.290283,1141.618652 
	C3606.068604,1135.555786 3608.034424,1129.547363 3609.773682,1123.473511 
	C3610.739502,1120.101440 3609.471191,1118.391235 3605.850098,1118.896973 
	C3603.293945,1123.288940 3601.272949,1127.949585 3598.177490,1131.730469 
	C3595.326172,1135.213379 3591.765137,1139.199829 3587.739990,1140.437134 
	C3574.998535,1144.353638 3561.723145,1145.040527 3547.857666,1144.573975 
	C3548.176758,1142.038330 3548.182861,1140.079346 3548.689453,1138.259766 
	C3553.594971,1120.640503 3558.916260,1103.128174 3563.385986,1085.400635 
	C3565.153809,1078.389648 3568.739746,1075.294678 3575.647217,1074.809204 
	C3591.679688,1073.682495 3607.604248,1073.843140 3623.281006,1077.896484 
	C3632.650635,1080.319092 3636.472412,1085.315308 3636.543457,1095.065552 
	C3636.571777,1098.933228 3636.548340,1102.801270 3636.548340,1109.100952 
	C3639.645020,1106.543213 3642.051758,1105.570435 3642.384277,1104.121704 
	C3645.262695,1091.578247 3647.767822,1078.949097 3650.579346,1065.406006 
	C3646.156982,1065.406006 3642.890381,1065.405884 3639.623779,1065.405884 
	C3608.298584,1065.406006 3576.973145,1065.403809 3545.647949,1065.407593 
	C3536.317139,1065.408569 3526.983887,1065.325073 3517.658203,1065.547363 
	C3516.286377,1065.580078 3514.949951,1067.100342 3512.728271,1068.466675 
	C3514.942139,1069.324463 3515.799805,1069.857788 3516.712646,1069.980713 
	C3535.834717,1072.559082 3538.125732,1075.549927 3533.165771,1093.742188 
	C3521.532715,1136.412109 3509.710938,1179.031128 3497.778320,1221.618286 
	C3495.329590,1230.357788 3490.741943,1237.421509 3480.518066,1238.757812 
	C3478.814941,1238.980347 3477.305908,1240.691284 3475.707275,1241.714478 
	C3475.942139,1242.282959 3476.177002,1242.851318 3476.411865,1243.419678 
	C3522.768311,1243.419678 3569.124756,1243.419678 3615.507080,1243.419678 
	C3617.741943,1237.768799 3619.845703,1232.526489 3621.890625,1227.261353 
	C3625.021240,1219.201904 3628.197754,1211.157715 3631.128174,1203.025513 
	C3631.585449,1201.755737 3630.841553,1200.053101 3630.653076,1198.550415 
	C3629.003906,1199.066040 3627.055664,1199.199341 3625.782715,1200.195679 
	C3624.265869,1201.383301 3623.364014,1203.338501 3622.134521,1204.913208 
	C3610.685547,1219.574829 3596.654785,1230.467407 3577.695801,1232.810791 
	C3564.861572,1234.397095 3551.861084,1235.470459 3538.948730,1235.344360 
	C3527.293213,1235.230713 3523.913330,1230.294800 3526.223877,1219.270386 
	C3527.653320,1212.451416 3529.888184,1205.801270 3532.106201,1197.488770 
M3757.400635,1098.021484 
	C3754.068848,1109.306274 3750.737061,1120.590942 3746.906250,1133.565918 
	C3738.260254,1120.733643 3727.251709,1120.428101 3715.950684,1124.064453 
	C3708.790771,1126.368164 3701.674805,1129.702637 3695.490234,1133.957397 
	C3682.223877,1143.083618 3671.324707,1154.863647 3662.427246,1168.261841 
	C3653.033691,1182.406860 3647.863037,1198.115356 3647.782959,1215.209961 
	C3647.675049,1238.200684 3666.402344,1252.186768 3688.343018,1245.187012 
	C3693.891846,1243.416748 3699.222168,1240.133545 3703.846924,1236.515259 
	C3709.038818,1232.453003 3713.297363,1227.203003 3718.006592,1222.514771 
	C3719.259033,1221.268311 3720.674805,1220.186157 3723.248535,1217.963745 
	C3722.799561,1224.822876 3722.056641,1230.003784 3722.216309,1235.156616 
	C3722.464600,1243.179565 3728.263672,1247.848511 3736.229736,1246.794312 
	C3738.830078,1246.450195 3741.438232,1245.677856 3743.878906,1244.694458 
	C3757.219238,1239.319458 3765.151123,1228.074951 3773.230225,1217.086304 
	C3773.726074,1216.411987 3772.488281,1214.462646 3771.706787,1212.005493 
	C3767.169189,1216.907227 3763.585449,1221.157715 3759.582275,1224.967407 
	C3756.983887,1227.439941 3754.000244,1229.752808 3750.779297,1231.262695 
	C3746.866943,1233.096924 3743.858643,1231.229736 3744.060547,1226.973145 
	C3744.277588,1222.395264 3745.391357,1217.791260 3746.626953,1213.340942 
	C3760.220703,1164.373535 3773.926514,1115.437256 3787.551758,1066.478638 
	C3788.304199,1063.774780 3788.613770,1060.947998 3789.376221,1056.856079 
	C3774.553467,1059.369385 3760.874756,1061.648315 3747.231201,1064.122437 
	C3746.555664,1064.245117 3746.188477,1066.068237 3745.155273,1068.154175 
	C3748.464844,1068.154175 3750.672119,1068.131104 3752.878662,1068.158203 
	C3761.473877,1068.263916 3763.523438,1070.323364 3762.183350,1079.071289 
	C3761.283691,1084.945435 3759.306396,1090.654541 3757.400635,1098.021484 
M4016.522217,1196.053955 
	C4016.262695,1200.374878 4015.739014,1204.698975 4015.788818,1209.016357 
	C4016.018311,1228.964966 4029.110352,1244.142822 4048.953369,1246.330566 
	C4056.069336,1247.115234 4063.791992,1246.721802 4070.650146,1244.785156 
	C4103.541992,1235.496704 4123.436035,1212.551147 4133.741699,1181.002563 
	C4136.344727,1173.034058 4136.676270,1163.850952 4136.016602,1155.384399 
	C4134.485352,1135.740356 4118.632324,1121.849609 4098.951172,1122.295654 
	C4092.043945,1122.452271 4084.853027,1123.320679 4078.342529,1125.505371 
	C4044.913574,1136.721680 4025.149414,1160.472290 4016.522217,1196.053955 
M4344.427246,1243.787598 
	C4358.717285,1236.744995 4368.252441,1226.453125 4366.103516,1209.353027 
	C4365.420898,1203.923950 4363.428711,1198.282715 4360.629395,1193.574585 
	C4354.692871,1183.590698 4347.723145,1174.226440 4341.395508,1164.466309 
	C4338.336914,1159.747803 4335.008789,1154.981323 4333.143066,1149.757935 
	C4329.144531,1138.565063 4335.886719,1129.598877 4347.679199,1129.585571 
	C4357.433594,1129.574585 4364.159180,1134.401367 4367.707031,1143.253296 
	C4369.995117,1148.961914 4371.452148,1155.003784 4373.497070,1161.591064 
	C4375.178223,1160.609619 4377.048828,1160.107544 4377.145020,1159.373169 
	C4378.735840,1147.206299 4382.089355,1135.189087 4381.055664,1122.136841 
	C4374.276855,1129.833130 4366.925781,1127.467529 4359.432129,1125.331787 
	C4354.980957,1124.063232 4350.380371,1123.047974 4345.781250,1122.618896 
	C4321.864258,1120.387207 4305.305176,1142.870972 4314.567871,1164.998901 
	C4316.223633,1168.955444 4318.556641,1172.670898 4320.897949,1176.290161 
	C4326.497070,1184.945435 4332.359375,1193.430298 4337.961914,1202.083740 
	C4339.935547,1205.132690 4341.948730,1208.306641 4343.102051,1211.708862 
	C4347.100098,1223.504395 4342.291016,1235.879395 4332.562012,1239.744629 
	C4322.016602,1243.934082 4309.697266,1238.837036 4304.019531,1227.853882 
	C4302.956055,1225.797119 4302.031250,1223.631592 4301.354004,1221.420532 
	C4299.995605,1216.987915 4299.020508,1212.432007 4297.537598,1208.045288 
	C4296.935059,1206.262695 4295.420898,1204.788086 4294.321289,1203.173340 
	C4293.608887,1203.358032 4292.895996,1203.542603 4292.183105,1203.727173 
	C4290.999023,1212.148315 4289.717285,1220.557251 4288.664062,1228.994751 
	C4287.897949,1235.136230 4287.433594,1241.315430 4286.834961,1247.477783 
	C4287.123047,1248.327393 4287.411621,1249.177002 4287.699707,1250.026611 
	C4296.671875,1238.253296 4306.331055,1245.498047 4315.555176,1246.864746 
	C4325.058594,1248.272827 4334.073242,1247.916138 4344.427246,1243.787598 
M3905.523926,1168.748779 
	C3908.480957,1157.998779 3911.437988,1147.248779 3914.410889,1136.441162 
	C3922.730469,1136.441162 3929.676758,1136.441162 3937.335938,1136.441162 
	C3937.623535,1133.294678 3937.872803,1130.565063 3938.188965,1127.102295 
	C3931.002441,1127.102295 3924.783203,1127.102295 3918.066650,1127.102295 
	C3917.809082,1115.526367 3925.553711,1105.661133 3923.687012,1093.218994 
	C3921.265381,1094.821899 3919.927734,1095.307739 3919.185791,1096.258301 
	C3907.746338,1110.914673 3894.302979,1122.949829 3876.712891,1129.898071 
	C3874.873535,1130.624634 3873.770996,1133.215698 3871.295898,1136.173462 
	C3879.615479,1136.557007 3885.734863,1136.839111 3892.276611,1137.140747 
	C3891.794922,1139.966553 3891.629883,1141.929565 3891.115479,1143.796631 
	C3887.059326,1158.518311 3882.909912,1173.214233 3878.842529,1187.932861 
	C3875.039795,1201.693726 3871.073486,1215.415527 3867.603271,1229.260742 
	C3864.499023,1241.644897 3871.463867,1248.915527 3883.907715,1246.166138 
	C3888.283447,1245.199341 3893.223389,1243.377686 3896.233643,1240.307129 
	C3903.865479,1232.522095 3910.588379,1223.840576 3917.540283,1215.406616 
	C3918.096191,1214.732422 3917.613525,1213.202148 3917.613525,1211.032837 
	C3906.721680,1216.504639 3904.425781,1231.465454 3890.860352,1232.413818 
	C3890.335449,1230.490845 3889.456543,1229.107422 3889.736816,1228.023682 
	C3894.718994,1208.750244 3899.841309,1189.513184 3905.523926,1168.748779 
M3981.814697,1234.846436 
	C3986.405273,1229.150391 3991.115234,1223.544434 3995.530029,1217.715332 
	C3997.373779,1215.281128 3996.562988,1213.345459 3993.077881,1212.890747 
	C3989.753906,1216.857544 3986.544922,1221.051392 3982.936768,1224.868164 
	C3980.450684,1227.498291 3977.666748,1230.045288 3974.561279,1231.845581 
	C3969.795410,1234.608765 3966.671143,1232.528931 3967.223877,1227.151611 
	C3967.560791,1223.873047 3968.497314,1220.632935 3969.388916,1217.438110 
	C3974.570801,1198.874756 3979.823975,1180.331177 3985.043457,1161.778198 
	C3988.615723,1149.080200 3992.172607,1136.377808 3995.684326,1123.861694 
	C3994.356201,1123.160400 3993.734619,1122.527344 3993.223877,1122.607056 
	C3980.104248,1124.655518 3966.981934,1126.698242 3953.905762,1128.999756 
	C3952.437988,1129.257935 3951.241699,1131.055298 3948.594482,1133.224976 
	C3952.952881,1133.688110 3955.509521,1133.942383 3958.062012,1134.233887 
	C3967.544678,1135.317017 3969.097412,1137.432373 3966.935791,1146.440430 
	C3966.315674,1149.024414 3965.524170,1151.567139 3964.825684,1154.132812 
	C3958.979004,1175.615601 3953.023682,1197.069946 3947.383545,1218.606812 
	C3946.222168,1223.041504 3945.633789,1227.811768 3945.836182,1232.380737 
	C3946.312256,1243.138672 3953.718994,1248.468384 3964.145752,1246.183838 
	C3970.923828,1244.698730 3976.234375,1240.864624 3981.814697,1234.846436 
M3801.866943,1194.452026 
	C3799.230469,1204.392212 3796.133545,1214.239624 3794.107666,1224.302734 
	C3792.562744,1231.976196 3792.852051,1240.147827 3800.521484,1244.845093 
	C3808.506348,1249.735596 3816.640625,1246.486694 3822.571289,1241.140381 
	C3830.389160,1234.093140 3836.898926,1225.554199 3843.654785,1217.394531 
	C3845.813721,1214.786865 3843.888672,1213.227783 3841.133545,1212.908691 
	C3833.717529,1220.445923 3829.008545,1231.138672 3817.283936,1233.542358 
	C3813.406494,1227.473755 3815.912598,1222.681763 3817.183350,1218.096924 
	C3824.980957,1189.963379 3833.006592,1161.893066 3840.935791,1133.796021 
	C3841.893066,1130.403320 3842.725342,1126.975220 3843.953613,1122.269287 
	C3828.422363,1124.936646 3814.189697,1127.342407 3799.990967,1129.933838 
	C3799.286133,1130.062500 3798.875977,1131.804443 3797.946533,1133.486938 
	C3800.753662,1133.791748 3802.680420,1134.015259 3804.610352,1134.208130 
	C3816.484375,1135.393433 3817.657959,1137.029907 3814.462158,1148.741333 
	C3810.444580,1163.466309 3806.291016,1178.154053 3801.866943,1194.452026 
M3635.178711,1013.355896 
	C3630.080322,1003.296204 3623.915283,1001.913452 3615.980469,1009.546631 
	C3603.759766,1021.302734 3591.792480,1033.322754 3579.763916,1045.277344 
	C3577.980957,1047.049438 3576.451904,1049.076782 3574.805176,1050.985962 
	C3579.709717,1051.479736 3584.113770,1051.043213 3587.569092,1049.001343 
	C3601.287842,1040.894775 3614.703613,1032.275879 3628.247070,1023.871704 
	C3631.734375,1021.707703 3634.787109,1019.254822 3635.178711,1013.355896 
M3999.529785,1090.820312 
	C4001.356934,1087.383667 4004.118408,1084.125732 4004.816650,1080.473267 
	C4006.272461,1072.857422 4000.585205,1065.333130 3993.504395,1064.173340 
	C3986.303955,1062.993774 3979.313477,1068.599609 3978.111084,1076.518066 
	C3976.287598,1088.525635 3986.256104,1096.030273 3999.529785,1090.820312 
M3832.007568,1066.718994 
	C3830.220215,1069.432373 3827.840820,1071.932617 3826.770996,1074.904297 
	C3824.624023,1080.868164 3827.356934,1087.929932 3832.487061,1091.524536 
	C3837.192139,1094.821289 3842.546631,1094.774292 3847.239746,1091.395142 
	C3851.971924,1087.987671 3854.363770,1081.386841 3852.958252,1075.613892 
	C3850.638916,1066.087891 3843.627441,1062.623291 3832.007568,1066.718994 
z"/>
<path fill="#0A0C0C" opacity="1.000000" stroke="none" 
	d="
M911.634338,1071.966797 
	C911.634338,1080.865601 911.634338,1088.770752 911.634338,1097.138428 
	C891.717773,1097.138428 872.845886,1097.138428 853.976379,1097.138428 
	C851.887085,1089.482544 850.934448,835.592224 852.923096,806.105591 
	C878.059570,806.105591 903.257019,806.105591 929.940552,806.105591 
	C954.201111,876.348389 978.755066,947.440613 1003.309021,1018.532837 
	C1003.964417,1018.514343 1004.619812,1018.495911 1005.275208,1018.477478 
	C1029.947144,947.763489 1054.619141,877.049500 1079.417603,805.973022 
	C1104.889282,805.973022 1130.088989,805.973022 1155.741699,805.973022 
	C1155.741699,902.948669 1155.741699,999.757141 1155.741699,1097.100708 
	C1136.487183,1097.100708 1117.614746,1097.100708 1097.598633,1097.100708 
	C1097.598633,1032.750488 1097.598633,968.307983 1097.598633,903.865540 
	C1096.762817,903.690613 1095.927002,903.515625 1095.091187,903.340698 
	C1086.541260,924.273926 1079.436646,945.775146 1071.692383,967.023315 
	C1063.721680,988.892822 1055.836914,1010.793640 1047.891602,1032.672363 
	C1040.077637,1054.189209 1032.234863,1075.695435 1024.376831,1097.282959 
	C1010.763733,1097.282959 997.856995,1097.282959 984.428772,1097.282959 
	C960.811218,1031.936768 937.213623,966.645691 913.682373,901.538330 
	C912.964905,901.417358 912.608704,901.262268 912.317688,901.342834 
	C912.135681,901.393250 911.940125,901.798218 911.939636,902.044495 
	C911.826843,958.354004 911.730896,1014.663574 911.634338,1071.966797 
z"/>
<path fill="#0A0C0C" opacity="1.000000" stroke="none" 
	d="
M2317.594482,1055.999634 
	C2317.594482,1069.986572 2317.594482,1082.973633 2317.594482,1097.312988 
	C2307.804443,1097.954834 2298.269043,1097.547241 2288.768311,1097.617920 
	C2279.109131,1097.689697 2269.449219,1097.633789 2258.721924,1097.633789 
	C2219.983887,1032.882690 2181.075439,967.846985 2142.224854,902.907959 
	C2141.447510,903.159790 2141.107666,903.212891 2140.833252,903.376038 
	C2140.599854,903.514771 2140.299072,903.765503 2140.275635,903.992310 
	C2140.172852,904.983948 2140.120117,905.984924 2140.119873,906.982483 
	C2140.108887,968.977478 2140.105225,1030.972412 2140.093506,1092.967407 
	C2140.093262,1093.629028 2140.007324,1094.292236 2139.933350,1094.951538 
	C2139.896484,1095.280884 2139.847656,1095.627686 2139.708984,1095.921509 
	C2139.576904,1096.201050 2139.320801,1096.421997 2138.723633,1097.152222 
	C2120.239502,1097.152222 2101.352783,1097.152222 2081.890137,1097.152222 
	C2081.890137,1000.280273 2081.890137,903.424988 2081.890137,805.468811 
	C2090.754395,805.468811 2099.648438,805.468445 2108.542480,805.468933 
	C2116.541748,805.469360 2124.572021,805.898987 2132.530273,805.329773 
	C2138.424805,804.908142 2141.408691,807.304749 2144.262451,812.159241 
	C2160.795654,840.282837 2177.649170,868.218445 2194.412109,896.206726 
	C2213.912598,928.765137 2233.430420,961.312988 2252.946289,993.862183 
	C2254.092529,995.773987 2255.290039,997.655334 2257.463135,999.420654 
	C2258.401367,934.998962 2258.379883,870.696350 2258.394531,805.935303 
	C2278.280762,805.935303 2297.497070,805.935303 2317.594482,805.935303 
	C2317.594482,889.205505 2317.594482,972.102600 2317.594482,1055.999634 
z"/>
<path fill="#090B0B" opacity="1.000000" stroke="none" 
	d="
M1608.382080,991.523926 
	C1598.312378,983.410645 1587.420654,980.443176 1575.294556,980.700684 
	C1560.660767,981.011414 1546.015381,980.774353 1530.287842,980.774353 
	C1530.287842,1019.691284 1530.287842,1058.113281 1530.287842,1097.074463 
	C1510.344849,1097.074463 1491.480591,1097.074463 1471.859619,1097.074463 
	C1471.859619,1000.457214 1471.859619,903.711609 1471.859619,806.189514 
	C1474.094238,805.970886 1476.591797,805.521545 1479.090820,805.513062 
	C1512.734375,805.398682 1546.378174,805.371521 1580.021729,805.268738 
	C1603.641479,805.196594 1625.443115,811.590149 1645.091919,824.508911 
	C1664.924561,837.548523 1675.659912,856.442566 1678.239380,879.964844 
	C1681.930054,913.620972 1668.318237,938.058960 1638.666382,953.903564 
	C1637.271362,954.648987 1636.016968,955.657532 1633.998169,957.012695 
	C1636.049316,957.681213 1637.250244,958.007629 1638.402954,958.457825 
	C1665.329590,968.974182 1677.913086,989.752014 1680.095947,1017.586548 
	C1680.797241,1026.527832 1679.846924,1035.592529 1680.418457,1044.551880 
	C1681.008789,1053.808350 1681.762573,1063.189087 1683.909302,1072.165283 
	C1685.399658,1078.397583 1689.327515,1084.057251 1692.250732,1089.930786 
	C1693.209351,1091.857056 1694.432617,1093.651489 1696.070068,1096.406738 
	C1693.525635,1096.969604 1692.042358,1097.577148 1690.556885,1097.583252 
	C1673.901367,1097.651611 1657.242188,1097.446777 1640.591553,1097.738892 
	C1635.649170,1097.825562 1631.892578,1096.377563 1629.974976,1092.075195 
	C1627.573486,1086.687134 1624.657959,1081.076416 1624.170166,1075.373169 
	C1622.782715,1059.151489 1622.106445,1042.838379 1621.936035,1026.552979 
	C1621.796997,1013.263184 1618.097656,1001.710571 1608.382080,991.523926 
M1533.749146,935.508057 
	C1547.074707,935.541565 1560.403320,935.749023 1573.724487,935.522522 
	C1579.007690,935.432678 1584.401611,934.906616 1589.525757,933.670166 
	C1606.750854,929.513611 1617.509888,917.869080 1619.654053,901.734070 
	C1623.528564,872.577942 1604.575562,850.804016 1575.026978,850.600403 
	C1562.368896,850.513123 1549.708984,850.633667 1537.050781,850.752625 
	C1534.837280,850.773438 1532.627930,851.256531 1530.044067,851.571533 
	C1530.044067,878.748718 1530.022217,905.383484 1530.121948,932.017822 
	C1530.126099,933.112183 1531.272461,934.202209 1533.749146,935.508057 
z"/>
<path fill="#090B0B" opacity="1.000000" stroke="none" 
	d="
M1330.829712,1281.333740 
	C1339.630371,1299.401123 1343.211304,1317.838013 1342.960938,1337.122803 
	C1342.688477,1358.106201 1343.479736,1379.149414 1342.173828,1400.064453 
	C1338.830200,1453.611816 1296.365601,1498.690308 1243.147949,1506.060425 
	C1234.930908,1507.198486 1226.572998,1507.751953 1218.275635,1507.800659 
	C1185.316406,1507.994141 1152.355469,1507.880249 1119.508301,1507.880249 
	C1117.207275,1499.349976 1116.228027,1256.540161 1118.273560,1216.257080 
	C1120.996826,1216.077637 1123.836792,1215.730957 1126.677246,1215.727661 
	C1159.331909,1215.689575 1191.999878,1215.108521 1224.637939,1215.845215 
	C1272.226196,1216.919312 1307.792358,1238.489868 1330.829712,1281.333740 
M1176.716309,1264.284302 
	C1176.716309,1330.090698 1176.716309,1395.897095 1176.716309,1462.222290 
	C1192.517822,1462.222290 1207.147949,1462.228760 1221.778198,1462.220703 
	C1241.590942,1462.209839 1257.029663,1453.668823 1268.413452,1437.760620 
	C1278.568970,1423.568604 1283.681641,1407.580444 1283.798828,1390.117920 
	C1283.926270,1371.140869 1283.905396,1352.161865 1283.806274,1333.184448 
	C1283.713135,1315.336792 1278.208984,1299.207397 1267.838867,1284.723633 
	C1260.844727,1274.954834 1251.775024,1267.397461 1240.251709,1264.325684 
	C1219.476318,1258.787598 1198.253540,1260.409546 1176.716309,1264.284302 
z"/>
<path fill="#0B0C0C" opacity="1.000000" stroke="none" 
	d="
M1542.338623,1238.340576 
	C1564.510620,1220.002441 1589.263550,1211.708374 1617.409180,1211.193115 
	C1641.955933,1210.743896 1665.083862,1214.447510 1686.627563,1226.539795 
	C1713.577881,1241.666626 1727.058228,1265.135010 1729.454590,1295.483521 
	C1729.637451,1297.798828 1729.543579,1300.150269 1729.382324,1302.471313 
	C1729.318237,1303.394287 1728.721313,1304.280396 1728.217773,1305.563721 
	C1710.321777,1305.563721 1692.421509,1305.563721 1674.145630,1305.563721 
	C1673.840942,1303.327271 1673.561768,1301.064697 1673.221191,1298.811279 
	C1669.219360,1272.328003 1651.689331,1257.072876 1624.722290,1256.594238 
	C1594.225342,1256.052856 1572.548218,1273.508057 1564.307007,1305.740967 
	C1562.673218,1312.130737 1561.773071,1318.871338 1561.689453,1325.464966 
	C1561.385132,1349.456421 1561.525269,1373.454346 1561.587280,1397.449585 
	C1561.629761,1413.919800 1566.589722,1428.928345 1575.887085,1442.421753 
	C1586.395508,1457.672485 1600.949097,1466.289429 1619.606201,1466.287842 
	C1630.193115,1466.286865 1640.839111,1465.066162 1651.339966,1463.565674 
	C1656.136353,1462.880371 1660.693726,1460.304810 1665.275146,1458.385254 
	C1672.073730,1455.536865 1675.099854,1450.972656 1674.699951,1442.956299 
	C1673.938843,1427.697388 1674.479492,1412.373535 1674.479492,1396.080078 
	C1655.909912,1396.080078 1637.765625,1396.080078 1619.038818,1396.080078 
	C1619.038818,1381.962158 1619.038818,1368.837891 1619.038818,1355.135010 
	C1657.180420,1355.135010 1694.983154,1355.135010 1733.416016,1355.135010 
	C1733.587769,1358.338501 1733.875244,1361.234253 1733.878174,1364.130249 
	C1733.910034,1395.790894 1733.678711,1427.454224 1734.073608,1459.109985 
	C1734.156860,1465.787109 1731.935547,1470.386719 1727.444214,1474.835205 
	C1716.170898,1486.000854 1703.447998,1494.868774 1688.580200,1500.511841 
	C1653.952881,1513.654663 1618.551392,1516.997681 1582.883057,1506.139160 
	C1534.749878,1491.486084 1502.844360,1447.692749 1502.480591,1397.366455 
	C1502.309570,1373.706421 1502.072998,1350.036621 1502.541870,1326.384644 
	C1503.228027,1291.756592 1515.870605,1262.237549 1542.338623,1238.340576 
z"/>
<path fill="#0A0C0C" opacity="1.000000" stroke="none" 
	d="
M2852.915527,1489.147339 
	C2828.092041,1471.453613 2817.660156,1447.719116 2818.523682,1417.618164 
	C2837.843262,1417.618164 2856.364258,1417.618164 2875.528809,1417.618164 
	C2875.744873,1419.218750 2876.055664,1421.069214 2876.237549,1422.932251 
	C2878.078369,1441.782837 2886.880371,1455.565186 2905.094971,1462.407104 
	C2923.614502,1469.363525 2942.095459,1469.664551 2960.517578,1461.919922 
	C2987.423828,1450.608765 2985.321777,1414.526733 2965.803223,1402.235962 
	C2954.451904,1395.088257 2942.659668,1389.193604 2929.634766,1385.809692 
	C2903.655518,1379.060059 2879.717285,1367.885254 2856.980225,1353.591919 
	C2813.405762,1326.199707 2815.323486,1261.097656 2854.952881,1233.761353 
	C2874.941162,1219.973633 2896.747559,1212.203369 2921.107910,1211.423706 
	C2943.316650,1210.712891 2964.993652,1212.472534 2985.452393,1222.199341 
	C3007.678711,1232.766357 3025.054932,1247.825317 3032.886475,1272.037231 
	C3035.889160,1281.320679 3037.253174,1290.759277 3035.825928,1301.082764 
	C3017.199219,1301.082764 2998.717529,1301.082764 2979.800049,1301.082764 
	C2979.492432,1299.450684 2979.034912,1297.870361 2978.915771,1296.264893 
	C2977.256592,1273.926147 2962.550049,1260.786133 2941.461670,1257.058716 
	C2928.093750,1254.696045 2914.894775,1255.455688 2902.581543,1262.087036 
	C2890.742188,1268.462891 2884.353027,1278.308838 2883.948486,1291.817505 
	C2883.557373,1304.873901 2890.006592,1313.762817 2901.031982,1320.079834 
	C2914.666016,1327.891235 2928.853760,1334.204834 2944.107178,1338.180908 
	C2967.868164,1344.374756 2989.366455,1355.209839 3009.514160,1369.283325 
	C3049.882324,1397.480835 3051.832764,1467.707031 3002.934082,1494.850220 
	C2975.236572,1510.224976 2945.896973,1514.186157 2915.078125,1511.190796 
	C2892.822266,1509.027832 2872.317139,1501.642578 2852.915527,1489.147339 
z"/>
<path fill="#0A0C0C" opacity="1.000000" stroke="none" 
	d="
M2880.795410,957.167053 
	C2872.151123,952.036621 2864.037842,947.463501 2856.131836,942.556946 
	C2815.161621,917.131042 2814.691895,854.665222 2851.863525,825.959839 
	C2870.499756,811.568176 2891.597900,803.121155 2915.178955,801.638611 
	C2937.575195,800.230591 2959.798340,800.826538 2980.886230,810.026855 
	C2994.110596,815.796265 3006.559082,822.794922 3016.350586,833.627563 
	C3030.872803,849.693970 3037.789795,868.466492 3036.081299,890.840454 
	C3017.204346,890.840454 2998.725342,890.840454 2979.777344,890.840454 
	C2979.476807,889.136536 2979.064453,887.557678 2978.936279,885.956055 
	C2977.190186,864.126648 2963.248535,850.875305 2942.371826,847.059631 
	C2928.064209,844.444641 2913.758789,844.968994 2900.789795,852.873291 
	C2888.172119,860.563721 2882.630371,872.044983 2884.183105,886.640320 
	C2885.194336,896.147339 2890.307129,903.258240 2898.516602,908.283813 
	C2912.790283,917.021667 2927.890869,923.778687 2944.102539,928.001099 
	C2968.541504,934.366577 2990.770996,945.265381 3011.065430,960.278015 
	C3050.291504,989.295044 3051.011719,1057.578125 3004.012207,1083.982178 
	C2991.736084,1090.878662 2978.987549,1096.553955 2965.125732,1099.016968 
	C2926.092285,1105.952759 2888.809326,1101.657593 2854.737793,1079.968140 
	C2831.695312,1065.299316 2820.243652,1043.690430 2818.599854,1016.676270 
	C2818.422363,1013.760376 2818.856689,1010.807251 2819.042969,1007.172363 
	C2838.052002,1007.172363 2856.509277,1007.172363 2875.659424,1007.172363 
	C2875.849365,1008.775269 2876.111816,1010.632202 2876.284180,1012.497437 
	C2878.113281,1032.268555 2887.726562,1046.329590 2906.817139,1052.838135 
	C2924.357178,1058.817871 2942.050781,1059.342407 2959.464111,1052.074951 
	C2971.428467,1047.081909 2979.061035,1038.478638 2980.308105,1025.194580 
	C2981.662109,1010.766663 2976.974609,999.058533 2964.368164,991.018433 
	C2953.922852,984.356506 2942.678955,979.699341 2930.919922,975.791199 
	C2914.243896,970.248962 2897.905273,963.693237 2880.795410,957.167053 
z"/>
<path fill="#0A0B0B" opacity="1.000000" stroke="none" 
	d="
M2216.004395,1215.699707 
	C2226.638672,1215.699707 2236.277832,1215.699707 2246.667969,1215.699707 
	C2279.328369,1312.865112 2311.905762,1409.783569 2344.719971,1507.407227 
	C2323.648438,1507.407227 2303.787354,1507.407227 2283.232910,1507.407227 
	C2276.650146,1486.824341 2270.094482,1466.326172 2263.390625,1445.364746 
	C2231.959961,1445.364746 2200.803467,1445.364746 2169.017578,1445.364746 
	C2162.517578,1466.012451 2156.046631,1486.567749 2149.471191,1507.454712 
	C2129.360107,1507.454712 2109.439697,1507.454712 2087.970215,1507.454712 
	C2120.733887,1410.265869 2153.364258,1313.473145 2186.324951,1215.699707 
	C2195.900391,1215.699707 2205.454590,1215.699707 2216.004395,1215.699707 
M2196.083008,1359.035400 
	C2192.094482,1371.845459 2188.105713,1384.655640 2184.007812,1397.816895 
	C2206.066162,1397.816895 2226.923584,1397.816895 2248.750000,1397.816895 
	C2238.101318,1363.878418 2227.675049,1330.648804 2216.511475,1295.068848 
	C2209.396973,1317.216797 2202.928711,1337.353271 2196.083008,1359.035400 
z"/>
<path fill="#0B0D0D" opacity="1.000000" stroke="none" 
	d="
M2690.001465,969.204956 
	C2679.432129,969.204895 2669.862549,969.204895 2659.852051,969.204895 
	C2659.852051,997.032776 2659.852051,1023.925598 2659.852051,1051.913818 
	C2702.053467,1051.913818 2744.498291,1051.913818 2787.396240,1051.913818 
	C2787.396240,1067.492188 2787.396240,1081.979492 2787.396240,1097.055664 
	C2725.217773,1097.055664 2663.404297,1097.055664 2600.882324,1097.055664 
	C2600.882324,1000.222900 2600.882324,903.436035 2600.882324,806.053711 
	C2662.775879,806.053711 2724.895996,806.053711 2787.292480,806.053711 
	C2787.292480,820.775574 2787.292480,835.058594 2787.292480,850.313477 
	C2745.010742,850.313477 2702.859131,850.313477 2660.048340,850.313477 
	C2660.048340,875.080017 2660.048340,898.885620 2660.048340,923.669067 
	C2695.650146,923.669067 2731.133057,923.669067 2767.095215,923.669067 
	C2767.095215,939.115173 2767.095215,953.591309 2767.095215,969.204956 
	C2741.469238,969.204956 2716.235596,969.204956 2690.001465,969.204956 
z"/>
<path fill="#0B0D0D" opacity="1.000000" stroke="none" 
	d="
M730.001099,805.461792 
	C757.603943,805.461853 784.206726,805.461853 811.221069,805.461853 
	C811.221069,820.798950 811.221069,835.291016 811.221069,850.457642 
	C768.952209,850.457642 727.046692,850.457642 684.331787,850.457642 
	C684.331787,874.898987 684.331787,898.666748 684.331787,923.726624 
	C701.831238,923.726624 719.697754,923.726685 737.564270,923.726685 
	C755.180603,923.726685 772.796997,923.726624 790.999878,923.726624 
	C790.999878,938.863586 790.999878,953.360229 790.999878,968.892517 
	C755.514587,968.892517 720.048706,968.892517 684.056274,968.892517 
	C684.056274,997.025879 684.056274,1024.134277 684.056274,1052.016113 
	C726.506897,1052.016113 768.676331,1052.016113 811.409424,1052.016113 
	C811.409424,1067.269287 811.409424,1081.765625 811.409424,1096.956299 
	C749.612000,1096.956299 687.796692,1096.956299 625.888550,1096.956299 
	C623.587708,1089.476562 622.503174,848.013855 624.750244,805.607239 
	C642.090698,805.299194 659.563538,805.507324 677.027222,805.470276 
	C694.351807,805.433472 711.676453,805.461914 730.001099,805.461792 
z"/>
<path fill="#0B0D0D" opacity="1.000000" stroke="none" 
	d="
M1845.999023,850.774292 
	C1827.686768,850.774231 1810.374634,850.774231 1792.328857,850.774231 
	C1792.328857,874.917419 1792.328857,898.707764 1792.328857,923.411560 
	C1827.594360,923.411560 1863.081055,923.411560 1899.172363,923.411560 
	C1899.172363,938.808777 1899.172363,953.317078 1899.172363,968.753479 
	C1863.816895,968.753479 1828.319946,968.753479 1792.211792,968.753479 
	C1792.211792,996.789490 1792.211792,1023.915649 1792.211792,1051.759521 
	C1834.339478,1051.759521 1876.511230,1051.759521 1919.415039,1051.759521 
	C1919.415039,1067.174194 1919.415039,1081.893188 1919.415039,1097.132568 
	C1857.416504,1097.132568 1795.606201,1097.132568 1733.093262,1097.132568 
	C1733.093262,1000.224182 1733.093262,903.458496 1733.093262,806.076294 
	C1794.952393,806.076294 1857.065186,806.076294 1919.476318,806.076294 
	C1919.476318,820.667175 1919.476318,834.941528 1919.476318,850.557495 
	C1907.294434,851.002258 1895.124878,850.710571 1882.973633,850.763000 
	C1870.982178,850.814758 1858.990601,850.774292 1845.999023,850.774292 
z"/>
<path fill="#090B0B" opacity="1.000000" stroke="none" 
	d="
M1423.150391,934.896729 
	C1408.363770,968.319275 1381.032959,983.447510 1347.726685,989.943726 
	C1339.632568,991.522461 1331.187866,991.665833 1322.894409,991.787048 
	C1305.004395,992.048645 1287.107788,991.867493 1268.492432,991.867493 
	C1268.492432,1027.329712 1268.492432,1061.858643 1268.492432,1097.003540 
	C1248.946899,1097.003540 1230.122559,1097.003540 1211.252930,1097.003540 
	C1209.377808,1090.155396 1208.861206,818.346863 1210.854370,805.481384 
	C1213.650513,805.481384 1216.570557,805.482910 1219.490479,805.481140 
	C1255.798462,805.459351 1292.106689,805.526123 1328.414185,805.382996 
	C1351.764771,805.290955 1373.103638,811.807800 1392.312134,824.853149 
	C1416.304199,841.147400 1428.184814,864.351990 1429.692993,893.074646 
	C1430.434448,907.193420 1428.782959,920.983276 1423.150391,934.896729 
M1343.099487,942.651428 
	C1365.458984,934.110962 1374.969482,911.418274 1369.493774,885.601013 
	C1364.850464,863.708374 1346.293823,850.459778 1322.391724,850.618530 
	C1307.091309,850.720154 1291.789917,850.666016 1276.489258,850.758423 
	C1273.930542,850.773865 1271.374146,851.181152 1268.835205,851.405762 
	C1268.835205,883.194214 1268.835205,914.312500 1268.835205,946.146606 
	C1286.597900,946.146606 1303.840698,946.403442 1321.069092,946.020081 
	C1327.956665,945.866821 1334.812988,944.302124 1343.099487,942.651428 
z"/>
<path fill="#0B0D0D" opacity="1.000000" stroke="none" 
	d="
M2600.172852,1270.000000 
	C2600.172852,1251.709473 2600.172852,1234.418945 2600.172852,1216.410522 
	C2662.484131,1216.410522 2724.292480,1216.410522 2786.836670,1216.410522 
	C2786.836670,1230.618530 2786.836670,1245.103516 2786.836670,1260.911377 
	C2773.335938,1261.451904 2759.457275,1261.072510 2745.599609,1261.139771 
	C2731.267090,1261.209351 2716.934082,1261.155151 2702.601318,1261.155151 
	C2688.639648,1261.155151 2674.677979,1261.155151 2660.052734,1261.155151 
	C2660.052734,1285.442993 2660.052734,1309.225708 2660.052734,1333.926147 
	C2695.589355,1333.926147 2731.090576,1333.926147 2767.084961,1333.926147 
	C2767.084961,1349.329224 2767.084961,1363.824585 2767.084961,1379.343750 
	C2731.329102,1379.343750 2695.861572,1379.343750 2659.896484,1379.343750 
	C2659.896484,1407.217163 2659.896484,1434.078369 2659.896484,1462.064209 
	C2702.159424,1462.064209 2744.607178,1462.064209 2787.498535,1462.064209 
	C2787.498535,1477.691040 2787.498535,1492.198853 2787.498535,1507.302002 
	C2725.390381,1507.302002 2663.539062,1507.302002 2601.567627,1507.302002 
	C2601.475586,1507.216431 2601.211914,1507.006226 2600.993164,1506.756714 
	C2600.782959,1506.517090 2600.458984,1506.237305 2600.458008,1505.973999 
	C2600.346191,1477.980835 2600.207520,1449.987671 2600.184570,1421.994385 
	C2600.143555,1371.662964 2600.173096,1321.331421 2600.172852,1270.000000 
z"/>
<path fill="#0A0C0C" opacity="1.000000" stroke="none" 
	d="
M2485.493652,1065.991333 
	C2485.493652,1076.636353 2485.493652,1086.283813 2485.493652,1097.253784 
	C2475.700195,1098.026978 2466.169678,1097.531128 2456.681885,1097.617798 
	C2447.052734,1097.705811 2437.421875,1097.637207 2426.299072,1097.637207 
	C2426.261230,1056.293945 2426.284424,1015.475769 2426.280518,974.658020 
	C2426.276367,933.729065 2426.279541,892.800110 2426.279541,850.907288 
	C2398.749268,850.907288 2371.940918,850.907288 2344.656738,850.907288 
	C2344.656738,835.427246 2344.656738,820.906006 2344.656738,805.921997 
	C2418.936768,805.921997 2493.140137,805.921997 2567.899902,805.921997 
	C2567.899902,820.444824 2567.899902,834.946350 2567.899902,850.422485 
	C2540.907471,850.422485 2513.784180,850.422485 2485.493652,850.422485 
	C2485.493652,922.586914 2485.493652,993.790344 2485.493652,1065.991333 
z"/>
<path fill="#0A0C0C" opacity="1.000000" stroke="none" 
	d="
M2018.081787,1298.001587 
	C2018.081787,1368.241333 2018.081787,1437.481812 2018.081787,1507.303223 
	C1998.280151,1507.303223 1979.174316,1507.303223 1959.185547,1507.303223 
	C1959.185547,1466.079224 1959.185547,1425.153687 1959.185547,1384.228149 
	C1959.185547,1343.640747 1959.185547,1303.053345 1959.185547,1261.349731 
	C1931.677124,1261.349731 1904.883911,1261.349731 1877.516357,1261.349731 
	C1877.516357,1245.754761 1877.516357,1231.272339 1877.516357,1216.240234 
	C1951.894531,1216.240234 2026.058594,1216.240234 2100.902344,1216.240234 
	C2100.902344,1230.666992 2100.902344,1245.170776 2100.902344,1260.641479 
	C2073.968994,1260.641479 2046.781250,1260.641479 2018.506836,1260.641479 
	C2017.631836,1273.337280 2018.299805,1285.188721 2018.081787,1298.001587 
z"/>
<path fill="#0B0D0D" opacity="1.000000" stroke="none" 
	d="
M2431.429688,1240.041626 
	C2431.429688,1314.286621 2431.429688,1387.540283 2431.429688,1461.892578 
	C2474.706787,1461.892578 2517.774658,1461.892578 2561.397461,1461.892578 
	C2561.397461,1477.476196 2561.397461,1491.974854 2561.397461,1507.187500 
	C2498.784668,1507.187500 2436.081299,1507.187500 2372.804199,1507.187500 
	C2372.804199,1410.378052 2372.804199,1313.661987 2372.804199,1216.317261 
	C2392.031494,1216.317261 2411.155762,1216.317261 2431.429688,1216.317261 
	C2431.429688,1223.932129 2431.429688,1231.491211 2431.429688,1240.041626 
z"/>
<path fill="#0C0E0E" opacity="1.000000" stroke="none" 
	d="
M2023.832397,954.000000 
	C2023.832397,1002.197571 2023.832397,1049.395142 2023.832397,1097.118042 
	C2004.014771,1097.118042 1985.148438,1097.118042 1966.245239,1097.118042 
	C1964.224731,1090.557373 1963.522461,820.021912 1965.588257,805.905762 
	C1984.719238,805.905762 2003.917114,805.905762 2023.832397,805.905762 
	C2023.832397,855.206665 2023.832397,904.103333 2023.832397,954.000000 
z"/>
<path fill="#080A0A" opacity="1.000000" stroke="none" 
	d="
M1787.171631,1220.020874 
	C1788.469116,1217.920166 1789.739502,1215.876709 1791.033813,1215.861450 
	C1808.963257,1215.651123 1826.896118,1215.719360 1845.432373,1215.719360 
	C1845.432373,1312.971924 1845.432373,1409.685425 1845.432373,1507.138672 
	C1826.608276,1507.138672 1807.525879,1507.138672 1787.155762,1507.138672 
	C1787.155762,1411.791138 1787.155762,1316.406128 1787.171631,1220.020874 
z"/>
<path fill="#080A0A" opacity="1.000000" stroke="none" 
	d="
M1452.209595,1410.000000 
	C1452.209595,1442.924194 1452.209595,1474.848389 1452.209595,1507.321167 
	C1432.682129,1507.321167 1413.850220,1507.321167 1394.299194,1507.321167 
	C1394.299194,1410.619019 1394.299194,1313.855103 1394.299194,1216.399902 
	C1412.988403,1216.399902 1432.079224,1216.399902 1452.209595,1216.399902 
	C1452.209595,1280.617920 1452.209595,1344.808960 1452.209595,1410.000000 
z"/>
<path fill="#141515" opacity="1.000000" stroke="none" 
	d="
M912.151733,1270.645996 
	C910.239929,1288.980347 899.777283,1301.340698 887.129883,1312.087646 
	C875.466003,1321.998901 863.270508,1331.284180 851.323486,1340.862915 
	C848.747803,1342.927979 846.233398,1345.069336 842.747375,1347.957153 
	C874.078430,1383.595947 905.197632,1418.993652 937.152039,1455.341431 
	C953.309753,1432.726807 959.586670,1407.910645 960.361145,1380.863037 
	C962.328186,1380.662720 963.904907,1380.397583 965.485779,1380.369995 
	C967.126038,1380.341309 968.770264,1380.542725 971.462830,1380.707886 
	C972.323425,1411.501465 962.845154,1438.795410 945.301392,1464.301880 
	C957.576599,1478.359375 969.722290,1492.268555 982.364136,1506.745850 
	C973.781372,1509.395264 968.325684,1507.481689 963.341980,1501.281616 
	C955.640198,1491.699951 947.106689,1482.786987 938.307495,1472.895386 
	C935.725952,1475.191406 933.343079,1477.284302 930.989014,1479.409058 
	C912.847229,1495.783569 892.603210,1508.024292 867.824219,1511.107422 
	C847.681152,1513.613647 828.019043,1512.139893 809.134338,1503.882080 
	C758.091370,1481.562500 757.697327,1425.360229 778.727234,1395.713257 
	C789.581909,1380.410767 802.370972,1366.914429 816.875549,1355.030029 
	C819.960449,1352.502441 823.033875,1349.960815 827.043091,1346.659424 
	C824.927063,1343.766846 822.822571,1340.972412 820.804199,1338.117310 
	C810.197693,1323.113403 800.087646,1307.755981 796.961548,1289.224609 
	C794.508850,1274.685181 794.055359,1260.065796 799.979431,1246.001709 
	C808.689209,1225.324341 824.701111,1214.299194 846.546143,1211.850098 
	C857.774963,1210.591187 869.154724,1210.544678 880.065857,1214.759033 
	C899.851318,1222.401123 911.888550,1239.510742 912.299622,1260.830200 
	C912.357361,1263.825317 912.244934,1266.823730 912.151733,1270.645996 
M885.704285,1413.312378 
	C868.574280,1393.932739 851.444214,1374.553101 834.230957,1355.079468 
	C815.148315,1368.493530 799.656067,1383.845581 787.816895,1402.714966 
	C766.185608,1437.191162 778.938171,1477.791626 816.184021,1494.247192 
	C831.398010,1500.968872 847.234009,1501.530640 863.216980,1499.941895 
	C890.214661,1497.258301 912.205261,1484.757812 929.892517,1465.090942 
	C929.623718,1463.828979 929.660645,1463.417603 929.472717,1463.203247 
	C915.198547,1446.924438 900.906677,1430.661255 885.704285,1413.312378 
M868.673523,1223.580200 
	C862.720825,1223.253174 856.717285,1222.264160 850.824463,1222.716675 
	C828.444519,1224.435669 811.185974,1240.044312 808.029480,1261.932495 
	C803.606445,1292.603271 816.731018,1317.129761 835.883423,1340.072754 
	C851.431213,1327.628052 866.538452,1316.206299 880.792480,1303.803955 
	C886.668579,1298.691284 891.771790,1292.025757 895.390076,1285.106079 
	C906.667053,1263.540771 900.972839,1231.183105 868.673523,1223.580200 
z"/>
<path fill="#1C1E1E" opacity="1.000000" stroke="none" 
	d="
M3265.388184,1458.000366 
	C3265.388184,1476.276978 3265.388184,1493.553467 3265.388184,1511.450439 
	C3260.206055,1511.450439 3255.749268,1511.450439 3250.737305,1511.450439 
	C3250.737305,1275.193604 3250.737305,1039.036499 3250.737305,802.060364 
	C3255.215576,802.060364 3259.914551,802.060364 3265.388184,802.060364 
	C3265.388184,1020.597839 3265.388184,1238.799072 3265.388184,1458.000366 
z"/>
<path fill="#0E1010" opacity="1.000000" stroke="none" 
	d="
M3531.933838,1198.282104 
	C3529.888184,1205.801270 3527.653320,1212.451416 3526.223877,1219.270386 
	C3523.913330,1230.294800 3527.293213,1235.230713 3538.948730,1235.344360 
	C3551.861084,1235.470459 3564.861572,1234.397095 3577.695801,1232.810791 
	C3596.654785,1230.467407 3610.685547,1219.574829 3622.134521,1204.913208 
	C3623.364014,1203.338501 3624.265869,1201.383301 3625.782715,1200.195679 
	C3627.055664,1199.199341 3629.003906,1199.066040 3630.653076,1198.550537 
	C3630.841553,1200.053101 3631.585449,1201.755737 3631.128174,1203.025513 
	C3628.197754,1211.157715 3625.021240,1219.201904 3621.890625,1227.261353 
	C3619.845703,1232.526489 3617.741943,1237.768799 3615.507080,1243.419678 
	C3569.124756,1243.419678 3522.768311,1243.419678 3476.411865,1243.419678 
	C3476.177002,1242.851318 3475.942139,1242.282959 3475.707275,1241.714478 
	C3477.305908,1240.691284 3478.814941,1238.980347 3480.518066,1238.757812 
	C3490.741943,1237.421509 3495.329590,1230.357788 3497.778320,1221.618286 
	C3509.710938,1179.031128 3521.532715,1136.412109 3533.165771,1093.742188 
	C3538.125732,1075.549927 3535.834717,1072.559082 3516.712646,1069.980713 
	C3515.799805,1069.857788 3514.942139,1069.324463 3512.728271,1068.466675 
	C3514.949951,1067.100342 3516.286377,1065.580078 3517.658203,1065.547363 
	C3526.983887,1065.325073 3536.317139,1065.408569 3545.647949,1065.407593 
	C3576.973145,1065.403809 3608.298584,1065.406006 3639.623779,1065.405884 
	C3642.890381,1065.405884 3646.156982,1065.406006 3650.579346,1065.406006 
	C3647.767822,1078.949097 3645.262695,1091.578247 3642.384277,1104.121704 
	C3642.051758,1105.570435 3639.645020,1106.543213 3636.548340,1109.100952 
	C3636.548340,1102.801270 3636.571777,1098.933228 3636.543457,1095.065552 
	C3636.472412,1085.315308 3632.650635,1080.319092 3623.281006,1077.896484 
	C3607.604248,1073.843140 3591.679688,1073.682495 3575.647217,1074.809204 
	C3568.739746,1075.294678 3565.153809,1078.389648 3563.385986,1085.400635 
	C3558.916260,1103.128174 3553.594971,1120.640503 3548.689453,1138.259766 
	C3548.182861,1140.079346 3548.176758,1142.038330 3547.857666,1144.573975 
	C3561.723145,1145.040527 3574.998535,1144.353638 3587.739990,1140.437134 
	C3591.765137,1139.199829 3595.326172,1135.213379 3598.177490,1131.730469 
	C3601.272949,1127.949585 3603.293945,1123.288940 3605.850098,1118.896973 
	C3609.471191,1118.391235 3610.739502,1120.101440 3609.773682,1123.473511 
	C3608.034424,1129.547363 3606.068604,1135.555786 3604.290283,1141.618652 
	C3600.733643,1153.744019 3597.234863,1165.886475 3593.723389,1178.025269 
	C3592.635010,1181.787354 3591.003906,1184.302734 3586.568359,1181.066895 
	C3587.033936,1177.609375 3587.716309,1174.040405 3587.959961,1170.441650 
	C3588.606689,1160.894043 3586.304688,1157.300049 3576.879395,1156.040527 
	C3566.388184,1154.638428 3555.739746,1154.410522 3544.510986,1153.626099 
	C3540.226318,1168.776978 3536.166260,1183.132935 3531.933838,1198.282104 
z"/>
<path fill="#101112" opacity="1.000000" stroke="none" 
	d="
M3757.605957,1097.229492 
	C3759.306396,1090.654541 3761.283691,1084.945435 3762.183350,1079.071289 
	C3763.523438,1070.323364 3761.473877,1068.263916 3752.878662,1068.158203 
	C3750.672119,1068.131104 3748.464844,1068.154175 3745.155273,1068.154175 
	C3746.188477,1066.068237 3746.555664,1064.245117 3747.231201,1064.122437 
	C3760.874756,1061.648315 3774.553467,1059.369385 3789.376221,1056.856079 
	C3788.613770,1060.947998 3788.304199,1063.774780 3787.551758,1066.478638 
	C3773.926514,1115.437256 3760.220703,1164.373535 3746.626953,1213.340942 
	C3745.391357,1217.791260 3744.277588,1222.395264 3744.060547,1226.973145 
	C3743.858643,1231.229736 3746.866943,1233.096924 3750.779297,1231.262695 
	C3754.000244,1229.752808 3756.983887,1227.439941 3759.582275,1224.967407 
	C3763.585449,1221.157715 3767.169189,1216.907227 3771.706787,1212.005493 
	C3772.488281,1214.462646 3773.726074,1216.411987 3773.230225,1217.086304 
	C3765.151123,1228.074951 3757.219238,1239.319458 3743.878906,1244.694458 
	C3741.438232,1245.677856 3738.830078,1246.450195 3736.229736,1246.794312 
	C3728.263672,1247.848511 3722.464600,1243.179565 3722.216309,1235.156616 
	C3722.056641,1230.003784 3722.799561,1224.822876 3723.248535,1217.963745 
	C3720.674805,1220.186157 3719.259033,1221.268311 3718.006592,1222.514771 
	C3713.297363,1227.203003 3709.038818,1232.453003 3703.846924,1236.515259 
	C3699.222168,1240.133545 3693.891846,1243.416748 3688.343018,1245.187012 
	C3666.402344,1252.186768 3647.675049,1238.200684 3647.782959,1215.209961 
	C3647.863037,1198.115356 3653.033691,1182.406860 3662.427246,1168.261841 
	C3671.324707,1154.863647 3682.223877,1143.083618 3695.490234,1133.957397 
	C3701.674805,1129.702637 3708.790771,1126.368164 3715.950684,1124.064453 
	C3727.251709,1120.428101 3738.260254,1120.733643 3746.906250,1133.565918 
	C3750.737061,1120.590942 3754.068848,1109.306274 3757.605957,1097.229492 
M3719.037109,1130.961060 
	C3713.919678,1134.564941 3707.924072,1137.377563 3703.838135,1141.911255 
	C3687.040771,1160.549927 3675.625244,1182.075073 3672.548096,1207.298218 
	C3671.927734,1212.382568 3672.607666,1217.955078 3674.079346,1222.887451 
	C3676.270752,1230.233521 3680.777344,1232.641479 3688.420166,1232.594604 
	C3697.003174,1232.541992 3703.958496,1228.642822 3709.438232,1222.644653 
	C3728.615967,1201.651367 3740.499512,1177.239380 3741.697266,1148.468872 
	C3742.374756,1132.188599 3736.823242,1127.802612 3719.037109,1130.961060 
z"/>
<path fill="#101112" opacity="1.000000" stroke="none" 
	d="
M4195.281250,1168.079346 
	C4202.331543,1159.227783 4209.292480,1150.302734 4216.456543,1141.544067 
	C4224.313965,1131.938232 4234.327148,1125.800171 4246.576172,1123.323242 
	C4259.772949,1120.654297 4269.375488,1131.018188 4267.911621,1141.559692 
	C4267.181641,1146.812866 4266.305664,1152.086670 4264.943848,1157.204224 
	C4259.213867,1178.734985 4253.264648,1200.207031 4247.423340,1221.708008 
	C4246.399902,1225.474487 4244.444336,1229.390137 4249.216309,1233.208252 
	C4260.413086,1230.729004 4263.817871,1219.163330 4272.813965,1211.432373 
	C4273.400879,1214.004639 4274.749023,1216.576538 4274.054199,1217.379395 
	C4266.685059,1225.888916 4259.060547,1234.182617 4251.318848,1242.358521 
	C4250.027832,1243.721802 4247.911133,1244.427246 4246.055664,1245.111206 
	C4230.844727,1250.721069 4222.475586,1241.156372 4225.453125,1228.859375 
	C4229.206543,1213.354736 4233.169922,1197.900757 4237.022949,1182.420044 
	C4239.593262,1172.095215 4242.142090,1161.764893 4244.669434,1151.429565 
	C4245.063477,1149.817871 4245.500977,1148.172852 4245.558594,1146.530396 
	C4245.798340,1139.719849 4241.848633,1135.853882 4235.644531,1138.321655 
	C4229.967773,1140.579590 4224.332520,1144.211548 4220.101074,1148.607056 
	C4204.276855,1165.047241 4191.312500,1183.536743 4183.706055,1205.298706 
	C4179.319336,1217.849609 4175.374512,1230.555054 4171.082520,1243.642578 
	C4164.684570,1243.642578 4158.103516,1243.642578 4150.482422,1243.642578 
	C4153.269043,1233.186279 4155.888672,1223.086914 4158.656738,1213.028198 
	C4164.037598,1193.472046 4169.500000,1173.938354 4174.932129,1154.396240 
	C4175.198730,1153.436401 4175.552246,1152.497437 4175.769531,1151.527222 
	C4178.566895,1139.020264 4176.120117,1136.004517 4163.243164,1136.013062 
	C4162.296875,1136.013672 4161.350586,1135.837402 4159.047363,1135.608398 
	C4160.563477,1133.696045 4161.336914,1131.670776 4162.493164,1131.421509 
	C4176.061523,1128.496338 4189.687500,1125.837769 4204.708008,1122.826172 
	C4201.876465,1137.461792 4196.568359,1150.270508 4192.537109,1164.954834 
	C4191.661621,1168.174561 4191.226074,1169.967529 4190.790527,1171.760376 
	C4191.228516,1171.961792 4191.666504,1172.163086 4192.104980,1172.364502 
	C4193.163574,1170.936035 4194.222168,1169.507690 4195.281250,1168.079346 
z"/>
<path fill="#101112" opacity="1.000000" stroke="none" 
	d="
M4016.709473,1195.194702 
	C4025.149414,1160.472290 4044.913574,1136.721680 4078.342529,1125.505371 
	C4084.853027,1123.320679 4092.043945,1122.452271 4098.951172,1122.295654 
	C4118.632324,1121.849609 4134.485352,1135.740356 4136.016602,1155.384399 
	C4136.676270,1163.850952 4136.344727,1173.034058 4133.741699,1181.002563 
	C4123.436035,1212.551147 4103.541992,1235.496704 4070.650146,1244.785156 
	C4063.791992,1246.721802 4056.069336,1247.115234 4048.953369,1246.330566 
	C4029.110352,1244.142822 4016.018311,1228.964966 4015.788818,1209.016357 
	C4015.739014,1204.698975 4016.262695,1200.374878 4016.709473,1195.194702 
M4080.015137,1233.376831 
	C4098.212402,1216.328491 4107.536621,1194.712280 4112.007324,1170.693848 
	C4113.711426,1161.538330 4114.756836,1152.334229 4112.081543,1143.056519 
	C4108.729492,1131.429932 4100.478516,1126.492065 4088.566162,1129.228882 
	C4079.706543,1131.264404 4073.025146,1136.580688 4067.358643,1143.270630 
	C4057.385254,1155.044067 4049.906250,1168.298096 4044.986816,1182.930664 
	C4041.147949,1194.348511 4039.029541,1206.113403 4039.597168,1218.177124 
	C4040.431396,1235.905518 4054.422119,1244.878662 4070.937012,1238.420532 
	C4073.681641,1237.347290 4076.177979,1235.638428 4080.015137,1233.376831 
z"/>
<path fill="#101112" opacity="1.000000" stroke="none" 
	d="
M4343.685059,1244.029053 
	C4334.073242,1247.916138 4325.058594,1248.272827 4315.555176,1246.864746 
	C4306.331055,1245.498047 4296.671875,1238.253296 4287.699707,1250.026611 
	C4287.411621,1249.177002 4287.123047,1248.327393 4286.834961,1247.477783 
	C4287.433594,1241.315430 4287.897949,1235.136230 4288.664062,1228.994751 
	C4289.717285,1220.557251 4290.999023,1212.148315 4292.183105,1203.727173 
	C4292.895996,1203.542603 4293.608887,1203.358032 4294.321289,1203.173340 
	C4295.420898,1204.788086 4296.935059,1206.262695 4297.537598,1208.045288 
	C4299.020508,1212.432007 4299.995605,1216.987915 4301.354004,1221.420532 
	C4302.031250,1223.631592 4302.956055,1225.797119 4304.019531,1227.853882 
	C4309.697266,1238.837036 4322.016602,1243.934082 4332.562012,1239.744629 
	C4342.291016,1235.879395 4347.100098,1223.504395 4343.102051,1211.708862 
	C4341.948730,1208.306641 4339.935547,1205.132690 4337.961914,1202.083740 
	C4332.359375,1193.430298 4326.497070,1184.945435 4320.897949,1176.290161 
	C4318.556641,1172.670898 4316.223633,1168.955444 4314.567871,1164.998901 
	C4305.305176,1142.870972 4321.864258,1120.387207 4345.781250,1122.618896 
	C4350.380371,1123.047974 4354.980957,1124.063232 4359.432129,1125.331787 
	C4366.925781,1127.467529 4374.276855,1129.833130 4381.055664,1122.136841 
	C4382.089355,1135.189087 4378.735840,1147.206299 4377.145020,1159.373169 
	C4377.048828,1160.107544 4375.178223,1160.609619 4373.497070,1161.591064 
	C4371.452148,1155.003784 4369.995117,1148.961914 4367.707031,1143.253296 
	C4364.159180,1134.401367 4357.433594,1129.574585 4347.679199,1129.585571 
	C4335.886719,1129.598877 4329.144531,1138.565063 4333.143066,1149.757935 
	C4335.008789,1154.981323 4338.336914,1159.747803 4341.395508,1164.466309 
	C4347.723145,1174.226440 4354.692871,1183.590698 4360.629395,1193.574585 
	C4363.428711,1198.282715 4365.420898,1203.923950 4366.103516,1209.353027 
	C4368.252441,1226.453125 4358.717285,1236.744995 4343.685059,1244.029053 
z"/>
<path fill="#0E1010" opacity="1.000000" stroke="none" 
	d="
M3905.229004,1169.508545 
	C3899.841309,1189.513184 3894.718994,1208.750244 3889.736816,1228.023682 
	C3889.456543,1229.107422 3890.335449,1230.490845 3890.860352,1232.413818 
	C3904.425781,1231.465454 3906.721680,1216.504639 3917.613525,1211.032837 
	C3917.613525,1213.202148 3918.096191,1214.732422 3917.540283,1215.406616 
	C3910.588379,1223.840576 3903.865479,1232.522095 3896.233643,1240.307129 
	C3893.223389,1243.377686 3888.283447,1245.199341 3883.907715,1246.166138 
	C3871.463867,1248.915527 3864.499023,1241.644897 3867.603271,1229.260742 
	C3871.073486,1215.415527 3875.039795,1201.693726 3878.842529,1187.932861 
	C3882.909912,1173.214233 3887.059326,1158.518311 3891.115479,1143.796631 
	C3891.629883,1141.929565 3891.794922,1139.966553 3892.276611,1137.140747 
	C3885.734863,1136.839111 3879.615479,1136.557007 3871.295898,1136.173462 
	C3873.770996,1133.215698 3874.873535,1130.624634 3876.712891,1129.898071 
	C3894.302979,1122.949829 3907.746338,1110.914673 3919.185791,1096.258301 
	C3919.927734,1095.307739 3921.265381,1094.821899 3923.687012,1093.218994 
	C3925.553711,1105.661133 3917.809082,1115.526367 3918.066650,1127.102295 
	C3924.783203,1127.102295 3931.002441,1127.102295 3938.188965,1127.102295 
	C3937.872803,1130.565063 3937.623535,1133.294678 3937.335938,1136.441162 
	C3929.676758,1136.441162 3922.730469,1136.441162 3914.410889,1136.441162 
	C3911.437988,1147.248779 3908.480957,1157.998779 3905.229004,1169.508545 
z"/>
<path fill="#101112" opacity="1.000000" stroke="none" 
	d="
M3981.322754,1235.355469 
	C3976.234375,1240.864624 3970.923828,1244.698730 3964.145752,1246.183838 
	C3953.718994,1248.468384 3946.312256,1243.138672 3945.836182,1232.380737 
	C3945.633789,1227.811768 3946.222168,1223.041504 3947.383545,1218.606812 
	C3953.023682,1197.069946 3958.979004,1175.615601 3964.825684,1154.132812 
	C3965.524170,1151.567139 3966.315674,1149.024414 3966.935791,1146.440430 
	C3969.097412,1137.432373 3967.544678,1135.317017 3958.062012,1134.233887 
	C3955.509521,1133.942383 3952.952881,1133.688110 3948.594482,1133.224976 
	C3951.241699,1131.055298 3952.437988,1129.257935 3953.905762,1128.999756 
	C3966.981934,1126.698242 3980.104248,1124.655518 3993.223877,1122.607056 
	C3993.734619,1122.527344 3994.356201,1123.160400 3995.684326,1123.861694 
	C3992.172607,1136.377808 3988.615723,1149.080200 3985.043457,1161.778198 
	C3979.823975,1180.331177 3974.570801,1198.874756 3969.388916,1217.438110 
	C3968.497314,1220.632935 3967.560791,1223.873047 3967.223877,1227.151611 
	C3966.671143,1232.528931 3969.795410,1234.608765 3974.561279,1231.845581 
	C3977.666748,1230.045288 3980.450684,1227.498291 3982.936768,1224.868164 
	C3986.544922,1221.051392 3989.753906,1216.857544 3993.077881,1212.890747 
	C3996.562988,1213.345459 3997.373779,1215.281128 3995.530029,1217.715332 
	C3991.115234,1223.544434 3986.405273,1229.150391 3981.322754,1235.355469 
z"/>
<path fill="#101112" opacity="1.000000" stroke="none" 
	d="
M3802.031494,1193.654907 
	C3806.291016,1178.154053 3810.444580,1163.466309 3814.462158,1148.741333 
	C3817.657959,1137.029907 3816.484375,1135.393433 3804.610352,1134.208130 
	C3802.680420,1134.015259 3800.753662,1133.791748 3797.946533,1133.486938 
	C3798.875977,1131.804443 3799.286133,1130.062500 3799.990967,1129.933838 
	C3814.189697,1127.342407 3828.422363,1124.936646 3843.953613,1122.269287 
	C3842.725342,1126.975220 3841.893066,1130.403320 3840.935791,1133.796021 
	C3833.006592,1161.893066 3824.980957,1189.963379 3817.183350,1218.096924 
	C3815.912598,1222.681763 3813.406494,1227.473755 3817.283936,1233.542358 
	C3829.008545,1231.138672 3833.717529,1220.445923 3841.133545,1212.908691 
	C3843.888672,1213.227783 3845.813721,1214.786865 3843.654785,1217.394531 
	C3836.898926,1225.554199 3830.389160,1234.093140 3822.571289,1241.140381 
	C3816.640625,1246.486694 3808.506348,1249.735596 3800.521484,1244.845093 
	C3792.852051,1240.147827 3792.562744,1231.976196 3794.107666,1224.302734 
	C3796.133545,1214.239624 3799.230469,1204.392212 3802.031494,1193.654907 
z"/>
<path fill="#141515" opacity="1.000000" stroke="none" 
	d="
M3635.219238,1014.070923 
	C3634.787109,1019.254822 3631.734375,1021.707703 3628.247070,1023.871704 
	C3614.703613,1032.275879 3601.287842,1040.894775 3587.569092,1049.001343 
	C3584.113770,1051.043213 3579.709717,1051.479736 3574.805176,1050.985962 
	C3576.451904,1049.076782 3577.980957,1047.049438 3579.763916,1045.277344 
	C3591.792480,1033.322754 3603.759766,1021.302734 3615.980469,1009.546631 
	C3623.915283,1001.913452 3630.080322,1003.296204 3635.219238,1014.070923 
z"/>
<path fill="#101112" opacity="1.000000" stroke="none" 
	d="
M3998.928711,1091.279053 
	C3986.256104,1096.030273 3976.287598,1088.525635 3978.111084,1076.518066 
	C3979.313477,1068.599609 3986.303955,1062.993774 3993.504395,1064.173340 
	C4000.585205,1065.333130 4006.272461,1072.857422 4004.816650,1080.473267 
	C4004.118408,1084.125732 4001.356934,1087.383667 3998.928711,1091.279053 
z"/>
<path fill="#141515" opacity="1.000000" stroke="none" 
	d="
M3832.668945,1066.317017 
	C3843.627441,1062.623291 3850.638916,1066.087891 3852.958252,1075.613892 
	C3854.363770,1081.386841 3851.971924,1087.987671 3847.239746,1091.395142 
	C3842.546631,1094.774292 3837.192139,1094.821289 3832.487061,1091.524536 
	C3827.356934,1087.929932 3824.624023,1080.868164 3826.770996,1074.904297 
	C3827.840820,1071.932617 3830.220215,1069.432373 3832.668945,1066.317017 
z"/>
<path fill="#FAFAFA" opacity="1.000000" stroke="none" 
	d="
M1532.817871,935.401123 
	C1531.272461,934.202209 1530.126099,933.112183 1530.121948,932.017822 
	C1530.022217,905.383484 1530.044067,878.748718 1530.044067,851.571533 
	C1532.627930,851.256531 1534.837280,850.773438 1537.050781,850.752625 
	C1549.708984,850.633667 1562.368896,850.513123 1575.026978,850.600403 
	C1604.575562,850.804016 1623.528564,872.577942 1619.654053,901.734070 
	C1617.509888,917.869080 1606.750854,929.513611 1589.525757,933.670166 
	C1584.401611,934.906616 1579.007690,935.432678 1573.724487,935.522522 
	C1560.403320,935.749023 1547.074707,935.541565 1532.817871,935.401123 
z"/>
<path fill="#FCFCFC" opacity="1.000000" stroke="none" 
	d="
M1176.922607,1263.415527 
	C1198.253540,1260.409546 1219.476318,1258.787598 1240.251709,1264.325684 
	C1251.775024,1267.397461 1260.844727,1274.954834 1267.838867,1284.723633 
	C1278.208984,1299.207397 1283.713135,1315.336792 1283.806274,1333.184448 
	C1283.905396,1352.161865 1283.926270,1371.140869 1283.798828,1390.117920 
	C1283.681641,1407.580444 1278.568970,1423.568604 1268.413452,1437.760620 
	C1257.029663,1453.668823 1241.590942,1462.209839 1221.778198,1462.220703 
	C1207.147949,1462.228760 1192.517822,1462.222290 1176.716309,1462.222290 
	C1176.716309,1395.897095 1176.716309,1330.090698 1176.922607,1263.415527 
z"/>
<path fill="#FAFAFA" opacity="1.000000" stroke="none" 
	d="
M2196.271729,1358.262573 
	C2202.928711,1337.353271 2209.396973,1317.216797 2216.511475,1295.068848 
	C2227.675049,1330.648804 2238.101318,1363.878418 2248.750000,1397.816895 
	C2226.923584,1397.816895 2206.066162,1397.816895 2184.007812,1397.816895 
	C2188.105713,1384.655640 2192.094482,1371.845459 2196.271729,1358.262573 
z"/>
<path fill="#FCFCFC" opacity="1.000000" stroke="none" 
	d="
M1342.391479,943.015686 
	C1334.812988,944.302124 1327.956665,945.866821 1321.069092,946.020081 
	C1303.840698,946.403442 1286.597900,946.146606 1268.835205,946.146606 
	C1268.835205,914.312500 1268.835205,883.194214 1268.835205,851.405762 
	C1271.374146,851.181152 1273.930542,850.773865 1276.489258,850.758423 
	C1291.789917,850.666016 1307.091309,850.720154 1322.391724,850.618530 
	C1346.293823,850.459778 1364.850464,863.708374 1369.493774,885.601013 
	C1374.969482,911.418274 1365.458984,934.110962 1342.391479,943.015686 
z"/>
<path fill="#FDFDFD" opacity="1.000000" stroke="none" 
	d="
M886.160217,1413.854492 
	C900.906677,1430.661255 915.198547,1446.924438 929.472717,1463.203247 
	C929.660645,1463.417603 929.623718,1463.828979 929.892517,1465.090942 
	C912.205261,1484.757812 890.214661,1497.258301 863.216980,1499.941895 
	C847.234009,1501.530640 831.398010,1500.968872 816.184021,1494.247192 
	C778.938171,1477.791626 766.185608,1437.191162 787.816895,1402.714966 
	C799.656067,1383.845581 815.148315,1368.493530 834.230957,1355.079468 
	C851.444214,1374.553101 868.574280,1393.932739 886.160217,1413.854492 
z"/>
<path fill="#FDFDFD" opacity="1.000000" stroke="none" 
	d="
M869.481201,1223.743896 
	C900.972839,1231.183105 906.667053,1263.540771 895.390076,1285.106079 
	C891.771790,1292.025757 886.668579,1298.691284 880.792480,1303.803955 
	C866.538452,1316.206299 851.431213,1327.628052 835.883423,1340.072754 
	C816.731018,1317.129761 803.606445,1292.603271 808.029480,1261.932495 
	C811.185974,1240.044312 828.444519,1224.435669 850.824463,1222.716675 
	C856.717285,1222.264160 862.720825,1223.253174 869.481201,1223.743896 
z"/>
<path fill="#FAFAFA" opacity="1.000000" stroke="none" 
	d="
M3719.794434,1130.654785 
	C3736.823242,1127.802612 3742.374756,1132.188599 3741.697266,1148.468872 
	C3740.499512,1177.239380 3728.615967,1201.651367 3709.438232,1222.644653 
	C3703.958496,1228.642822 3697.003174,1232.541992 3688.420166,1232.594604 
	C3680.777344,1232.641479 3676.270752,1230.233521 3674.079346,1222.887451 
	C3672.607666,1217.955078 3671.927734,1212.382568 3672.548096,1207.298218 
	C3675.625244,1182.075073 3687.040771,1160.549927 3703.838135,1141.911255 
	C3707.924072,1137.377563 3713.919678,1134.564941 3719.794434,1130.654785 
z"/>
<path fill="#FFFFFF" opacity="1.000000" stroke="none" 
	d="
M4194.698242,1167.279785 
	C4194.222168,1169.507690 4193.163574,1170.936035 4192.104980,1172.364502 
	C4191.666504,1172.163086 4191.228516,1171.961792 4190.790527,1171.760376 
	C4191.226074,1169.967529 4191.661621,1168.174561 4192.434570,1165.703857 
	C4193.219727,1165.510742 4193.666992,1165.995361 4194.698242,1167.279785 
z"/>
<path fill="#FCFCFC" opacity="1.000000" stroke="none" 
	d="
M4079.402100,1233.800049 
	C4076.177979,1235.638428 4073.681641,1237.347290 4070.937012,1238.420532 
	C4054.422119,1244.878662 4040.431396,1235.905518 4039.597168,1218.177124 
	C4039.029541,1206.113403 4041.147949,1194.348511 4044.986816,1182.930664 
	C4049.906250,1168.298096 4057.385254,1155.044067 4067.358643,1143.270630 
	C4073.025146,1136.580688 4079.706543,1131.264404 4088.566162,1129.228882 
	C4100.478516,1126.492065 4108.729492,1131.429932 4112.081543,1143.056519 
	C4114.756836,1152.334229 4113.711426,1161.538330 4112.007324,1170.693848 
	C4107.536621,1194.712280 4098.212402,1216.328491 4079.402100,1233.800049 
z"/>
</svg>